<?xml version="1.0" encoding="utf-8"?>
<!-- Generator: Adobe Illustrator 27.5.0, SVG Export Plug-In . SVG Version: 6.00 Build 0)  -->
<svg version="1.1" xmlns="http://www.w3.org/2000/svg" xmlns:xlink="http://www.w3.org/1999/xlink" x="0px" y="0px"
	 viewBox="0 0 500 500" style="enable-background:new 0 0 500 500;" xml:space="preserve">
<g id="BACKGROUND">
	<rect style="fill:#f4c6e0;" width="500" height="500"/>
</g>
<g id="OBJECTS">
	<g>
		<polygon style="opacity:0.47;fill:#9B9B9B;" points="187.829,456.422 349.905,456.422 301.444,286.928 240.845,286.928 		"/>
		<ellipse style="opacity:0.47;fill:#9B9B9B;" cx="202.746" cy="401.6" rx="52.166" ry="27.122"/>
	</g>
	<g>
		<path style="fill:#2A7B91;" d="M256.062,304.245c-1.11,1.09-2.85,1.78-4.9,1.5c-5.56-0.76-51.68-11.63-53.5-7.55
			c-0.8,1.79,0.03,6.27,1.23,10.79c1.55,5.79,3.71,11.65,3.85,12.05c0.83,2.38-1.94,2.66-4.12,0c-0.96-1.16-3.75-6.97-5.95-13.28
			c-2.12-6.12-3.69-12.71-2.47-16c0.39-1.06,1.08-1.77,2.13-2.02c7.65-1.77,56.9,6.36,62.28,8.38
			C258.012,299.395,257.962,302.395,256.062,304.245z"/>
		<path style="opacity:0.36;fill:#FFFFFF;" d="M256.062,304.245c-0.49-0.29-0.98-0.63-1.47-1.02
			c-10.95-8.85-52.29-11.01-64.39-11.47c0.39-1.06,1.08-1.77,2.13-2.02c7.65-1.77,56.9,6.36,62.28,8.38
			C258.012,299.395,257.962,302.395,256.062,304.245z"/>
		<g>
			<circle style="fill:#292331;" cx="167.608" cy="399.975" r="4.75"/>
			<circle style="fill:#292331;" cx="174.858" cy="425.97" r="4.75"/>
			<circle style="fill:#292331;" cx="200.365" cy="391.725" r="4.75"/>
			<circle style="fill:#292331;" cx="205.115" cy="421.22" r="4.75"/>
		</g>
		<g>
			<g>
				<path style="fill:#4C4A58;" d="M187.358,399.225c-1.657,0-3-1.343-3-3v-59.25c0-1.657,1.343-3,3-3c1.657,0,3,1.343,3,3v59.25
					C190.358,397.882,189.014,399.225,187.358,399.225z"/>
			</g>
			<g>
				<path style="fill:#4C4A58;" d="M174.858,426.725c-1.657,0-3-1.343-3-3v-14.25c0-0.686,0.234-1.35,0.665-1.883l12.5-15.5
					c0.021-0.026,0.043-0.053,0.065-0.078l12.521-14.5c0.804-0.931,2.094-1.275,3.258-0.872c1.162,0.405,1.958,1.479,2.01,2.709
					l0.486,11.746c0.068,1.655-1.218,3.053-2.874,3.121c-1.659,0.083-3.053-1.218-3.122-2.873l-0.173-4.172l-7.534,8.725
					l-11.804,14.636v13.191C177.858,425.382,176.514,426.725,174.858,426.725z"/>
			</g>
			<g>
				<path style="fill:#4C4A58;" d="M205.113,422.975c-0.035,0-0.069-0.001-0.104-0.002c-1.656-0.057-2.952-1.444-2.896-3.101
					l0.431-12.587l-31.021-15.724l-0.941,7.059c-0.219,1.643-1.728,2.792-3.37,2.577c-1.642-0.219-2.796-1.728-2.577-3.37l1.5-11.25
					c0.128-0.964,0.716-1.806,1.576-2.258c0.859-0.454,1.886-0.461,2.754-0.021l36.5,18.5c1.041,0.527,1.682,1.611,1.642,2.778
					l-0.496,14.5C208.054,421.698,206.723,422.975,205.113,422.975z"/>
			</g>
		</g>
		<path style="fill:#66A6BC;" d="M243.362,339.485c-6.62,5.49-18.11,16.84-25.15,22.58c-2.27,1.85-4.07,3.11-5.1,3.42
			c-0.26,0.08-0.7,0.14-1.29,0.2c-8.96,0.85-53.31-0.74-56.89-5.2c-1.85-2.29-3.8-5.82-4.94-9.3c-0.13-0.37-0.25-0.74-0.34-1.11
			c-0.94-3.32-1.05-6.48,0.46-8.34c3.25-4,15.63-12.75,21.25-16.25c5.28-3.29,9.63-6.08,13.7-8.31c0.29-0.16,0.52-0.29,0.68-0.38
			c0.05-0.02,0.1-0.05,0.15-0.08c0.06-0.03,0.09-0.05,0.09-0.05c8.25-4.4,15.49-6.41,27.13-5.43c17.75,1.5,31.25,5.5,34.25,11.25
			S252.112,332.235,243.362,339.485z"/>
		<path style="fill:#66A6BC;" d="M196.862,299.235c-0.82,4.82-3.8,9.26-7.96,13.18c-11.16,10.55-30.79,17.4-39.74,18.17
			c-1.88,0.16-3.29,0.05-4.05-0.35c-5.75-3-18.75-44.75-18-68.75c0.15-4.71,1.04-8.74,2.42-12.19c0,0,0.01-0.02,0.02-0.06
			c0.28-0.7,0.58-1.37,0.89-2.02c0.01-0.02,0.02-0.04,0.03-0.05c2.66-5.46,6.56-9.29,10.37-11.99c4.9-3.45,9.66-5.02,11.52-5.69
			c9.18-3.34,16.57-6.35,22.89-5.29c3.4,0.56,6.48,2.3,9.36,5.79C192.862,239.985,200.362,278.735,196.862,299.235z"/>
		<path style="fill:#80C9E0;" d="M149.062,330.475c-1.12,0.18-2.43,0.11-3.95-0.24c-13-3-23.92-63.12-15.58-80.94
			c0,0,0.01-0.02,0.02-0.06c0.07-0.22,0.37-1.08,0.89-2.02c0.01-0.02,0.02-0.04,0.03-0.05c1.09-1.95,3.13-4.24,6.14-2.18
			c0.49,0.33,0.99,0.86,1.49,1.57c4.47,6.19,9.69,26.01,13.51,46.43C155.362,313.075,157.562,329.075,149.062,330.475z"/>
		<path style="opacity:0.2;fill:#040447;" d="M149.062,330.475c0.03,0.04,0.07,0.07,0.1,0.11c-1.88,0.16-3.29,0.05-4.05-0.35
			c-13-3-23.92-63.12-15.58-80.94c0,0,0.01-0.02,0.02-0.06c0.07-0.22,0.37-1.08,0.89-2.02c0.01-0.02,0.02-0.04,0.03-0.05
			c6.09-12.46,18.58-16.48,21.89-17.68c9.18-3.34,16.57-6.35,22.89-5.29c-5.23,0.95-24.36,5.42-36.65,21.66
			c-0.17,0.23-0.34,0.46-0.5,0.7C125.632,264.885,138.312,319.115,149.062,330.475z"/>
		<path style="fill:#80C9E0;" d="M149.994,351.186c0,0-2.633-3.204,6.617-3.954s50.5,4,54.5,6.25s7.25,9.5,2,12s-56.75,1-60.25-2.75
			S149.994,351.186,149.994,351.186z"/>
		<path style="fill:#92E2F4;" d="M243.862,342.985c-9.03,8.07-19.74,18.04-26.1,22c-1.91,1.19-3.44,1.84-4.4,1.73
			c-0.59-0.07-1.06-0.39-1.43-0.88c-0.04-0.05-0.07-0.1-0.11-0.15c-2.08-3.12-0.71-12.2-0.71-12.2s3.54-3.51,8.48-8.18
			c8.89-8.4,22.31-20.57,27.77-22.82C255.862,318.985,255.612,332.485,243.862,342.985z"/>
		<path style="opacity:0.2;fill:#040447;" d="M243.862,342.985c-9.03,8.07-19.74,18.04-26.1,22c0.15-0.94,0.3-1.92,0.45-2.92
			c0.85-5.77,1.57-12.22,1.38-16.76c-0.42-10.28-22.58,2.27-41.06-6.38c-16.35-7.66,2.07-19.19,6.53-21.75
			c0.29-0.16,0.52-0.29,0.68-0.38c0.05-0.02,0.1-0.05,0.15-0.08c0.06-0.03,0.09-0.05,0.09-0.05c8.25-4.4,15.49-6.41,27.13-5.43
			c17.75,1.5,31.25,5.5,34.25,11.25C255.862,318.985,255.612,332.485,243.862,342.985z"/>
	</g>
	<g>
		<path style="fill:#8D3714;" d="M233.602,190.905c-0.06,0.56-0.92,6.68-4.74,7.3c-4,0.65-4.21,1.78-2.48,5.65
			c1.73,3.88,0.87,9-3.01,12.38c-2.22,1.92-4.76,1.51-7.09,1.31c-1.75-0.16-3.38-0.19-4.67,0.97c-3,2.72-2.5,6.72,2,6.47
			c0,0-3.11,3.37-6.24,0.87c-3.14-2.5-3.75-4.62-4.13-4c-0.38,0.63-1.16,2.1,1.35,4.92c2.32,2.6-9.81,0.06-13.59-5.52
			c-0.34-0.48-0.6-0.99-0.79-1.52c-2.35-6.63,0.04-11.9,6.16-8.89c5.28,2.6,11.27,4.43,16.2,1.67c0.78-0.44,1.54-0.99,2.26-1.67
			c5.28-4.99,8.24-22.24,4.76-28.24c-3.48-6-6.47-10.66-6.47-10.66s2.52-0.84,3.38-3.96c0,0,0.75-0.21,1.87-0.27
			c2.24-0.12,5.94,0.35,8.01,4.27c3.1,5.87-4.77,18.75,0.6,21.75C232.092,196.585,233.482,191.425,233.602,190.905z"/>
		<path style="opacity:0.32;fill:#350703;" d="M212.572,212.515c-0.02,1.93-0.36,3.39-1.09,4.22c-6.24,7.05-17.7-1.22-17.7-1.22
			v3.84l-2.78,1.9c-0.34-0.48-0.6-0.99-0.79-1.52c-2.35-6.63,0.04-11.9,6.16-8.89C201.652,213.445,207.642,215.275,212.572,212.515z
			"/>
		<path style="fill:#2B0A08;" d="M224.532,383.358c0,0-1.833,2.47-1.436,7.494c0.397,5.024-0.056,8.857-0.056,8.857
			s3.361,0.661,5.344,0v-3.04c0,0,2.512,1.91,5.023,3.334c2.512,1.425,9.254,0.955,9.518,0c0.264-0.955,0.529-2.277,0-2.938
			c-0.529-0.661-7.8-1.058-11.105-11.633C231.821,385.432,226.365,385.383,224.532,383.358z"/>
		<path style="fill:#E2894D;" d="M244.324,303.559c4.55,1.256,10.063,6.547,11.914,13.95c1.851,7.403-7.699,28.291-11.914,39.131
			s-10.824,27.894-12.146,28.687c-1.322,0.793-2.908,1.058-3.966,0c-1.058-1.058,16.698-43.59,16.525-55.391
			c-0.173-11.801-8.857-18.375-12.294-18.97C229.004,310.37,239.284,302.167,244.324,303.559z"/>
		<path style="fill:#F79B5C;" d="M244.872,338.665c-2.12,10.7-13.09,42.96-16.92,48.25c0,0-1.55,0.78-3.48,0.43
			c-1.45-0.26-3.1-1.14-4.46-3.47c0,0,2.38-21.42,3.97-33.32c1.59-11.88,1.61-15.31-1.63-16.25h-0.01
			c-1.64-0.47-1.92-4.68-0.28-9.73c1.59-4.94,5.02-10.67,10.78-14.47c0,0,0.52,0.22,1.34,0.61c2.18,1.03,6.51,3.24,9.1,5.74
			C246.852,319.885,246.982,327.955,244.872,338.665z"/>
		<path style="fill:#7A3E1A;" d="M247.512,303.765c-1.84-1.09-6.23-0.4-13.33,6.95c-1.59,1.65-3.32,3.63-5.18,6
			c-2.47,3.15-4.12,5.85-5.19,8.12c-2.47,5.23-1.92,8.24-1.47,9.47h0.01c0.16,0.44,0.31,0.65,0.31,0.65
			c-5.16-0.13-41.38-5.28-43.29-6.87c-1.91-1.59-6.68-8.06-8.27-18.24c-1.59-10.18,2.84-16.53,2.84-16.53
			c1.6-3.56,22.84-6.33,32.38-6.34c2.63,0,4.37,0.2,4.57,0.66c0.93,2.11,1.72,3.17,7.54,5.68c5.81,2.51,15.86,4.23,21.55,5.82
			C245.662,300.715,247.512,303.765,247.512,303.765z"/>
		<path style="opacity:0.3;fill:#490E05;" d="M231.972,358.905c-1.48,5.8-7.34,19.57-7.5,28.44c-1.45-0.26-3.1-1.14-4.46-3.47
			c0,0,2.38-21.42,3.97-33.32c1.59-11.88,1.61-15.31-1.63-16.25c0.16,0.44,0.31,0.65,0.31,0.65c-5.16-0.13-41.38-5.28-43.29-6.87
			c-1.91-1.59-6.68-8.06-8.27-18.24c-1.59-10.18,2.84-16.53,2.84-16.53c1.6-3.56,22.84-6.33,32.38-6.34l18.75,14.06
			c0,0,4.15,4.54,2.13,7.54c-2.02,3-7.26,8.33-9.31,5.33c-2.05-3-4.01-5.99-8.03-5.99c-4.02-0.01-3.97,5.34-13.49,0
			c-9.53-5.34-14.2-0.9-11.53,6.88c2.22,6.47,23.47,7.79,37.22,9.78c0.6,0.08,1.18,0.17,1.75,0.26c2.07,0.32,3.92,0.67,5.45,1.07
			C240.842,328.905,233.762,351.905,231.972,358.905z"/>
		<path style="fill:none;stroke:#000000;stroke-width:0.4501;stroke-miterlimit:10;" d="M189.213,232.637
			c1.764-0.025,7.8-13.617-0.925-15.467c-8.725-1.851-14.938,1.719-14.806,5.024C173.613,225.499,179.826,232.77,189.213,232.637z"
			/>
		<path style="fill:#E75F11;" d="M197.534,289.492c0,0,7.41,0.389,8.997-2.52c1.586-2.909,0.53-34.695-5.685-45.742
			c-6.214-11.047-11.586-10.241-13.749-9.65c-2.163,0.59-4.759,5.949-1.454,12.03C188.948,249.691,197.262,268.35,197.534,289.492z"
			/>
		<path style="fill:#FFAF10;" d="M198.862,290.145c-0.87,0.56-1.93,0.97-3.1,1.27c-7.18,1.84-18.71-0.61-18.71-0.61
			c-0.53-7.4-11.5-19.3-15.73-33.31c-4.23-14.02,1.98-23.27,4.62-24.86c2.65-1.58,2.38-3.04,6.61-6.34c0,0,0.58-1.41,4.94,3.13
			c1.9,1.96,4.5,5.05,8.07,9.84C197.382,255.135,198.862,290.145,198.862,290.145z"/>
		<path style="opacity:0.44;fill:#FFE6AE;" d="M198.862,290.145c-0.87,0.56-1.93,0.97-3.1,1.27c0.23-32.33-16.03-54.59-16.03-54.59
			c-1.5-2.86-2.17-5.31-2.24-7.4c1.9,1.96,4.5,5.05,8.07,9.84C197.382,255.135,198.862,290.145,198.862,290.145z"/>
		<path style="fill:#FFAF10;" d="M210.892,287.635c0,0-0.54,0.22-1.34,0.49c-1.12,0.37-2.75,0.83-4.02,0.83
			c0,0,0.47-25.38-1.78-36.22c-2.24-10.84-11.76-23.72-11.76-23.72l3.97-2.32l1.03-0.61c0.13,0,3.38,0.03,5.84,2.93
			c2.51,2.96,11.1,17.11,11.23,25.7C214.202,263.305,209.442,283.535,210.892,287.635z"/>
		<path style="opacity:0.44;fill:#FFE6AE;" d="M210.892,287.635c0,0-0.54,0.22-1.34,0.49c-2.4-6.68-1.19-20.97-0.42-26.13
			c0.88-5.82,3.76-13.62-3.76-23.9c-4.31-5.89-7.49-9.44-9.41-11.4l1.03-0.61c0.13,0,3.38,0.03,5.84,2.93
			c2.51,2.96,11.1,17.11,11.23,25.7C214.202,263.305,209.442,283.535,210.892,287.635z"/>
		<path style="fill:#8D3714;" d="M166.522,186.645c-4.04,4.04-1.27,11.55,0.08,15.19c1.34,3.64,2.61,8.54-0.48,14
			c-3.08,5.46-5.14,5.7-5.14,5.7c0.87-1.74,0.4-4.75,0.4-4.75c-0.4,3.64-2.93,6.41-5.22,9.02c-2.08,2.37-3.38,6.42-3.61,7.16
			c0.14-0.54,0.52-2.8-1.69-5.42c-2.53-3.01-3.72-8.23-3.01-10.44c0.71-2.22,1.27-4.27,1.27-4.27c-0.95,0.79-4.04,0.15-3.17-1.03
			c0.87-1.19,2.38-8.39-0.71-12.1c-3.08-3.72-2.29-11.27-2.29-11.27c-2.22,0.53-4.35-2.42-4.35-3.21c0-0.79,3.48-2.06,3.87-4.98
			c0.4-2.93,1.74-7.28,9.49-13.77c2.68-2.24,5.56-3.05,8.18-3.14h0.01c4.95-0.17,8.98,2.2,8.98,2.2s0.94,11.36-0.89,17.74
			C167.822,184.715,167.262,185.905,166.522,186.645z"/>
		<path style="opacity:0.3;fill:#490E05;" d="M166.602,201.835c1.34,3.64,2.61,8.54-0.48,14c-3.08,5.46-5.14,5.7-5.14,5.7
			c0.87-1.74,0.4-4.75,0.4-4.75c-0.4,3.64-2.93,6.41-5.22,9.02c-2.08,2.37-3.38,6.42-3.61,7.16c0.14-0.54,0.52-2.8-1.69-5.42
			c-2.53-3.01-3.72-8.23-3.01-10.44c0.71-2.22,1.27-4.27,1.27-4.27c-0.95,0.79-4.04,0.15-3.17-1.03c0.87-1.19,2.38-8.39-0.71-12.1
			c-3.08-3.72-2.29-11.27-2.29-11.27c-2.22,0.53-4.35-2.42-4.35-3.21c0-0.79,3.48-2.06,3.87-4.98c0.4-2.93,1.74-7.28,9.49-13.77
			c2.68-2.24,5.56-3.05,8.18-3.14c-0.17,0.22-0.26,0.34-0.26,0.34s-11.2,5.16-10.37,13.78c0.83,8.62-2.5,13.64,0.67,18.38
			c3.16,4.74,0.16,9.57,1.83,10.57s3.48,0.61,2.32,6.56c-1.15,5.94,3.01,4.71,4.85-0.43c1.83-5.13,10.017-2.662,7.645-6.929
			c-2.767-4.977-8.525-26.241-1.585-24.801c1.09,0.23,2.1,1.11,3,2.47c-0.42,1.44-0.98,2.63-1.72,3.37
			C162.482,190.685,165.252,198.195,166.602,201.835z"/>
		<path style="fill:#C62B0C;" d="M179.43,216.113c4.791-1.445,13.088-0.529,15.996,5.685c2.908,6.213,2.908,12.955,2.38,13.352
			c-0.529,0.397-5.949-4.098-8.593-2.512c-2.644,1.586-3.569,8.196-5.288,9.65c-1.719,1.454-7.011-4.363-10.446-11.105
			C170.044,224.441,171.101,218.624,179.43,216.113z"/>
		<g>
			<path style="fill:#F79B5C;" d="M222.112,199.855c0.39,2.43,0,5.26-1.34,8.02c-1.11,2.3-2.87,4.55-5.38,6.45
				c0,0-0.01,0.01-0.01,0.02c-0.75,0.58-1.57,1.12-2.46,1.62c0,0,0,0-0.01,0c-0.46,0.28-0.93,0.53-1.43,0.77
				c-5.35,2.59-13.58-0.89-19.73-4.37c-3.63-2.04-6.53-4.08-7.69-4.87c0,0-2.58-1.12-4.11-3.58c-0.64-1.03-1.09-2.29-1.09-3.81
				c0,0-13.13-7.12-8.5-20.5c4.45-12.88,20.96-24.02,41.6-9.53c0.8,0.55,1.6,1.15,2.4,1.78c0,0,0.7,0.72,1.71,1.96
				c1.62,1.99,4.05,5.32,5.62,9.09c0.22,0.53,0.42,1.06,0.6,1.6c0.29,0.83,0.52,1.67,0.68,2.51c0.05,0.28,0.1,0.56,0.14,0.84
				c0.06,0.43,0.11,0.83,0.14,1.2c0.47,4.72-0.66,5.64-1.12,7.46c-0.05,0.21-0.09,0.42-0.12,0.66c-0.09,0.64-0.09,1.4,0.07,2.44
				C222.082,199.695,222.102,199.775,222.112,199.855z"/>
			<path style="fill:#F79B5C;" d="M193.452,232.375c-0.69,0.71-1.22,1.11-1.22,1.11c-6.03,0.27-10.81-2.99-13.92-6.02
				c-2.12-2.07-2.28-5.34-0.6-7.78c0.75-1.09,1.51-2.6,2.15-4.7c1.19-3.93,0.73-8.14,0.09-11.07c-0.46-2.17-1.03-3.65-1.08-3.8
				l12.89,11.97c0,0,0,0-0.01,0.28c-0.03,0.47-0.09,1.73-0.27,5.13c-0.1,2.16,0.64,3.59,1.58,4.53
				C195.922,224.895,196.242,229.435,193.452,232.375z"/>
		</g>
		<path style="opacity:0.36;fill:#FFD878;" d="M222.112,199.855c0.39,2.43,0,5.26-1.34,8.02c-1.11,2.3-2.87,4.55-5.38,6.45
			c3.04-3.51,4.51-7.48,4.86-9.92c0.42-3.01,0.01-4.35,1.23-13.26c1.18-8.65-8.92-20.38-9.52-21.07c0.8,0.55,1.6,1.15,2.4,1.78
			c0,0,0.7,0.72,1.71,1.96c1.62,1.99,4.05,5.32,5.62,9.09c0.22,0.53,0.42,1.06,0.6,1.6c0.29,0.83,0.52,1.67,0.68,2.51
			c0.05,0.28,0.1,0.56,0.14,0.84c0.06,0.43,0.11,0.83,0.14,1.2c0.47,4.72-0.66,5.64-1.12,7.46c-0.05,0.21-0.09,0.42-0.12,0.66
			c-0.09,0.64-0.09,1.4,0.07,2.44C222.082,199.695,222.102,199.775,222.112,199.855z"/>
		<path style="opacity:0.24;fill:#601506;" d="M201.262,212.965c3.72,2.12,7.8,2.91,11.65,3c-0.46,0.28-0.93,0.53-1.43,0.77
			c-5.35,2.59-13.58-0.89-19.73-4.37c-0.03,0.47-0.09,1.73-0.27,5.13c-0.1,2.16,0.64,3.59,1.58,4.53c2.86,2.87,3.18,7.41,0.39,10.35
			c-0.69,0.71-1.22,1.11-1.22,1.11c-6.03,0.27-10.81-2.99-13.92-6.02c-2.12-2.07-2.28-5.34-0.6-7.78c0.75-1.09,1.51-2.6,2.15-4.7
			c1.19-3.93,0.73-8.14,0.09-11.07c-0.64-1.03-1.09-2.29-1.09-3.81c0,0-13.13-7.12-8.5-20.5c4.62-13.37,22.25-24.87,44-7.75
			c0,0,0.7,0.72,1.71,1.96c-0.96,0.59-2.67,1.32-4.7,0.76c0,0-4.65,5.33-17.59,9.83
			C193.782,184.405,189.342,206.185,201.262,212.965z"/>
		<path style="fill:#FFEDD2;" d="M223.252,189.055c-0.03-0.37-0.08-0.77-0.14-1.2c-0.04-0.28-0.09-0.56-0.14-0.84
			c0,0-4.74,0.72-5.74,6.09c-0.71,3.84,2.45,4.56,4.78,4.07c0.03-0.24,0.07-0.45,0.12-0.66
			C222.592,194.695,223.722,193.775,223.252,189.055z"/>
		<path style="fill:#FFEDD2;" d="M207.362,190.985c-0.22,3.26-1.58,5.28-6.2,4.77c-0.69-0.07-1.45-0.2-2.3-0.4
			c-7.63-1.75-8.5-8-2.49-10.37c3.86-1.53,7.4-0.17,9.36,2C206.842,188.195,207.452,189.645,207.362,190.985z"/>
		<path style="fill:#53190B;" d="M207.362,190.985c-0.22,3.26-1.58,5.28-6.2,4.77c-0.81-0.32-3.69-1.79-2.18-5.67
			c1.32-3.39,4.59-4.36,6.75-3.1C206.842,188.195,207.452,189.645,207.362,190.985z"/>
		<path style="fill:none;stroke:#000000;stroke-width:0.4501;stroke-miterlimit:10;" d="M183.236,197.302
			c0,0,2.75-7.446-0.875-11.821s-10.018-0.801-9.5,4.602C173.38,195.488,179.486,200.248,183.236,197.302z"/>
		<path style="fill:none;stroke:#000000;stroke-width:0.4501;stroke-miterlimit:10;" d="M184.843,190.953
			c0,3.725-2.689,6.746-6.006,6.746c-3.317,0-6.006-3.02-6.006-6.746c0-3.726,2.689-6.746,6.006-6.746
			C182.154,184.207,184.843,187.227,184.843,190.953z"/>
		<path style="fill:#8E1717;" d="M209.986,206.357c4.768,1.262,7.353-0.664,7.875,2.25s-6.284,5.625-13.267,2.625
			c-6.983-3-4.983-7.25-2.233-8S205.736,205.232,209.986,206.357z"/>
		<path style="fill:#F490AF;" d="M202.591,210.19c0,0,2.645-3.292,7.145,0c0,0,3.313-2.142,5.094,1.7
			C214.831,211.889,209.279,215.203,202.591,210.19z"/>
		<path style="fill:#FFFFFF;" d="M201.258,203.76c0,0,2.729,3.836,9.104,4.967s7.066,0.196,6.283-1.712s-5.277,0.217-8.717-2.783
			C204.486,201.232,201.779,201.788,201.258,203.76z"/>
		<g style="opacity:0.36;">
			<circle style="fill:#FF3B3B;" cx="193.786" cy="202.157" r="5.169"/>
			<path style="fill:#FF3B3B;" d="M220.772,207.875c-1.67-0.56-2.88-2.15-2.88-4.02c0-2.32,1.87-4.21,4.19-4.24
				c0,0.08,0.02,0.16,0.03,0.24C222.502,202.285,222.112,205.115,220.772,207.875z"/>
		</g>
		<path style="fill:#FFC639;" d="M172.832,165.095c-5.7,6.63-7.94,17.03-8.09,17.74c-0.01,0.03-0.01,0.04-0.01,0.04
			c-3.75-0.35-5.87-7.27-1.37-14.27c2.08-3.25,4.27-4.23,6.01-4.36C171.402,164.085,172.832,165.095,172.832,165.095z"/>
		<path style="fill:#8D3714;" d="M214.362,171.855c-3.75,0.5-4.25-1.25-4.25-1.25s-0.13,2.13-5.52,6.5c-0.7,0.57-1.51,1.03-2.4,1.39
			c-5.94,2.49-15.21,0.96-16.08,1.61c-1,0.75-1.51,3.19-0.75,8.75c0.77,5.56-1.29,4.92-1.29,4.92c-0.05,4.06-3.46,4.43-3.46,4.43
			c3.12,11.22-0.5,19.78-5.25,20.28s-6.63-4.25-4.25-6.75c2.37-2.5,3.75,1,2.5,1.23s-1.75,3.27,1.75,1.64
			c3.5-1.62,1.62-5.75-4.75-10.75c-6.38-5-8-16.37-5.75-25.25c2.25-8.87,8.37-17.37,22.12-20.12s20.39,3.87,20.39,3.87
			c0.89-0.89,4.9-2.84,7.44,0.88c0.01,0.01,0.02,0.01,0.02,0.01c0.32,0.48,0.63,1.05,0.9,1.74
			C218.112,170.985,214.362,171.855,214.362,171.855z"/>
		<path style="opacity:0.3;fill:#490E05;" d="M214.812,163.235c-0.4-0.13-6.31-1.95-5.73,3.17c0,0-6.43-2.75-11.8,2.28
			c-0.31,0.29-0.61,0.6-0.91,0.94c-5.52,6.27-1.3,9.44,5.82,8.87c-5.94,2.49-15.21,0.96-16.08,1.61c-1,0.75-1.51,3.19-0.75,8.75
			c0.17,1.26,0.2,2.2,0.14,2.9c0,0.04-0.01,0.08-0.01,0.12c-0.04,0.37-0.1,0.67-0.18,0.91c-0.02,0.03-0.03,0.06-0.03,0.09
			c-0.03,0.06-0.05,0.11-0.07,0.16c-0.1,0.25-0.23,0.41-0.36,0.52c-0.03,0.03-0.07,0.05-0.1,0.07c-0.03,0.03-0.06,0.05-0.09,0.06
			c-0.09,0.05-0.17,0.08-0.24,0.09c-0.03,0.01-0.06,0.01-0.09,0.01c-0.16,0.02-0.26-0.01-0.26-0.01c-0.05,4.06-3.46,4.43-3.46,4.43
			c3.12,11.22-0.5,19.78-5.25,20.28s-6.63-4.25-4.25-6.75c2.37-2.5,3.75,1,2.5,1.23s-1.75,3.27,1.75,1.64
			c3.5-1.62,1.62-5.75-4.75-10.75c-6.38-5-8-16.37-5.75-25.25c2.16-8.52,7.9-16.7,20.54-19.77c0.51-0.13,1.04-0.24,1.58-0.35
			c0.75-0.15,1.48-0.27,2.19-0.37c11.93-1.62,17.87,3.92,18.19,4.23c0.01,0,0.01,0.01,0.01,0.01
			C208.262,161.465,212.272,159.515,214.812,163.235z"/>
		<path style="opacity:0.32;fill:#350703;" d="M207.372,162.355c-18.05-1.45-22.91,15.65-22.53,24.22c0.08,1.76,0.31,3.49,0.66,5.18
			c0,0.04-0.01,0.08-0.01,0.12c-0.04,0.37-0.11,0.67-0.18,0.91c-0.02,0.03-0.03,0.06-0.03,0.09c-0.03,0.06-0.05,0.11-0.07,0.16
			c-0.11,0.24-0.24,0.4-0.36,0.52c-0.03,0.03-0.07,0.05-0.1,0.07c-0.03,0.03-0.06,0.05-0.09,0.06c-0.09,0.05-0.17,0.08-0.24,0.09
			c-0.03,0.01-0.06,0.01-0.09,0.01c-0.16,0.02-0.26-0.01-0.26-0.01c-0.05,4.06-3.46,4.43-3.46,4.43c3.12,11.22-0.5,19.78-5.25,20.28
			c6.92-5.89,4.01-15.38,4.01-15.38s-6.03,0.3-10-7.78c-3.97-8.09,5.64-14.73,5.64-14.73c-1-12.38,6.57-19.16,10.39-21.76
			c0.51-0.13,1.04-0.24,1.58-0.35c0.75-0.15,1.48-0.27,2.19-0.37c11.93-1.62,17.87,3.92,18.19,4.23
			C207.372,162.345,207.372,162.355,207.372,162.355z"/>
		<path style="opacity:0.54;fill:#FF3B3B;" d="M213.361,200.107c3.5,0.625,3.875-2.5,2.125-2.357
			c-1.75,0.143-2.125-2.026-2.125-2.026s-1.272-1.489-1.894,1.264C210.845,199.742,213.361,200.107,213.361,200.107z"/>
		<path style="fill:#53190B;" d="M206.805,182.822c0.887-1.151-6.293-5.265-12.401-1.695c0,0-1.392,0.945,0,1.32
			s3.727-2,7.622-0.375C205.921,183.697,205.938,183.947,206.805,182.822z"/>
		<path style="fill:#53190B;" d="M222.292,184.505c-0.42,0.05-0.87,0.16-1.35,0.33c-3.42,1.22-3.45,1.44-4.14,0.43
			c-0.44-0.64,1.86-2.14,4.89-2.36C221.912,183.435,222.112,183.965,222.292,184.505z"/>
		<path style="fill:#66A6BC;" d="M207.362,162.345c-0.23-0.07-8-2.53-15.88,3.01c-5.6,3.94-6.91,11.59-7.2,15.83
			c-0.12,1.83-0.05,3.02-0.05,3.02c-3.38-3.14-7.62-1.33-7.62-1.33c-1.05-14.69,7.62-24.14,19.18-25.06
			c3.6-0.29,6.11,0.23,7.85,1.01c0,0.01,0,0.01,0,0.01C206.552,160.135,207.302,162.155,207.362,162.345z"/>
		<path style="opacity:0.3;fill:#040447;" d="M203.642,158.825c0,0.01,0,0.01,0,0.01s-11.45-2.29-17.46,5.39
			c-6,7.68-5.17,15.48-5.17,15.48s1.23,0.06,3.27,1.48c-0.12,1.83-0.05,3.02-0.05,3.02c-3.38-3.14-7.62-1.33-7.62-1.33
			c-1.05-14.69,7.62-24.14,19.18-25.06C199.392,157.525,201.902,158.045,203.642,158.825z"/>
		<path style="fill:#2A7B91;" d="M185.515,193.908c0,0,2.751,5.306,8.712,9.105c5.961,3.799,4.782,3.144,5.633,2.816
			c0.851-0.327,2.882,0.852,2.227,2.227c-0.655,1.376-2.62-0.327-3.079-0.393c-0.458-0.066-8.974-4.913-13.493-11.201
			C180.996,190.174,184.903,192.88,185.515,193.908z"/>
		<path style="fill:#53190B;" d="M222.132,196.515c0,0-3.52-0.41-2.27-3.91c0.82-2.31,2.41-3.2,3.39-3.55
			C223.722,193.775,222.592,194.695,222.132,196.515z"/>
		<path style="fill:#80C9E0;" d="M188.362,191.205v0.09c0,5.35-3.86,9.69-8.63,9.69c-4.76,0-8.62-4.34-8.62-9.69
			s3.86-9.69,8.62-9.69c0.31,0,0.63,0.02,0.93,0.06C184.972,182.185,188.322,186.245,188.362,191.205z"/>
		<circle style="fill:#FFFFFF;" cx="206.008" cy="190.579" r="0.639"/>
		<path style="fill:#FFFFFF;" d="M222.915,191.875c0,0.244-0.198,0.442-0.442,0.442c-0.244,0-0.442-0.198-0.442-0.442
			s0.198-0.442,0.442-0.442C222.717,191.433,222.915,191.631,222.915,191.875z"/>
		<path style="opacity:0.19;fill:#FFC612;" d="M233.602,190.905c-0.06,0.56-0.92,6.68-4.74,7.3c-4,0.65-4.21,1.78-2.48,5.65
			c1.73,3.88,0.87,9-3.01,12.38c-2.22,1.92-4.76,1.51-7.09,1.31c4.68-0.81,10.69-6.06,8.73-10.97c-4.79-12.01,9.13-8.89,2.49-11.25
			c-7.64-2.72-1-15.92-2-21.77c-1-5.86-7.51-5.57-7.51-5.57s0.14-0.1,0.38-0.27c2.24-0.12,5.94,0.35,8.01,4.27
			c3.1,5.87-4.77,18.75,0.6,21.75C232.092,196.585,233.482,191.425,233.602,190.905z"/>
		<path style="opacity:0.3;fill:#040447;" d="M183.859,191.61c0,3.609-2.213,6.535-4.942,6.535c-2.729,0-4.942-2.926-4.942-6.535
			c0-3.609,2.213-6.535,4.942-6.535C181.647,185.075,183.859,188.001,183.859,191.61z"/>
		<path style="opacity:0.17;fill:#040447;" d="M188.362,191.215v0.08c0,5.35-3.86,9.69-8.63,9.69c-4.76,0-8.62-4.34-8.62-9.69
			s3.86-9.69,8.62-9.69c0.31,0,0.63,0.02,0.93,0.06c-1.48,0.58-6.75,3.12-5.65,9.78
			C176.292,199.185,186.532,198.165,188.362,191.215z"/>
		<path style="opacity:0.3;fill:#490E05;" d="M169.372,164.245c0,0-8.36,7.41-6.19,15.46c0.4,1.48,0.94,2.48,1.56,3.13
			c-0.01,0.03-0.01,0.04-0.01,0.04c-3.75-0.35-5.87-7.27-1.37-14.27C165.442,165.355,167.632,164.375,169.372,164.245z"/>
		<path style="opacity:0.3;fill:#490E05;" d="M171.602,181.645c-0.06,0.05-0.16,0.15-0.32,0.27
			C171.432,181.785,171.542,181.685,171.602,181.645z"/>
		<path style="fill:#FFE6AE;" d="M173.975,229.014"/>
		<path style="fill:#3D1305;" d="M220.259,384.03c0,0-1.969,2.654-1.543,8.052s-0.06,9.517-0.06,9.517s3.611,0.71,5.742,0v-3.267
			c0,0,2.699,2.052,5.397,3.582s9.943,1.026,10.227,0c0.284-1.026,0.568-2.446,0-3.156c-0.568-0.71-8.38-1.136-11.931-12.499
			C228.09,386.258,222.228,386.205,220.259,384.03z"/>
	</g>
	<g>
		<path style="fill:#2A7B91;" d="M212.392,336.675c-1.12,1.25-3.02,2.08-5.28,1.77c-5.75-0.79-53.37-12.01-55.25-7.8
			c-1.88,4.22,4.99,22.84,5.25,23.59c0.86,2.45-2,2.75-4.25,0c-1.9-2.32-10.88-22.51-8.84-29.8c0.37-1.33,1.12-2.24,2.34-2.52
			c7.9-1.83,58.75,6.57,64.31,8.65C214.042,331.835,214.132,334.745,212.392,336.675z"/>
		<path style="opacity:0.36;fill:#FFFFFF;" d="M212.392,336.675c-0.31-0.2-0.62-0.43-0.93-0.68c-12.31-9.95-63.07-11.45-67.44-11.56
			c0.37-1.33,1.12-2.24,2.34-2.52c7.9-1.83,58.75,6.57,64.31,8.65C214.042,331.835,214.132,334.745,212.392,336.675z"/>
	</g>
	<g>
		<rect x="186.341" y="366.884" style="fill:#C07F3D;" width="6.34" height="89.538"/>
		<polygon style="fill:#7A3E1A;" points="192.681,456.422 195.455,450.478 195.455,366.884 192.681,366.884 		"/>
		<rect x="342.077" y="366.884" style="fill:#C07F3D;" width="6.34" height="89.538"/>
		<polygon style="fill:#7A3E1A;" points="342.077,456.422 339.303,450.478 339.303,366.884 342.077,366.884 		"/>
		<polygon style="fill:#C07F3D;" points="355.152,360.145 179.602,360.145 233.892,238.095 327.412,238.095 		"/>
		<rect x="179.604" y="360.148" style="fill:#7A3E1A;" width="175.55" height="9.114"/>
		<polygon style="opacity:0.18;fill:#601506;" points="352.512,360.145 179.602,360.145 233.892,238.095 327.412,238.095 
			241.022,245.855 208.512,344.325 		"/>
		<path style="opacity:0.22;fill:#350703;" d="M277.783,328.302c0,0-16.181,6.79-27.478,7.781
			c-11.297,0.991-30.364,3.483-28.331-5.513c2.033-8.996,27.488-81.069,37.736-82.835c10.247-1.766,23.007-3.619,26.902,3.61
			C286.613,251.345,284.059,318.529,277.783,328.302z"/>
	</g>
	<g>
		<path style="fill:#292331;" d="M228.936,327.538c0,0-0.939,3.521,1.408,5.399c2.347,1.878,43.891,1.058,46.943-4.635
			c3.051-5.693,8.919-67.188,9.154-73.29c0.235-6.103-3.021-8.954-4.225-9.154l-9.388,76.986L228.936,327.538z"/>
		<path style="fill:#4C4A58;" d="M241.603,292.075c6.926-16.455,16.203-42.931,17.611-44.34c1.408-1.408,19.951-2.817,23.002-1.878
			c3.051,0.939-7.041,77.221-7.98,78.394c-0.939,1.173-44.83,5.868-45.3,3.286C228.467,324.956,238.742,298.874,241.603,292.075z"/>
		<path style="fill:#292331;" d="M269.307,250.552c6.103-0.224,10.093-0.704,9.388,5.164c-0.704,5.868-5.398,46.708-7.511,48.82
			c-2.112,2.113-29.809,2.817-29.105,0c0.704-2.816,18.308-52.106,19.951-52.576C263.674,251.491,266.487,250.656,269.307,250.552z"
			/>
		<path style="fill:#292331;" d="M253.112,310.169c8.443-0.573,17.298-1.934,17.372,0c0.145,3.755-0.231,8.446-1.639,9.15
			c-1.408,0.704-31.705,4.463-31.705,2.586c0-1.878,3.505-10.327,4.927-10.562C243.488,311.108,249.61,310.407,253.112,310.169z"/>
	</g>
	<g>
		<path style="fill:#FFC639;" d="M242.622,275.865c0,0-1.32,0.69-3.47,1.61c-3.09,1.31-7.91,3.09-13.06,3.95
			c-7.75,1.29-13.11,2.47-15.4,1.8c0.35-5.22,1.86-13.47,2.73-20.35c0.11-0.78,0.2-1.54,0.27-2.28c0.01-0.03,0.01-0.04,0.01-0.04
			c1,2.39,2.68,5.44,4.86,6.06c3.7,1.06,11.24-2.11,22.87,0C241.432,266.615,242.752,272.965,242.622,275.865z"/>
		<path style="opacity:0.44;fill:#FFE6AE;" d="M242.622,275.865c0,0-1.32,0.69-3.47,1.61c-0.36-1.73-0.54-4.03-2.01-5.49
			c-2.62-2.59-8.38-1.91-17.07-2.82c-5.57-0.58-6.61-3.95-6.65-6.29c-0.02-1.16,0.21-2.07,0.27-2.28c0.01-0.03,0.01-0.04,0.01-0.04
			c1,2.39,2.68,5.44,4.86,6.06c3.7,1.06,11.24-2.11,22.87,0C241.432,266.615,242.752,272.965,242.622,275.865z"/>
		<path style="fill:#FFC639;" d="M208.512,296.225c0,0-0.26,0.19-0.66,0.57c-0.92,0.88-2.57,2.74-3.37,5.48h-0.01
			c-0.28,0.96-0.45,2.03-0.45,3.2c0,0-8.73-4.09-13.36-5.28c-4.62-1.19-17.58-6.48-20.22-9.26c-2.65-2.77-7.67-23-9.92-30.4
			c-2.24-7.41-5.8-24.34,5.42-27.9c1.45-0.46,3.06-0.13,4.6,0.84c0,0.01,0,0.01,0,0.01c0.82,0.52,1.62,1.23,2.37,2.11
			c0.23,0.25,0.44,0.52,0.65,0.81c2.28,3.06,3.96,7.74,4.02,13.42c0.13,11.37,0.68,28.69,1.79,30.01c1.12,1.32,12.75,7,19.49,10.31
			C205.602,293.445,208.252,295.035,208.512,296.225z"/>
		<path style="opacity:0.24;fill:#601506;" d="M204.472,302.275c-0.28,0.96-0.45,2.03-0.45,3.2c0,0-8.73-4.09-13.36-5.28
			c-4.62-1.19-17.58-6.48-20.22-9.26c-2.65-2.77-7.67-23-9.92-30.4c-2.24-7.41-5.8-24.34,5.42-27.9c1.45-0.46,3.06-0.13,4.6,0.84
			c0,0.01,0,0.01,0,0.01c0.01,0.01,0.01,0.02,0.01,0.02s-7.76-1.93-6.65,15.57s8.04,34.84,9.58,38.29
			C175.012,290.825,199.472,300.095,204.472,302.275z"/>
		<path style="fill:#AF740B;" d="M204.02,305.479c0,0,5.445-7.174,4.493-9.254C207.562,294.145,201.145,301.407,204.02,305.479z"/>
		<path style="fill:#F79B5C;" d="M204.479,302.271c0,0,0.24,0.163,1.476,0.425c1.236,0.262,1.393,1.299,3.5,1.744
			c2.107,0.444,4.625,0.741,7.069,0.741c2.444,0,2.889,0.667,3.037,0.963c0.148,0.296,1.111,1.555,1.407,2.222
			c0,0,0,1.48,0.741,1.74c0.741,0.26,1.407-0.036,1.481-0.629c0.074-0.593,0-0.963,0-0.963s0.889-0.074,1.111-0.593s0-2.443,0-2.443
			s0.593,0.072,0.741-0.446c0.148-0.518-0.296-1.633-0.296-1.633s0.727-1.478,0.326-2.367c-0.401-0.889-1.586-1.926-2.178-2.444
			c-0.593-0.518-1.407-1.407-1.704-1.407c-0.296,0-2,0-2.963,0.296c-0.963,0.296-5.449-0.222-6.576,0
			c-1.127,0.222-4.17-0.335-4.463,0C206.895,297.813,204.137,299.139,204.479,302.271z"/>
		<path style="fill:#F79B5C;" d="M241.431,266.612c0,0,5.239-2.244,8.35-3.429c3.111-1.185,4.814-1.185,6.148-1.185
			c1.333,0,3.777,2.518,3.926,2.963c0.148,0.445,0,1.651,0,1.651s1.111,1.09,1.778,1.978c0.667,0.889,1.111,3.555,1.111,3.555
			s0.074,0.741,0.741,1.185c0.667,0.444-0.074,1.629-1.407,1.259c-1.333-0.37-3.852-3.852-5.926-4.518
			c-2.074-0.667-4.444,0.391-4.444,0.391s1.481,0.35,2.963,0.498c1.481,0.148,1.555,1.333,1.407,1.926
			c-0.148,0.593-1.509,0.889-3.495,0.889c-1.986,0-4.282,0.296-6.208-0.074c-1.926-0.37-3.191-0.592-3.744-0.222
			C242.078,273.85,240.192,267.597,241.431,266.612z"/>
		<path style="opacity:0.44;fill:#FFE6AE;" d="M208.512,296.225c0,0-0.26,0.19-0.66,0.57c-7.68-5.33-22.86-10.62-28.12-13.38
			c-6.02-3.15-5.22-11.34-4.47-25.89c0.73-14.15-2.26-21.6-2.42-22c0.02,0.01,0.04,0.04,0.07,0.07c0.1,0.14,0.32,0.41,0.65,0.81
			c2.28,3.06,3.96,7.74,4.02,13.42c0.13,11.37,0.68,28.69,1.79,30.01c1.12,1.32,12.75,7,19.49,10.31
			C205.602,293.445,208.252,295.035,208.512,296.225z"/>
		<path style="fill:#F79B5C;" d="M190.677,321.917"/>
	</g>
	<g>
		
			<ellipse transform="matrix(0.1566 -0.9877 0.9877 0.1566 119.2496 410.4421)" style="fill:#D5EFEC;" cx="299.956" cy="135.395" rx="72.756" ry="72.756"/>
		<g>
			<path style="fill:#F79B5C;" d="M279.992,205.385c-0.43-7.7-0.83-23.96,2.67-32.44c0.06-0.14,0.11-0.27,0.17-0.4l-1.04-0.8
				l-3.92-3.05c0,0-0.3,0.37-0.73,1.31c-0.21,0.44-0.45,1.01-0.71,1.72c-1.48,4.18-3.46,13.38-2.45,31.65
				c0.79,0.31,1.59,0.6,2.4,0.88c0.66,0.22,1.33,0.44,2.01,0.65L279.992,205.385z"/>
			<path style="opacity:0.15;fill:#601506;" d="M279.992,205.385c-0.43-7.7-0.83-23.96,2.67-32.44c0.06-0.14,0.11-0.27,0.17-0.4
				l-1.04-0.8l-3.92-3.05c0,0-0.3,0.37-0.73,1.31c-0.21,0.44-0.45,1.01-0.71,1.72c0.67,0.57,1.41,1.19,1.84,1.48
				c0.72,0.49-2.31,18.99-1.89,31.05c0.66,0.22,1.33,0.44,2.01,0.65L279.992,205.385z"/>
			<path style="fill:#D34C09;" d="M295.822,154.042c0,0-7.97,16.57-10.71,16.44c-0.06,0-0.12-0.01-0.18-0.02
				c-2.59-0.21-6.37-2.7-6.98-3.79c-0.03-0.06-0.06-0.12-0.07-0.17c-0.04-0.16,0.01-0.42,0.14-0.75c0.65-1.7,3.36-5.39,6.59-8.76
				c1.64-1.71,3.91-2.5,5.98-2.84C293.392,153.692,295.822,154.042,295.822,154.042z"/>
			<path style="fill:#A33404;" d="M284.932,170.462c-0.04,1.98-1.67,2.74-1.67,2.74c-3.33-1.44-5.24-2.46-6.28-3.32
				c-1.05-0.85-1.22-1.55-1.09-2.33c0.25-1.57,1.98-1.93,1.98-1.93c0.05,0.04,0.1,0.09,0.15,0.13c0.36,0.31,0.72,0.6,1.08,0.86
				c2.87,2.08,5.7,2.72,5.73,2.86C284.912,169.832,284.942,170.162,284.932,170.462z"/>
			<path style="fill:#E75F11;" d="M329.322,178.475c-0.07,0.32-0.15,0.64-0.23,0.96c-0.09,0.37-0.18,0.75-0.28,1.13
				c-0.17,0.68-0.35,1.36-0.53,2.05v0.01c-0.46,1.71-0.94,3.43-1.44,5.13c-0.81,2.72-1.68,5.38-2.56,7.86
				c-0.26,0.74-0.53,1.47-0.79,2.17c-0.03,0.08-0.06,0.16-0.09,0.24c-0.2,0.53-0.4,1.05-0.59,1.55c-0.23,0.59-0.46,1.15-0.69,1.69
				c-0.23,0.55-0.45,1.07-0.67,1.57c0,0.01-0.01,0.02-0.02,0.03c-0.13,0.29-0.25,0.57-0.38,0.85c-0.26,0.55-0.51,1.07-0.75,1.55
				c-5.11,1.49-10.45,2.43-15.96,2.76c-1.45,0.09-2.92,0.13-4.39,0.13c-6.92,0-13.62-0.97-19.96-2.77l-1.6-0.48
				c-0.09-6.77-0.04-20.66,1.7-28.11c0.34-1.45,0.83-2.92,1.42-4.37c0.08-0.23,0.18-0.46,0.28-0.68c0.27-0.64,0.56-1.27,0.86-1.89
				c0.17-0.35,0.34-0.69,0.52-1.03c3.71-7.19,9.1-13.29,10.38-14.21c0.37-0.27,0.73-0.49,1.09-0.67h0.03
				c0.68-0.35,1.32-0.56,2.05-0.67c0.21-0.04,0.42-0.06,0.64-0.08c0.28-0.03,0.57-0.04,0.87-0.04c0.26,0,0.52,0,0.8,0.01
				c0.24,0.01,0.59,0.01,1.04,0.01c0.36,0.01,0.79,0.01,1.26,0.01h0.32c1.28-0.01,2.86-0.02,4.46-0.03c0.01,0,0.01,0,0.02,0
				c0.33,0,0.67-0.01,1-0.01c1.27-0.02,2.51-0.03,3.6-0.05c0.37-0.01,0.72-0.01,1.05-0.01c1.43-0.03,2.39-0.04,2.39-0.04
				s9.32,1.25,15.03,4.53c0.43,0.25,0.84,0.51,1.23,0.78C332.672,159.925,331.652,168.655,329.322,178.475z"/>
			<path style="opacity:0.17;fill:#601506;" d="M329.322,178.475c-0.07,0.32-0.15,0.64-0.23,0.96c-0.09,0.37-0.18,0.75-0.28,1.13
				c-0.17,0.68-0.35,1.36-0.53,2.05v0.01c-0.46,1.71-0.94,3.43-1.44,5.13c-0.81,2.72-1.68,5.38-2.56,7.86
				c-0.26,0.74-0.53,1.47-0.79,2.17c-0.03,0.08-0.06,0.16-0.09,0.24c-0.2,0.53-0.4,1.05-0.59,1.55c-0.23,0.59-0.46,1.15-0.69,1.69
				c-0.23,0.55-0.45,1.07-0.67,1.57c0,0.01-0.01,0.02-0.02,0.03c-0.13,0.29-0.25,0.57-0.38,0.85c-0.26,0.55-0.51,1.07-0.75,1.55
				c-5.11,1.49-10.45,2.43-15.96,2.76c1-1.21,1.3-2.38,0.68-3.15c-1.82-2.28-3.51-17.89-5.06-24.07
				c-1.27-5.04-2.74-21.61-3.24-27.53c0.21-0.04,0.42-0.06,0.64-0.08c0.28-0.03,0.57-0.04,0.87-0.04c0.26,0,0.52,0,0.8,0.01
				c0.24,0.01,0.59,0.01,1.04,0.01c0.36,0.01,0.79,0.01,1.26,0.01h0.32c1.28-0.01,2.86-0.02,4.46-0.03c0.01,0,0.01,0,0.02,0
				c0.38,0.09,0.73,0.18,1.05,0.27c0.7,0.19,1.23,0.35,1.5,0.49c0.35,0.18,0.75,1.02,1.16,2.27c1.4,4.19,3.05,13,4.33,17.02
				c1.66,5.23,2.34,3.44,4.12,1.44s-0.61-4.16,0-8.66c0.61-4.5,6.8-5.26,0.93-8.31c-3.32-1.73-5.46-2.7-6.69-3.22
				c-0.94-0.4-1.35-0.54-1.35-0.54c0.18-0.28,0.38-0.56,0.6-0.83c1.43-0.03,2.39-0.04,2.39-0.04s9.32,1.25,15.03,4.53
				c0.43,0.25,0.84,0.51,1.23,0.78C332.672,159.925,331.652,168.655,329.322,178.475z"/>
			<path style="fill:#F79B5C;" d="M314.172,153.042c-4.28,4.16-9.59,5.43-11.99,4.16c-2.39-1.27-3.15-4.04-3.15-4.04
				c1.15-0.58,2.54-1.5,3-5.78c0.47-4.28,0.12-8.9-4.85-6.47c-4.84,2.37-13.74,0.56-15.69-1.25c-0.05-0.04-0.1-0.09-0.14-0.14
				c-0.73-0.84-1.59-2.39-2.4-4.05c-0.99-2.03-1.89-4.21-2.34-5.42c-0.14-0.38-0.25-0.9-0.33-1.52c-0.3-2-0.35-5.04-0.32-7.75
				c0.01-0.94,0.02-1.84,0.04-2.64c0.01-0.37,0.02-0.71,0.03-1.03c0-0.12,0.01-0.24,0.01-0.36c0-1.19-0.2-2.47-0.47-3.67
				c-0.18-0.84-0.4-1.64-0.61-2.35c-0.41-1.38-0.77-2.39-0.77-2.64c0-0.21,0.13-0.51,0.38-0.91v-0.01c0.42-0.68,1.15-1.64,2.16-3.01
				c0.04-0.06,0.09-0.12,0.13-0.19c0.51-0.74,0.92-1.71,1.24-2.67c0.06-0.18,0.12-0.36,0.17-0.53c0.53-1.74,0.77-3.31,0.77-3.31
				c4.39-6.12,23.8-5.77,29.23-1.96c5.43,3.81,2.31,27.73,1.62,32.81c-0.69,5.09,1.04,23.23,1.96,23.58
				C312.782,152.232,314.172,153.042,314.172,153.042z"/>
			<path style="opacity:0.36;fill:#FFD878;" d="M282.832,139.052c0,0-0.76,0.1-1.34,0.61c-0.05-0.04-0.1-0.09-0.14-0.14
				c-0.73-0.84-1.59-2.39-2.4-4.05c-0.99-2.03-1.89-4.21-2.34-5.42c-0.14-0.38-0.25-0.9-0.33-1.52c-0.3-2-0.35-5.04-0.32-7.75
				c0.01-0.94,0.02-1.84,0.04-2.64c0.01-0.37,0.02-0.71,0.03-1.03c0-0.12,0.01-0.24,0.01-0.36c0-1.19-0.2-2.47-0.47-3.67
				c-0.18-0.84-0.4-1.64-0.61-2.35c-0.41-1.38-0.77-2.39-0.77-2.64c0-0.21,0.13-0.51,0.38-0.91v-0.01c0.42-0.68,1.15-1.64,2.16-3.01
				c0.04-0.06,0.09-0.12,0.13-0.19c0.51-0.74,0.92-1.71,1.24-2.67c0.5,0.51,1,0.52-0.23,3.25c-1.86,4.09-1.38,4.93-0.31,10.8
				c1.07,5.87-0.3,8.6,0.71,13.21C279.282,133.172,282.832,139.052,282.832,139.052z"/>
			<path style="opacity:0.24;fill:#601506;" d="M314.172,153.042c-4.28,4.16-9.59,5.43-11.99,4.16c-2.39-1.27-3.15-4.04-3.15-4.04
				c1.15-0.58,2.54-1.5,3-5.78c0.47-4.28,0.12-8.9-4.85-6.47c-4.97,2.43-14.21,0.46-15.83-1.39c-0.73-0.84-1.59-2.39-2.4-4.05
				c13.88,2.98,22.32-9.99,22.68-15.34c0.38-5.42-0.5-19.2-6.58-18.2c-6.09,1-5.42-1.56-5.42-1.56s-2.12-1.81-5.3-1.56
				c-1.8,0.14-4.27,1.13-6.06,1.96c0.53-1.74,0.77-3.31,0.77-3.31c4.39-6.12,23.8-5.77,29.23-1.96c5.43,3.81,2.31,27.73,1.62,32.81
				c-0.69,5.09,1.04,23.23,1.96,23.58C312.782,152.232,314.172,153.042,314.172,153.042z"/>
			<path style="fill:#FFEDD2;" d="M276.002,118.142c0-0.13,0.01-0.26,0.01-0.38c0.01-0.23,0.01-0.44,0.02-0.65
				c0-0.12,0.01-0.24,0.01-0.36c0-1.19-0.2-2.47-0.47-3.67c-0.07-0.34-0.15-0.68-0.23-1c-0.12-0.45-0.24-0.89-0.36-1.29
				c-0.01-0.02-0.01-0.04-0.02-0.06c0.321-0.784,0.925-1.15,2.282-0.92c0,0,4.178,0.47,4.618,5.51
				C282.232,119.602,277.922,119.312,276.002,118.142z"/>
			<path style="fill:#53190B;" d="M277.052,118.022c-0.12-0.09-0.52-0.17-1.04-0.26c0.01-0.23,0.01-0.44,0.02-0.65
				c0-0.12,0.01-0.24,0.01-0.36c0-1.19-0.2-2.47-0.47-3.67c0.03-0.36-0.07-0.7-0.23-1c-0.12-0.45-0.24-0.89-0.36-1.29
				c1.43,0.05,4.3,0.57,4.51,3.84C279.722,118.052,277.052,118.022,277.052,118.022z"/>
			<path style="fill:#FFEDD2;" d="M297.892,119.982c-0.75,0.09-1.44,0.15-2.04,0.16c-4.02,0.04-5.04-1.82-4.95-4.66
				c0.04-1.18,0.7-2.39,1.76-3.33c1.89-1.71,5.06-2.58,8.26-0.94C305.922,113.772,304.642,119.102,297.892,119.982z"/>
			<path style="fill:#53190B;" d="M295.852,120.142c-4.02,0.04-5.04-1.82-4.95-4.66c0.04-1.18,0.7-2.39,1.76-3.33
				c1.97-0.89,4.71,0.22,5.56,3.26C299.222,118.932,296.532,119.942,295.852,120.142z"/>
			<path style="fill:#8E1717;" d="M291.242,136.322h-0.01c-0.53,0.17-1.14,0.31-1.83,0.41c-3.48,0.52-6.55-0.37-8.41-1.65
				c-1.49-1.03-2.21-2.3-1.75-3.3c0.36-0.75,0.78-1.02,1.34-1.04c1.11-0.03,2.76,0.9,5.51,0.9c3.67,0,4.76-2.09,6.82-0.89
				c0.29,0.17,0.55,0.39,0.78,0.65v0.01C294.862,132.782,294.822,135.192,291.242,136.322z"/>
			<path style="fill:#F29196;" d="M291.242,136.322h-0.01c-0.53,0.17-1.14,0.31-1.83,0.41c-3.48,0.52-6.55-0.37-8.41-1.65
				c2.26-2.73,4.48-0.29,4.48-0.29C289.812,133.092,291.242,136.322,291.242,136.322z"/>
			<path style="fill:#FFFFFF;" d="M293.692,131.402v0.01c0,0-3.02,2.52-8.41,2.07c-5.39-0.45-5.75-1.35-4.71-2.73l0.01-0.01
				c1.11-0.03,2.76,0.9,5.51,0.9c3.67,0,4.76-2.09,6.82-0.89C293.202,130.922,293.462,131.142,293.692,131.402z"/>
			<g style="opacity:0.34;">
				<path style="fill:#FF3B3B;" d="M293.69,125.394c-0.255,2.626,1.668,4.962,4.294,5.217c2.626,0.255,4.962-1.668,5.217-4.294
					c0.255-2.626-1.668-4.962-4.294-5.217C296.28,120.845,293.945,122.768,293.69,125.394z"/>
				<path style="fill:#FF3B3B;" d="M280.602,125.012c-0.2,2.16-2.12,3.74-4.28,3.53c-0.01,0-0.03,0-0.04-0.01
					c-0.3-2-0.35-5.04-0.32-7.75c0.36-0.07,0.74-0.09,1.12-0.05C279.232,120.932,280.812,122.852,280.602,125.012z"/>
			</g>
			<path style="opacity:0.54;fill:#FF3B3B;" d="M284.742,122.922c-2.79,0.78-3.98-0.79-3.7-1.76c0.1-0.39,0.45-0.68,1.02-0.69
				c1.73-0.03,2.1-1.88,2.18-2.4c0.01-0.09,0.01-0.14,0.01-0.14s1.2-1.29,1.67,1.15
				C286.382,121.522,284.742,122.922,284.742,122.922z"/>
			<path style="fill:#53190B;" d="M291.424,107.554c-1.089-2.902,8.532-4.771,11.561-0.453c0,0,1.196,0.994-0.118,1.215
				c-1.314,0.221-2.712-1.522-6.979-1.025C292.013,107.741,291.885,108.783,291.424,107.554z"/>
			<path style="fill:#53190B;" d="M284.252,106.802c-0.46,1.23-0.59,0.19-4.46-0.26c-2.59-0.3-4.12,0.22-5.22,0.63
				c0.42-0.68,1.15-1.64,2.16-3.01c0.04-0.06,0.09-0.12,0.13-0.19C280.632,103.282,285.002,104.792,284.252,106.802z"/>
			<path style="fill:#8D3714;" d="M327.922,92.262c0.11,4.77-3.77,26.56-14.29,38.37c-0.2,0.23-0.41,0.46-0.62,0.69
				c0,0-0.42,0.04-1.17-0.61c-0.51-0.42-1.16-1.15-1.95-2.4c-1.75-2.78-4.05-2.92-2.9-9.24c0.14-0.77,0.34-1.64,0.59-2.62
				c2.31-8.93-0.12-17.14-1.16-18.52c-0.75-1.01-1.51-1.71-3.18-1.45c-0.01,0-0.01,0.01-0.02,0.01c-0.63,0.1-1.4,0.33-2.34,0.74
				c-2.96,1.28-4.57,2.81-7.2,2.52h-0.01c-0.45-0.05-0.94-0.15-1.46-0.32c0,0,2.2-0.7,2.77-2.66c0,0-4.86,1.7-8.89,0
				c-2.32-0.98-5.9,1.08-8.53,3v0.01c-1.95,1.42-3.37,2.77-3.37,2.77s1.04-5.09,5.43-7.98c0,0-7.28-1.96-7.63-10.97
				c0,0,4.04,4.04,8.78,2.19c0,0-3.58-4.87-3.21-9.93c0,0,0-0.01,0-0.02c0.09-1.21,0.41-2.42,1.06-3.59
				c0.44-0.79,1.03-1.57,1.81-2.29c0,0-0.58,8.55,6.58,8.78c6.27,0.21,12.1,1.56,13.45,1.9c-1.05-0.28-4.5-1.5-6.25-5.67
				c0.36,0.45,3.53,4.22,8.75,3.89c4.87-0.31,8.14,3.49,8.87,4.42c-0.5-0.78-2.27-3.79-1.48-6.27c0,0,3.47,6.47,8.78,7.63
				C324.452,85.792,327.802,87.412,327.922,92.262z"/>
			<path style="opacity:0.3;fill:#490E05;" d="M327.922,92.262c0.11,4.77-3.77,26.56-14.29,38.37c-0.6,0.04-1.2,0.07-1.79,0.08
				c-0.51-0.42-1.16-1.15-1.95-2.4c-1.75-2.78-4.05-2.92-2.9-9.24c2.27-2.15,4.42-4.16,4.73-8.28c0.59-7.76-0.71-18.84-8.48-14.31
				c-0.01,0-0.01,0.01-0.02,0.01c-0.63,0.1-1.4,0.33-2.34,0.74c-2.96,1.28-4.57,2.81-7.2,2.52c2.64-0.56,1.95-1.69,5.03-2.87
				c3.08-1.17,3.18-2.45,2.92-6.07c-0.24-3.62-4-4.12-15.52-7c-6.15-1.54-8.14-4.97-8.55-7.95c0,0,0-0.01,0-0.02
				c0.15-2.03,0.95-4.09,2.87-5.88c0,0-0.58,8.55,6.58,8.78c6.27,0.21,12.1,1.56,13.45,1.9c-1.05-0.28-4.5-1.5-6.25-5.67
				c0.36,0.45,3.53,4.22,8.75,3.89c4.87-0.31,8.14,3.49,8.87,4.42c-0.5-0.78-2.27-3.79-1.48-6.27c0,0,3.47,6.47,8.78,7.63
				C324.452,85.792,327.802,87.412,327.922,92.262z"/>
			<path style="fill:#F79B5C;" d="M307.119,120.46c0,0,3.12-5.315,5.893-3.698s2.658,6.355,0,9.244
				c-2.658,2.889-5.893,3.235-5.893,3.235S303.537,128.202,307.119,120.46z"/>
			<path style="fill:none;stroke:#000000;stroke-width:0.4161;stroke-miterlimit:10;" d="M313.012,131.321
				c0,0-3.509,1.074-3.032,6.812c0,0-1.359-4.963-0.088-9.816C309.892,128.317,312.319,131.206,313.012,131.321z"/>
			<path style="fill:#8D3714;" d="M311.182,127.592c0,0-0.4,4.31-1.41,6.2c-1.02,1.88-3.23,4.87-4.24,6.87
				c-1.02,1.99-5.06,4.48-7.09,5.11c-1.82,0.56-12.93-1.52-16.56-1.93c-0.39-0.05-0.69-0.07-0.89-0.07c-2.02,0-2.73-5.4-1.37-7.05
				l1,1.81c0,0,0.82,0.27,2.21,0.52c4.79,0.87,16.3,1.53,23.55-9.81L311.182,127.592z"/>
			<path style="opacity:0.22;fill:#FFC612;" d="M281.882,143.842c-0.39-0.05-0.69-0.07-0.89-0.07c-2.02,0-2.73-5.4-1.37-7.05l1,1.81
				c0,0,0.82,0.27,2.21,0.52C282.832,139.052,279.092,139.542,281.882,143.842z"/>
			<path style="fill:#D34C09;" d="M336.912,169.442c-0.33,4.94-1.71,9.06-2.61,11.29c-0.46,1.15-0.8,1.79-0.8,1.79
				s-1.87-1.07-4.69-1.96c-0.17-0.06-0.34-0.11-0.52-0.16c-2.38-0.71-5.36-1.25-8.45-0.94h-0.01c-0.2,0.02-0.4,0.04-0.61,0.07
				c0,0,0.42-0.86,0.91-2.05c0.74-1.78,1.65-4.31,1.58-5.8c-0.13-2.49,0.25-4.61,1.74-7.72c0.51-1.05,1.03-2.21,1.63-3.24h0.01
				c0.83-1.42,1.81-2.61,3.12-3.01c0.31-0.09,0.64-0.14,0.99-0.14c0.27,0,0.56,0.03,0.86,0.1
				C332.962,158.342,337.412,161.962,336.912,169.442z"/>
			<path style="fill:#3B3843;" d="M324.142,124.172l-12.94,17.1c-0.95,1.26-2.72,1.53-4.01,0.62l-3.71-2.61c0,0-0.03-0.02-0.09-0.06
				l-0.15-0.1c-0.13-0.09-0.29-0.2-0.48-0.35l-2.81-1.97c-1.35-0.96-1.64-2.85-0.64-4.16l12.97-17.04c0.95-1.24,2.72-1.52,4-0.62
				l1.02,0.71l3.32,2.32l0.01,0.01l2.85,1.99C324.842,120.962,325.142,122.852,324.142,124.172z"/>
			<path style="opacity:0.21;fill:#FFEDD2;" d="M317.302,115.692c-2.99-1.47-3.71-0.066-4.29,0.574
				c-0.75,0.82-11.294,13.856-12.534,16.956c-0.94,2.33,1.014,4.58,2.284,5.55l-2.81-1.97c-1.35-0.96-1.64-2.85-0.64-4.16
				l12.97-17.04c0.95-1.24,2.72-1.52,4-0.62L317.302,115.692z"/>
			<path style="fill:#F79B5C;" d="M332.672,184.022c-1.34,2.59-7.33,11.66-11.4,16.79c-1.23,1.54-2.28,2.72-2.98,3.27
				c-3.05,2.36-5.05,1.49-7.42,0.62c-2.37-0.87-3.74-1-4.99-5.73c-1.24-4.74-7.47-42.24-7.6-45.11c-0.12-2.86-1.12-3.36-1.62-5.35
				c-0.49-2,0.75-4.61,2.87-6.86c2.12-2.24,2.37-4.48,2.24-5.98c-0.12-1.49-1.12-2.99-0.99-3.61c0.12-0.62,0.62-1.5,1.99-0.75
				s1.62,5.36,1.99,4.86c0.38-0.5,1.25-3.11,1.25-4.86c0-1.74-0.13-2.49-1.37-3.36c-1.25-0.87-1-1.87,0-2.55
				c0.95-0.65,3.45,1.21,3.72,1.41c-0.11-0.12-0.59-0.7-0.07-1.1c0.12-0.1,0.31-0.18,0.58-0.25c1.5-0.38,3.12,1.12,3.12,1.12
				c0.25-0.87,1.25-0.38,1.87,0c0.62,0.37,1.37,2.24,2.49,4.61c1.12,2.37,0.87,4.36-0.12,6.04c-1,1.68-8.35,13.15-9.1,14.14
				c-0.75,1,2.37,11.22,4.05,17.05c1.68,5.84,5.54,17.22,5.54,17.22c1-3.24,1.57-3.99,1.57-3.99
				C324.342,175.292,334.422,180.652,332.672,184.022z"/>
			<path style="opacity:0.15;fill:#601506;" d="M332.672,184.022c-1.34,2.59-7.33,11.66-11.4,16.79c-3.02,0.54-5.88,0.23-7.1-1.83
				c-2.17-3.67-11.83-40.67-12.66-46.67c-0.83-6,1.5-9.67,5.5-15.59s1.37-9.89,1.37-9.89c-0.04-0.39-0.07-0.76-0.09-1.12
				c0.12-0.1,0.31-0.18,0.58-0.25c1.5-0.38,3.12,1.12,3.12,1.12c0.25-0.87,1.25-0.38,1.87,0c0.62,0.37,1.37,2.24,2.49,4.61
				c1.12,2.37,0.87,4.36-0.12,6.04c-1,1.68-8.35,13.15-9.1,14.14c-0.75,1,2.37,11.22,4.05,17.05c1.68,5.84,5.54,17.22,5.54,17.22
				c1-3.24,1.57-3.99,1.57-3.99C324.342,175.292,334.422,180.652,332.672,184.022z"/>
			<path style="fill:#A33404;" d="M334.762,182.202c-0.15,0.42-0.36,0.93-0.64,1.38c-0.32,0.51-0.97,0.7-1.53,0.49
				c-0.97-0.37-2.64-0.98-4.31-1.45c-0.22-0.07-0.45-0.13-0.67-0.19c-0.78-0.2-1.54-0.37-2.2-0.45c-1.55-0.19-3.34-0.34-4.72-0.45
				c-0.41-0.03-0.78-0.06-1.09-0.08c-0.72-0.05-1.3-0.64-1.31-1.37c-0.01-0.59,0.09-1.3,0.46-1.94c0.23-0.39,0.66-0.62,1.11-0.65
				c0.08,0,0.17-0.01,0.27-0.01c0.37-0.02,0.83-0.03,1.38-0.03c1.85,0,4.59,0.17,7.39,0.91c0.14,0.03,0.28,0.07,0.42,0.11
				c1.72,0.5,3.45,1.22,4.98,2.26C334.772,181.052,334.952,181.662,334.762,182.202z"/>
			<path style="opacity:0.24;fill:#601506;" d="M284.742,122.922c-2.79,0.78-3.98-0.79-3.7-1.76c1.08,0.29,3.21,1.85,3.89-0.45
				c0.57-1.89-0.09-2.47-0.69-2.64c0.01-0.09,0.01-0.14,0.01-0.14s1.2-1.29,1.67,1.15
				C286.382,121.522,284.742,122.922,284.742,122.922z"/>
			<circle style="fill:#FFFFFF;" cx="292.535" cy="114.712" r="0.639"/>
			<path style="fill:#FFFFFF;" d="M276.993,113.193c0,0.268-0.217,0.486-0.486,0.486c-0.268,0-0.486-0.217-0.486-0.486
				c0-0.268,0.217-0.486,0.486-0.486C276.776,112.707,276.993,112.925,276.993,113.193z"/>
			<path style="opacity:0.25;fill:#601506;" d="M328.212,157.712c2.31,4.65,2.99,12.58,0.69,20.65c-0.19,0.66-0.39,1.33-0.61,2.04
				c-0.21,0.65-0.44,1.33-0.68,2.03c0.65,0.16,1.28,0.34,1.91,0.56c0.18,0.05,0.35,0.11,0.53,0.17c0.02,0.01,0.05,0.02,0.07,0.03
				c0.98,0.33,1.86,0.65,2.47,0.88c0.56,0.21,1.21,0.02,1.53-0.49c0.28-0.45,0.49-0.96,0.64-1.38c0.19-0.54,0.01-1.15-0.46-1.47
				c0.9-2.23,2.28-6.35,2.61-11.29c0.5-7.48-3.95-11.1-6.85-11.77c-0.3-0.07-0.59-0.1-0.86-0.1c-0.01,0-0.01,0-0.02,0
				L328.212,157.712z"/>
			<path style="opacity:0.29;fill:#FFC612;" d="M323.512,170.862c0.83,4.62-2,6.59-2,6.59s-1.36,0.87-1.67,2.01h-0.01
				c-0.19,0.64-0.04,1.37,0.86,2.07c-0.41-0.03-0.78-0.06-1.09-0.08c-0.72-0.05-1.3-0.64-1.31-1.37c-0.01-0.59,0.09-1.3,0.46-1.94
				c0.23-0.39,0.66-0.62,1.11-0.65c0.08,0,0.17-0.01,0.27-0.01c0.74-1.78,1.65-4.31,1.58-5.8c-0.13-2.49,0.25-4.61,1.74-7.72
				c0.51-1.05,1.03-2.21,1.63-3.24h0.01c0.83-1.42,1.81-2.61,3.12-3.01C328.212,157.712,322.682,166.252,323.512,170.862z"/>
			<path style="opacity:0.29;fill:#FFC612;" d="M290.592,154.152c-1.56,1.27-8.93,7.41-11.49,12.46c0,0-0.58-0.18-1.15,0.06
				c-0.61,0.28-1.2,1.08-0.97,3.21c-1.05-0.85-1.22-1.55-1.09-2.33c0.25-1.57,1.98-1.93,1.98-1.93c0.05,0.04,0.1,0.09,0.15,0.13
				c0.65-1.7,3.36-5.39,6.59-8.76C286.252,155.282,288.522,154.492,290.592,154.152z"/>
			<path style="opacity:0.22;fill:#FFC612;" d="M281.882,93.642c0,0-4.42,3.44-4.32,6.13v0.01c-1.95,1.42-3.37,2.77-3.37,2.77
				s1.04-5.09,5.43-7.98c0,0-7.28-1.96-7.63-10.97c0,0,4.04,4.04,8.78,2.19c0,0-3.58-4.87-3.21-9.93c0,0,0-0.01,0-0.02
				c0.09-1.21,0.41-2.42,1.06-3.59c0,0-0.47,9.23,4.21,14.23c0,0-5.2,1.66-8.26,1.5C274.572,87.982,278.252,93.312,281.882,93.642z"
				/>
		</g>
	</g>
	<g>
		<path style="opacity:0.22;fill:#350703;" d="M308.009,268.33c0,0-13.417-0.529-12.957,13.858
			c0.46,14.387,5.935,33.83,17.198,33.609c11.262-0.222,20.307-1.261,20.785-14.991C333.512,287.075,322.506,263.585,308.009,268.33
			z"/>
		<path style="fill:#3A3944;" d="M302.785,268.614c1.964-0.665,4.987-1.185,9.151-0.551c1.46,0.222,2.675,1.25,3.122,2.657
			c1.957,6.16,7.442,23.973,9.161,35.385c0.332,2.206-1.32,4.217-3.547,4.345c-3.033,0.175-7.276,0.518-10.9,1.178
			c-2.097,0.382-4.09-1.047-4.423-3.152c-1.209-7.634-3.8-24.399-5.085-35.805C300.063,270.899,301.094,269.186,302.785,268.614z"/>
		<path style="fill:#4C4A58;" d="M338.272,161.355c-0.02,11.2-0.96,30.95-2.19,50.2c-0.34,5.49-0.72,10.93-1.1,16.13
			c-2.33,31.85-7.15,64.15-8.91,69.67c-1.75,5.51-2.42,3.51-7.75-8.82c-3.02-6.97-8.59-20.02-12.8-30.88
			c-3.24-8.36-5.68-15.43-5.54-17.46c0.32-4.34,2.11-15.28,3.13-25.18c0.07-0.72,0.14-1.44,0.21-2.15c1.5-16.35,3.33-45,5.66-47
			c2.34-2,27-16,28.67-13.67C338.092,152.815,338.282,156.165,338.272,161.355z"/>
		<path style="fill:#292331;" d="M337.652,152.198c0,0,4.667-0.333,6,2.667c1.333,3-3,69.667-6,97.333
			c-3,27.667-5.262,52.954-12.964,47.977C324.688,300.175,339.985,183.865,337.652,152.198z"/>
		<path style="fill:#4C4A58;" d="M328.124,300.259c0,0,10.194-3.727,18.861-62.061c8.667-58.333-3.333-83.333-3.333-83.333
			S339.597,243.986,328.124,300.259z"/>
		<path style="fill:#9EE1E5;" d="M306.735,207.781c1.107-13.992,3.25-35.5,4.5-37s21.25-11,21.75-9.25s-3,40.25-3.75,61.5
			s-6.25,58.75-7.5,60.75s-17-39.75-18.25-43.25S306.161,215.046,306.735,207.781z"/>
		<polygon style="fill:#66A6BC;" points="312.221,179.7 328.212,173.56 327.612,181.936 311.725,184.157 		"/>
		<path style="fill:#292331;" d="M311.668,272.872c0,0-2.932,8.549-2.432,10.979c0.5,2.43,3.5,8.93,5.75,7.43s3.152-7.43,3.152-7.43
			L311.668,272.872z"/>
		<polyline style="fill:#66A6BC;" points="311.084,189.939 319.222,189.09 311.084,248.614 305.527,238.095 		"/>
		<path style="opacity:0.73;fill:#FFFFFF;" d="M314.172,250.437l5.797,15.722c0,0,8.147-63.137,6.595-76.847l-5.297,0.77
			L314.172,250.437z"/>
		<path style="opacity:0.19;fill:#FFFFFF;" d="M338.272,161.355c-0.02,11.2-0.96,30.95-2.19,50.2l-6.81,10.27l-20.92,31.57
			l-2.83,4.26c-3.24-8.36-5.68-15.43-5.54-17.46c0.32-4.34,2.11-15.28,3.13-25.18l3.42-5.22v-0.01l26.11-39.84L338.272,161.355z"/>
	</g>
	<g>
		<path style="fill:#4C4A58;" d="M258.702,353.265c-0.05,0.12-0.11,0.24-0.17,0.35c-1.34,2.37-5.89,3.5-10.95,3.16
			c-0.37-0.02-0.74-0.05-1.11-0.09c-3.67-0.4-7.51-1.55-10.53-3.54c-5.63-3.72-1.64-10.07,4.67-12.26h0.01
			c1.62-0.56,3.39-0.84,5.19-0.74c0.49,0.03,0.99,0.08,1.48,0.17c0.35,0.06,0.69,0.14,1.04,0.23c5.42,1.46,8.63,3.87,10.04,6.53
			c0.31,0.56,0.54,1.14,0.68,1.72C259.432,350.295,259.292,351.825,258.702,353.265z"/>
		<g>
			<g>
				<path style="fill:#292331;" d="M247.581,356.772c-0.37-0.02-0.74-0.05-1.11-0.09c2.9-4.81,3.09-8.63,2.35-11.43v-0.01
					c-0.05-0.17-0.1-0.34-0.15-0.5c-0.72-2.26-2.03-3.8-2.86-4.6c0.49,0.03,0.99,0.08,1.48,0.17c0.78,0.95,1.68,2.31,2.25,4.07
					c0.11,0.32,0.2,0.66,0.29,1.01C250.511,348.292,250.271,352.112,247.581,356.772z"/>
			</g>
			<g>
				<path style="fill:#292331;" d="M258.371,347.072c-3.59-2.29-7.58-2.63-8.83-2.69c-0.25-0.01-0.39-0.01-0.4-0.01
					c-0.23,0.01-0.42,0.17-0.47,0.37c-0.02,0.05-0.02,0.09-0.02,0.14c0,0.14,0.07,0.27,0.17,0.36v0.01c0.09,0.07,0.2,0.12,0.33,0.12
					h0.01c0.01,0,0.25,0,0.67,0.02c1.61,0.11,5.84,0.63,9.22,3.4L258.371,347.072z"/>
			</g>
		</g>
		<path style="opacity:0.2;fill:#010111;" d="M258.532,353.615c-1.34,2.37-5.89,3.5-10.95,3.16c-0.37-0.02-0.74-0.05-1.11-0.09
			c-3.67-0.4-7.51-1.55-10.53-3.54c-5.63-3.72-1.64-10.07,4.67-12.26c-1.44,1.55-1.74,4.06,2.62,7.91
			C247.252,352.355,253.212,353.465,258.532,353.615z"/>
	</g>
	<g>
		<path style="fill:#F78116;" d="M148.575,149.185c4.536-5.057,7.228-11.352,7.228-18.179c0-16.674-16.049-30.192-35.846-30.192
			c-19.797,0-35.846,13.517-35.846,30.192c0,16.674,16.049,30.192,35.846,30.192c5.883,0,11.43-1.201,16.328-3.317l0,0l17.123,7.755
			L148.575,149.185L148.575,149.185z"/>
		<path style="fill:#FFD766;" d="M133.105,171.887c3.447-3.844,5.494-8.628,5.494-13.816c0-12.673-12.197-22.946-27.244-22.946
			c-15.046,0-27.244,10.273-27.244,22.946c0,12.673,12.197,22.946,27.244,22.946c4.471,0,8.687-0.913,12.41-2.521l0,0l13.013,5.894
			L133.105,171.887L133.105,171.887z"/>
	</g>
	<g>
		<path style="fill:#F78116;" d="M355.645,136.103c-4.536-5.057-7.228-11.352-7.228-18.179c0-16.674,16.049-30.192,35.846-30.192
			c19.797,0,35.846,13.517,35.846,30.192c0,16.674-16.049,30.192-35.846,30.192c-5.883,0-11.43-1.201-16.328-3.317l0,0
			l-17.122,7.755L355.645,136.103L355.645,136.103z"/>
		<path style="fill:#FFD766;" d="M340.334,109.015c-3.447-3.844-5.494-8.628-5.494-13.816c0-12.673,12.197-22.946,27.244-22.946
			c15.046,0,27.244,10.273,27.244,22.946s-12.197,22.946-27.244,22.946c-4.471,0-8.687-0.913-12.41-2.521l0,0l-13.013,5.894
			L340.334,109.015L340.334,109.015z"/>
	</g>
</g>


</svg>
