<?xml version="1.0" encoding="utf-8"?>
<!-- Generator: Adobe Illustrator 27.5.0, SVG Export Plug-In . SVG Version: 6.00 Build 0)  -->
<svg version="1.1" xmlns="http://www.w3.org/2000/svg" xmlns:xlink="http://www.w3.org/1999/xlink" x="0px" y="0px"
	 viewBox="0 0 500 500" style="enable-background:new 0 0 500 500;" xml:space="preserve">
<g id="BACKGROUND">
</g>
<g id="OBJECTS">
	<g>
		<path style="opacity:0.15;fill:#FFB9A6;" d="M218.57,362.492l118.842,15.761C468.499,362.501,479.5,238.577,462.448,191.86
			c-36.024-98.692-115.807-55.341-135.113-51.786c-36.384,6.698-80.722-7.697-122.467-33.427s-124.289-20.2-159.866,47.307
			c-35.577,67.507-3.868,212.337,121.69,214.325L218.57,362.492z"/>
		<path style="fill:none;stroke:#84A6CE;stroke-width:1.305;stroke-miterlimit:10;stroke-dasharray:6.5248,8.2434;" d="
			M418.831,231.211c-9.339-63.371-189.999-61.332-210.84-87.963c-21.945-28.04,22.859-53.033,84.731-66.139"/>
		<path style="opacity:0.21;fill:#FFB9A6;" d="M224.18,363.305l101.895,15.712c131.74-13.827,128.344-136.523,120.677-161.582
			c-26.286-85.919-112.767-47.322-129.322-44.284c-31.198,5.724-69.217-6.586-105.015-28.586S105.876,123.928,69.73,178.287
			c-37.853,56.925,2.304,188.256,109.967,189.963L224.18,363.305z"/>
		<path style="opacity:0.34;fill:#FFB9A6;" d="M264.582,424.583c0-5.088-31.942-6.142-71.344-6.142s-71.344,1.054-71.344,6.142
			c0,1.667,3.447,2.965,9.445,3.96c-1.728,0.719-2.677,1.573-2.677,2.592c0,5.088,23.357,6.756,52.168,6.756
			s52.168-1.668,52.168-6.756c0-0.2-0.049-0.392-0.12-0.58C251.994,429.622,264.582,427.777,264.582,424.583z"/>
		<path style="opacity:0.21;fill:#FFB9A6;" d="M440.533,394.175c0-12.33-84.85-14.884-189.519-14.884s-189.519,2.554-189.519,14.884
			c0,9.523,50.622,16.073,121.89,18.562c-52.077,0.195-92.811,2.078-92.811,9.505c0,2.585,4.96,4.597,13.591,6.139
			c-2.486,1.115-3.852,2.44-3.852,4.019c0,7.889,33.61,10.475,75.07,10.475c41.46,0,75.07-2.586,75.07-10.475
			c0-0.311-0.07-0.608-0.173-0.899c27.506-1.445,45.621-4.307,45.621-9.259c0-4.671-16.115-7.149-41.03-8.394
			C357.759,413.671,440.533,406.353,440.533,394.175z"/>
		<path style="opacity:0.34;fill:#FFB9A6;" d="M393.788,393.838c0,8.296-65.532,13.24-146.369,13.24s-146.369-4.944-146.369-13.24
			s65.532-10.014,146.369-10.014S393.788,385.541,393.788,393.838z"/>
		<g>
			<path style="fill:#46C9B3;" d="M397.472,65.011c0,0-4.882,70.398-10.845,97.228c-0.052,0.236-0.105,0.47-0.157,0.703
				c-4.297,19.188-13.379,36.968-26.363,51.736l-61.734,70.219l8.925-88.385c1.798-17.802,8.475-34.753,19.268-49.024
				C343.473,125.132,370.908,90.643,397.472,65.011z"/>
			<path style="opacity:0.58;fill:#46C9B3;" d="M372.222,121.271l-1.872-19.368l-1.997,27.988l-9.768,21.764l-3.237-33.491
				l-3.452,48.397l-8.602,19.166l-5.28-39.193l-3.418,58.573l-6.814,15.183l-5.099-37.856l-3.302,56.575l-20.169,44.938
				l60.897-69.268c12.983-14.768,22.065-32.548,26.363-51.736c0.052-0.233,0.104-0.467,0.157-0.702
				c5.962-26.831,10.845-97.228,10.845-97.228L372.222,121.271z"/>
		</g>
		<g>
			<path style="fill:#46C9B3;" d="M92.473,229.427c0,0,43.376,33.463,58.142,48.866c0.13,0.135,0.259,0.27,0.386,0.404
				c10.546,11.037,18.122,24.559,22.072,39.305l18.784,70.113l-53.256-43.819c-10.727-8.826-18.802-20.437-23.375-33.554
				C108.063,290.195,97.594,257.623,92.473,229.427z"/>
			<path style="opacity:0.58;fill:#46C9B3;" d="M117.946,269.961l-13.318-7.129l17.221,13.34l9.854,15.68l-23.03-12.328
				l29.779,23.067l8.678,13.809l-27.592-13.463l36.368,27.426l6.874,10.939l-26.651-13.004l35.127,26.491l20.347,32.377
				l-18.529-69.163c-3.951-14.746-11.527-28.268-22.072-39.305c-0.128-0.134-0.257-0.268-0.386-0.404
				c-14.766-15.403-58.142-48.866-58.142-48.866L117.946,269.961z"/>
		</g>
		<g>
			<path style="fill:#46C9B3;" d="M116.95,179.679c0,0,31.282,35.484,41.273,50.964c0.088,0.136,0.175,0.271,0.261,0.406
				c7.129,11.087,11.333,23.793,12.263,36.941l4.422,62.519l-37.959-45.884c-7.646-9.242-12.586-20.41-14.311-32.28
				C120.197,233.753,116.666,204.422,116.95,179.679z"/>
			<path style="opacity:0.58;fill:#46C9B3;" d="M131.895,218.221l-10.121-8.229l12.411,14.134l5.781,14.909l-17.501-14.229
				l21.46,24.44l5.092,13.13l-21.183-15.94l26.331,29.216l4.033,10.401l-20.46-15.396l25.432,28.22l11.938,30.785l-4.362-61.672
				c-0.93-13.148-5.134-25.855-12.263-36.941c-0.087-0.135-0.174-0.27-0.261-0.406c-9.991-15.48-41.273-50.964-41.273-50.964
				L131.895,218.221z"/>
		</g>
		<g>
			<path style="fill:#46C9B3;" d="M405.449,173.609c0,0-13.21,40.142-20.626,54.837c-0.065,0.129-0.13,0.257-0.194,0.385
				c-5.323,10.504-13.215,19.486-22.928,26.144l-46.183,31.659l18.208-49.987c3.667-10.068,10.042-18.923,18.41-25.616
				C365.244,200.546,386.252,184.571,405.449,173.609z"/>
			<path style="opacity:0.58;fill:#46C9B3;" d="M382.5,202.543l1.768-11.518l-5.284,15.951l-8.878,11.193l3.057-19.917
				l-9.138,27.583l-7.818,9.857l2.713-23.528l-10.618,33.495l-6.193,7.808l2.62-22.725l-10.255,32.352l-18.331,23.111l45.558-31.23
				c9.713-6.658,17.605-15.64,22.928-26.144c0.065-0.128,0.129-0.256,0.194-0.385c7.416-14.695,20.626-54.837,20.626-54.837
				L382.5,202.543z"/>
		</g>
		<g>
			<path style="fill:#46C9B3;" d="M310.258,352.091c0,0,22.252-46.358,63.665-66.755c0,0,33.378,1.236,58.72,45.122l-52.539-16.071
				c0,0-44.504,35.85-67.992,47.594L310.258,352.091z"/>
			<path style="opacity:0.58;fill:#46C9B3;" d="M376.166,298.706c-35.125,17.3-58.706,51.027-64.377,61.553l0.323,1.722
				c23.488-11.744,67.992-47.594,67.992-47.594l50.403,15.418C405.691,295.947,376.166,298.706,376.166,298.706z"/>
		</g>
		<g>
			<g>
				<path style="fill:#473A87;" d="M333.418,397.187H185.054c-6.077,0-11.003-4.926-11.003-11.003V123.091
					c0-6.077,4.926-11.003,11.003-11.003h148.363c6.077,0,11.003,4.926,11.003,11.003v263.093
					C344.42,392.261,339.494,397.187,333.418,397.187z"/>
				<g style="opacity:0.47;">
					<path style="fill:#473A87;" d="M333.418,397.187H185.054c-6.077,0-11.003-4.926-11.003-11.003V123.091
						c0-6.077,4.926-11.003,11.003-11.003h148.363c6.077,0,11.003,4.926,11.003,11.003v263.093
						C344.42,392.261,339.494,397.187,333.418,397.187z"/>
				</g>
			</g>
			<g>
				<g>
					<path style="fill:#473A87;" d="M324.443,397.187H176.079c-6.077,0-11.003-4.926-11.003-11.003V123.091
						c0-6.077,4.926-11.003,11.003-11.003h148.363c6.077,0,11.003,4.926,11.003,11.003v263.093
						C335.445,392.261,330.519,397.187,324.443,397.187z"/>
					<rect x="171.008" y="140.995" style="fill:#9186E4;" width="158.507" height="220.778"/>
				</g>
				<g>
					<path style="fill:#473A87;" d="M315.837,126.471c0,2.947-2.389,5.336-5.336,5.336c-2.947,0-5.336-2.389-5.336-5.336
						s2.389-5.336,5.336-5.336C313.448,121.135,315.837,123.524,315.837,126.471z"/>
					<path style="fill:#473A87;" d="M302.031,126.471c0,1.608-1.304,2.912-2.912,2.912c-1.608,0-2.912-1.304-2.912-2.912
						s1.304-2.912,2.912-2.912C300.727,123.559,302.031,124.863,302.031,126.471z"/>
				</g>
				<path style="fill:#473A87;" d="M279.49,128.575h-58.457c-1.109,0-2.008-0.899-2.008-2.008l0,0c0-1.109,0.899-2.008,2.008-2.008
					h58.457c1.109,0,2.008,0.899,2.008,2.008l0,0C281.498,127.676,280.599,128.575,279.49,128.575z"/>
			</g>
			<path style="opacity:0.26;fill:#473A87;" d="M240.223,279.065h-57.017c-3.627,0-6.567-2.94-6.567-6.567V239.02
				c0-3.627,2.94-6.567,6.567-6.567h57.017c3.627,0,6.567,2.94,6.567,6.567v33.478C246.79,276.125,243.85,279.065,240.223,279.065z"
				/>
			<path style="opacity:0.26;fill:#473A87;" d="M315.244,279.065h-57.017c-3.627,0-6.567-2.94-6.567-6.567V239.02
				c0-3.627,2.94-6.567,6.567-6.567h57.017c3.627,0,6.567,2.94,6.567,6.567v33.478C321.81,276.125,318.87,279.065,315.244,279.065z"
				/>
			<path style="opacity:0.15;fill:#FFFFFF;" d="M335.445,251.328V123.091c0-6.077-4.926-11.003-11.003-11.003H219.978
				L335.445,251.328z"/>
			<path style="opacity:0.9;fill:#FFFFFF;" d="M243.589,275.699h-57.017c-3.627,0-6.567-2.94-6.567-6.567v-33.478
				c0-3.627,2.94-6.567,6.567-6.567h57.017c3.627,0,6.567,2.94,6.567,6.567v33.478C250.155,272.759,247.215,275.699,243.589,275.699
				z"/>
			<path style="opacity:0.26;fill:#473A87;" d="M343.477,159.818H234.174c-4.14,0-7.497,3.356-7.497,7.497l-10.026,25.072
				l10.026-7.926v21.517c0,4.14,3.356,7.497,7.497,7.497h109.303c4.14,0,7.497-3.357,7.497-7.497v-38.663
				C350.973,163.174,347.617,159.818,343.477,159.818z"/>
			<path style="opacity:0.9;fill:#FFFFFF;" d="M318.609,275.699h-57.017c-3.627,0-6.567-2.94-6.567-6.567v-33.478
				c0-3.627,2.94-6.567,6.567-6.567h57.017c3.627,0,6.567,2.94,6.567,6.567v33.478C325.176,272.759,322.236,275.699,318.609,275.699
				z"/>
			<path style="opacity:0.9;fill:#FFFFFF;" d="M345.72,156.452H236.417c-3.402,0-6.27,2.268-7.187,5.372l-0.086-0.232l-10.25,27.428
				l10.026-7.926v21.517c0,4.14,3.356,7.497,7.497,7.497H345.72c4.14,0,7.497-3.356,7.497-7.497v-38.663
				C353.217,159.809,349.861,156.452,345.72,156.452z"/>
			<g>
				<g style="opacity:0.5;">
					
						<text transform="matrix(1 0 0 1 258.7224 198.6873)" style="fill:#3C3642; font-family:'Montserrat-Regular'; font-size:12.6702px;">24.06.2020</text>
				</g>
				<g style="opacity:0.5;">
					
						<text transform="matrix(1 0 0 1 268.8874 175.9465)" style="fill:#3C3642; font-family:'Montserrat-Regular'; font-size:12.6702px;">7:00P.M.</text>
				</g>
				
					<line style="opacity:0.54;fill:none;stroke:#3C3642;stroke-width:0.9922;stroke-miterlimit:10;" x1="260.312" y1="182.071" x2="326.486" y2="182.071"/>
			</g>
			<g>
				<path style="opacity:0.26;fill:#473A87;" d="M364.145,298.581H259.329c-4.14,0-7.497,3.356-7.497,7.497l-10.026,25.072
					l10.026-7.925v21.517c0,4.14,3.356,7.497,7.497,7.497h104.815c4.14,0,7.497-3.356,7.497-7.497v-38.663
					C371.641,301.938,368.285,298.581,364.145,298.581z"/>
				<path style="opacity:0.9;fill:#FFFFFF;" d="M365.266,295.216H260.451c-3.559,0-6.533,2.483-7.299,5.809l-0.085-0.22
					l-10.138,26.979l10.026-7.925v21.517c0,4.14,3.356,7.497,7.497,7.497h104.815c4.14,0,7.497-3.356,7.497-7.497v-38.663
					C372.763,298.572,369.406,295.216,365.266,295.216z"/>
				<g>
					<g style="opacity:0.5;">
						
							<text transform="matrix(1 0 0 1 279.8913 336.9377)" style="fill:#3C3642; font-family:'Montserrat-Regular'; font-size:12.6702px;">28.06.2020</text>
					</g>
					<g style="opacity:0.5;">
						
							<text transform="matrix(1 0 0 1 290.0554 314.1956)" style="fill:#3C3642; font-family:'Montserrat-Regular'; font-size:12.6702px;">5:00P.M.</text>
					</g>
					
						<line style="opacity:0.54;fill:none;stroke:#3C3642;stroke-width:0.9922;stroke-miterlimit:10;" x1="281.482" y1="320.321" x2="347.655" y2="320.321"/>
				</g>
			</g>
			<g>
				<g style="opacity:0.5;">
					
						<text transform="matrix(1 0 0 1 265.0983 255.6472)" style="fill:#3C3642; font-family:'Montserrat-Regular'; font-size:12.6702px;">7:00 P.M</text>
				</g>
			</g>
			<g>
				<g style="opacity:0.5;">
					
						<text transform="matrix(1 0 0 1 190.3557 255.6472)" style="fill:#3C3642; font-family:'Montserrat-Regular'; font-size:12.6702px;">9:00 P.M</text>
				</g>
			</g>
			<path style="opacity:0.26;fill:#473A87;" d="M269.048,389.29h-43.252c-4.687,0-8.486-3.799-8.486-8.486l0,0
				c0-4.687,3.799-8.486,8.486-8.486h43.252c4.687,0,8.486,3.799,8.486,8.486l0,0C277.534,385.49,273.735,389.29,269.048,389.29z"/>
		</g>
		<g>
			<path style="fill:#FF4F68;" d="M168.488,196.856l-7.113-14.028c0,0-9.414,2.371-15.395,16.43
				c-5.98,14.058-5.989,42.862-5.989,42.862s8.628,13.32,20.158,15.867c11.53,2.547,12.187-22.499,12.187-22.499L168.488,196.856z"
				/>
			<path style="opacity:0.47;fill:#FF4F68;" d="M178.584,196.856l-7.113-14.028c0,0-9.414,2.371-15.395,16.43
				c-5.98,14.058-5.989,42.862-5.989,42.862s8.628,13.32,20.158,15.867c11.53,2.547,12.187-22.499,12.187-22.499L178.584,196.856z"
				/>
			<path style="fill:#FFA087;" d="M250.198,204.635c0,0,2.86-1.769,3.128-2.962c0.268-1.193,0.479-7.957,3.137-9.94
				c2.658-1.983,4.384-2.775,4.912-1.712c0.528,1.063-2.262,2.78-2.134,4.77c0.128,1.99,2.384,1.465,3.447,0.804
				c0.501-0.311,1.528-1.152,2.475-1.954c1.271-1.077,2.121-2.561,2.438-4.197c0.43-2.222,1.143-5.059,1.887-4.394
				c1.191,1.064,0.785,2.136,0.778,5.054c-0.007,2.918-1.083,7.498-1.083,7.498s-1.473,5.435-3.07,7.553
				c-1.597,2.118-9.882,5.518-9.882,5.518L250.198,204.635z"/>
			<path style="fill:#FFA087;" d="M185.255,263.968l-7.849,65.258l-29.841,73.659l2.883,18.406c0,0,12.563,5.941,7.664,7.309
				c-4.899,1.368-5.637,0.974-8.991,0.512c-3.355-0.462-7.034-2.803-7.034-2.803s-7.153-12.533-8.235-14.057
				c-1.082-1.525-6.672-6.255-1.445-10.512c1.081-0.88,2.021-1.782,2.816-2.834c2.398-3.173,3.484-7.721,3.172-17.209
				c-0.413-12.536,45.156-138.347,45.156-138.347L185.255,263.968z"/>
			<path style="fill:#FFA087;" d="M188.909,137.668c0,0,5.55,2.039,7.349,7.161c1.235,3.517,0.974,6.786,0.689,8.489
				c-0.132,0.787-0.009,1.578,0.361,2.285c0.885,1.691,1.886,6.269,0.239,9.523c-2.294,4.531-4.563,10.591-9.399,10.706
				c-4.836,0.115-8.612-3.368-8.612-3.368l-6.179-22.396L188.909,137.668z"/>
			<path style="fill:#3C3642;" d="M157.827,245.664c-19.015,11.845-12.058,46.07-8.26,58.14c3.798,12.07,3.164,17.307-4.829,27.181
				c-10.598,13.093-7.801,36.903-6.676,51.016c4.809,2.808,10.888,6.078,16.798,8.487l22.546-55.653l7.848-65.258l-1.703-20.619
				L157.827,245.664z"/>
			<path style="fill:#3C3642;" d="M169.979,281.956l-7.367-7.105c0,0,8.489,36.647,8.489,46.37c0,9.723-8.003,49.736-8.003,49.736
				l14.421-36.121l4.8-40.166L169.979,281.956z"/>
			<path style="fill:#FFA087;" d="M184.525,166.553c0,0-1.248,16.642,1.809,19.864c3.057,3.222-7.985,3.657-7.985,3.657
				l-7.003-0.184l-4.806-6.891c0,0,2.51-6.944,1.887-10.827c-0.623-3.883-5.129-13.788-5.346-17.299
				c-0.509-8.23,1.861-15.66,9.411-17.878c7.55-2.218,13.829-2.054,16.416,0.673c2.587,2.726-1.391,16.155-1.391,16.155
				L184.525,166.553z"/>
			<path style="fill:#FFA087;" d="M195.101,246.726c0,0,29.801,69.36,29.39,85.045c-0.464,17.663-3.763,82.761-3.763,82.761
				s27.329,13.436,22.44,14.43c-4.889,0.994-28.066,0.385-31.421-0.077c-3.355-0.462-5.194-1.633-5.135-3.876
				c0.059-2.243,1.406-10.811,1.406-10.811s-12.545-35.119-14.838-47.524c-2.293-12.405,1.484-28.017,0.903-34.392
				c-0.581-6.375-7.32-22.637-16.047-32.218c-8.726-9.581-19.834-28.232-15.014-40.825c4.82-12.592,5.213-11.057,5.213-11.057
				L195.101,246.726z"/>
			<path style="fill:#3C3642;" d="M224.491,331.771c0.412-15.684-29.39-85.045-29.39-85.045l-26.866,1.456
				c0,0-2.85,1.53-7.67,14.122c-4.82,12.592,8.543,27.491,16.696,37.565c8.506,10.51,16.241,26.037,16.822,32.412
				c0.581,6.375-3.196,21.987-0.903,34.392c0.908,4.913,3.425,13.388,6.133,21.834c6.36,0.384,14.433,0.156,22.795-1.923
				C223.071,366.658,224.23,341.708,224.491,331.771z"/>
			<path style="fill:#FF4F68;" d="M206.363,206.538l-10.12,41.931c0,0-16.744,6.412-40.098-1.683l-3.671-39.419l0.993-15.835
				c0.199-3.178,2.101-5.979,4.951-7.397c2.423-1.206,5.249-2.276,7.06-1.864c0,0,10.329,5.538,19.842-0.572
				c0,0,15.229,4.111,17.374,7.908C204.837,193.405,206.363,206.538,206.363,206.538z"/>
			<polygon style="fill:#FF4F68;" points="193.924,216.74 202.358,223.66 200.628,230.148 			"/>
			<path style="fill:#FF4F68;" d="M187.13,198.177l7.082-13.281c0,0,4.216-2.101,19.447,15.857
				c11.309,13.334,11.562,14.136,11.562,14.136l25.878-12.912l9.399,8.601c0,0-23.951,24.872-37.41,25.175
				c-15.346,0.345-39.854-31.693-39.854-31.693l3.089-3.66"/>
			<path style="fill:#3C3642;" d="M220.727,414.531c-5.101,0.792-8.811,1.249-12.892,0.062c-0.369,2.423-1.179,8.686-1.224,10.415
				c-0.059,2.243,1.781,3.414,5.135,3.876c3.355,0.462,26.532,1.071,31.421,0.077C248.057,427.967,220.727,414.531,220.727,414.531z
				"/>
		</g>
		<path style="fill:#3C3642;" d="M191.239,135.755c2.526,1.193,4.71,4.085,4.318,6.851c-0.484,3.417-3.037,5.516-8.039,8.749
			c-9.085,5.871-4.368,19.361-2.472,27.74c3.84,16.974,5.632,33.048-3.499,48.844c-2.714,4.695-6.267,9.068-10.998,11.72
			c-9.542,5.347-26.23,5.715-35.734,0.245c-7.622-4.386-11.99-13.193-12.675-21.961c-1.002-12.823,5.095-23.437,14.309-31.769
			c7.392-6.684,17.922-12.676,17.357-23.972C152.944,144.971,168.44,124.983,191.239,135.755z"/>
		<path style="opacity:0.51;fill:#3C3642;" d="M187.518,151.355c2.4-1.551,4.231-2.842,5.545-4.142
			c-1.165,0.66-2.53,1.326-4.126,2.059c-9.83,4.516-7.084,18.54-6.402,27.104c1.381,17.348,0.863,33.513-10.427,47.846
			c-3.355,4.26-7.496,8.082-12.556,10.032c-9.542,3.676-24.644,2.152-33.62-3.593c2.127,3.805,5.103,7.068,8.883,9.243
			c9.504,5.469,26.193,5.102,35.734-0.245c4.73-2.651,8.284-7.025,10.998-11.72c9.131-15.796,7.339-31.87,3.499-48.844
			C183.15,170.716,178.433,157.226,187.518,151.355z"/>
		<path style="fill:#FFA087;" d="M186.839,153.081c0,0-0.844-2.497-4.211-2.15c-3.371,0.348-5.406,9.54,2.153,9.912
			c0,0,1.08-0.27,1.114-1.114"/>
		<path style="fill:#3C3642;" d="M147.566,402.886l3.332,18.406c0,0,11.212,5.28,9.433,7.281
			c-1.779,2.001-11.361,3.256-18.243-2.263c-6.883-5.519-12.441-18.638-12.441-18.638s-0.955-2.427,1.405-4.663
			c2.36-2.236,4.173-4.103,4.173-4.103S139.567,405.905,147.566,402.886z"/>
		<g>
			<polygon style="fill:#FF4F68;" points="302.103,65.114 341.137,60.201 294.985,57.124 			"/>
			<polygon style="fill:#FF4F68;" points="302.103,65.114 300.9,78.356 340.04,60.159 			"/>
			<polygon style="opacity:0.45;fill:#FF4F68;" points="302.103,65.114 300.9,78.356 340.04,60.159 			"/>
			<polygon style="fill:#FF4F68;" points="304.16,67.599 300.9,78.356 341.137,60.201 			"/>
			<polygon style="opacity:0.2;fill:#FF4F68;" points="304.16,67.599 300.9,78.356 341.137,60.201 			"/>
			<polygon style="fill:#FF4F68;" points="314.573,78.618 304.16,67.599 341.137,60.201 			"/>
		</g>
		<path style="fill:none;stroke:#84A6CE;stroke-width:1.305;stroke-miterlimit:10;stroke-dasharray:6.5248,8.2434;" d="
			M171.736,390.776c0,0-14.113-54.963,143.7-92.192c72.072-17.002,107.657-38.449,103.394-67.373"/>
	</g>
</g>
</svg>
