<?xml version="1.0" encoding="utf-8"?>
<!-- Generator: Adobe Illustrator 27.5.0, SVG Export Plug-In . SVG Version: 6.00 Build 0)  -->
<svg version="1.1" xmlns="http://www.w3.org/2000/svg" xmlns:xlink="http://www.w3.org/1999/xlink" x="0px" y="0px"
	 viewBox="0 0 650 500" style="enable-background:new 0 0 650 500;" xml:space="preserve">
<g id="BACKGROUND">
	<rect style="fill:#FFD4D4;" width="650" height="500"/>
</g>
<g id="OBJECTS">
	<g>
		<path style="fill:#FFB18A;" d="M17.252,402.995c0.176,13.077,3.291,26.413,10.851,37.085c7.56,10.672,19.975,18.316,33.052,18.2
			c19.065-0.169,34.146-15.526,51.679-23.017c17.134-7.321,36.927-7.127,53.534-15.576c18.787-9.559,31.257-30.383,30.812-51.457
			c-0.444-21.075-13.78-41.354-32.954-50.113c-15.205-6.946-32.625-6.806-49.287-5.459c-20.893,1.688-51.089,5.87-67.367,20.557
			C28.309,350.595,16.904,377.112,17.252,402.995z"/>
		<path style="fill:#AA6EE7;" d="M168.85,0c-3.56,5.57-8.39,10.47-13.73,14.34c-11.56,8.38-25.37,12.92-38.64,18.17
			c-13.28,5.24-26.69,11.64-35.86,22.58c-9.49,11.32-13.46,26.33-22.21,38.24C45.38,111.06,21.49,120.04,0,115.36V0H168.85z"/>
		<path style="fill:#FFA7DA;" d="M650,164.35v184.24c-8.86,3.41-18.94,3.84-28.36,2.09c-17.16-3.2-33.09-13.58-41.97-28.61
			c-8.87-15.03-10.16-34.57-2.32-50.17c3.7-7.35,9.37-14.12,10.05-22.32c0.56-6.61-2.26-12.97-3.85-19.41
			c-3.58-14.55-0.42-30.55,8-42.89C602.07,171.86,630.38,157.11,650,164.35z"/>
		<path style="fill:#FFB18A;" d="M493.767,72.014c-5.879,16.761-4.08,36.654,6.93,50.592c11.01,13.938,31.725,20.201,47.709,12.453
			c11.039-5.351,18.505-16.074,28.837-22.689c12.661-8.107,29.473-10.003,39.293-21.386c10.022-11.618,8.946-29.794,1.432-43.172
			c-9.775-17.403-29.577-28.678-49.531-28.202C537.027,20.36,504.256,42.113,493.767,72.014z"/>
	</g>
	<g>
		<path style="fill:none;" d="M283.447,158.915c-2.099,2.553-4.199,5.106-6.298,7.66"/>
		<g>
			<path style="fill:#351E3B;" d="M471.22,145.2c-0.34,3.83-1.02,7.63-2.02,11.34c-2.14,7.93-5.74,15.47-10.61,22.08
				c-0.09,0.12-0.18,0.24-0.27,0.36c-0.61,0.82-1.25,1.62-1.93,2.4c-0.98,1.12-2.04,2.17-3.18,3.09c-0.05,0.03-0.09,0.07-0.14,0.11
				c-0.64,0.5-1.31,0.96-2.02,1.37h-0.01c-0.66,0.37-1.33,0.7-2.05,0.97c-0.65,0.25-1.31,0.44-1.98,0.58H447
				c-1.81,0.41-3.69,0.48-5.57,0.36h-0.01c-2.01-0.12-4.02-0.46-5.99-0.83c-10.25-1.95-20.28-4.85-30.32-7.7
				c-5.12-1.45-10.25-2.9-15.41-4.2c-2.23-0.56-4.47-1.1-6.71-1.67c-2.48-0.63-4.94-1.28-7.37-2.04c-1.03-0.31-2.04-0.64-3.04-1
				c-0.44-0.15-0.88-0.31-1.31-0.47h-0.01c-1.13-0.42-2.24-0.88-3.34-1.38c0,0,0,0-0.01,0c-2.06-0.91-4.05-1.95-5.97-3.17
				c-0.79-0.5-1.56-1.04-2.31-1.62c-0.11-0.08-0.22-0.16-0.32-0.25c-0.34-0.26-0.66-0.52-0.98-0.81c-0.01,0-0.01,0-0.01,0
				c-1.23-1.04-2.38-2.17-3.44-3.38c-0.79-0.91-1.53-1.86-2.2-2.85c0,0-0.02,0,0-0.01c-2.87-4.21-4.54-9.08-4.21-14.05
				c-0.01-0.01,0-0.01,0-0.02c0.04-0.52,0.1-1.03,0.18-1.55c-0.17,0.21-0.34,0.42-0.51,0.62c-1.06,1.3-2.2,2.56-3.66,3.34
				c-0.37,0.2-0.77,0.36-1.18,0.47c-0.2,0.06-0.4,0.11-0.6,0.14c-1.32,0.22-2.68-0.02-3.66-0.89c-0.89-0.81-1.32-2.01-1.6-3.18
				c-1.47-6.18,0.86-11.78,3.81-17.09c2.52-4.56,5.5-8.86,8.88-12.83c0.46-0.54,0.93-1.08,1.41-1.61c0.08-0.1,0.17-0.19,0.26-0.28
				c0.3-0.33,0.61-0.65,0.91-0.97c-1.52,0.73-3.12,1.21-4.67,0.93c-1.39-0.25-2.08-1.49-1.92-2.83c0.08-0.72,0.29-1.39,0.58-2.01
				c0.14-0.29,0.29-0.57,0.47-0.84c1.39-2.18,3.87-3.76,5.95-5.1c1.62-1.04,4.56-2.85,7.48-3.93c17.64-8.39,37.78-11.47,57.13-8.78
				c1.16,0.16,2.32,0.34,3.47,0.55c1.69,0.29,3.37,0.63,5.04,1.02c2.46,0.57,4.91,1.24,7.32,2.03c2.65,0.86,5.26,1.86,7.79,3.02
				c3.83,1.74,7.48,3.84,10.82,6.32c3.06,2.28,5.86,4.89,8.3,7.86c1.22,1.48,2.33,3.04,3.34,4.66
				C469.96,121.36,472.25,133.54,471.22,145.2z"/>
			<g>
				<g>
					<path style="fill:#FF8B9B;" d="M456.89,219.51c0,0-11.06,9.87-32.68,14.98c-21.75,5.14-26.39-4.5-26.39-4.5l-0.24-2.1
						l-1.28-11.07l-0.64-5.49l-0.18-1.58l-0.03-0.3l0.22-0.1l53.73-25.24l3.41-1.88L456.89,219.51z"/>
				</g>
				<path style="fill:#351E3B;" d="M446.45,189.78c-0.68,8.96-4.85,17.5-11.08,23.97c-6.23,6.46-14.43,10.89-23.12,13.12
					c-4.78,1.23-9.83,1.82-14.67,1.02l-1.28-11.07l-0.64-5.49c0.32-0.43,0.78-0.75,1.24-1.04c1.52-0.95,3.18-1.66,4.83-2.37
					C416.53,201.57,431.5,195.79,446.45,189.78z"/>
			</g>
			<g>
				<path style="fill:#FF8B9B;" d="M353.129,162.817c0.551,5.336,1.534,10.446,2.74,14.936c2.496,9.157,7.328,17.756,13.875,23.715
					c15.631,14.228,39.268,16.535,58.316,8.047c8.733-3.892,16.296-10.32,20.814-18.82c6.053-11.382,7.376-26.208,6.447-38.905
					c-0.882-12.381-4.915-24.813-13.902-33.711c-12.691-12.522-31.914-17.493-49.309-14.859c-3.001,0.461-5.977,1.14-8.869,2.074
					c-3.344,1.083-6.602,2.48-9.655,4.211c-8.2,4.615-13.27,12.014-17.043,20.713C352.562,139.355,351.935,151.571,353.129,162.817z
					"/>
				<g>
					<path style="fill:#351E3B;" d="M358.252,150.89c-0.007,0.703,0.171,1.47,0.73,1.896c0.376,0.286,0.864,0.372,1.333,0.43
						c2.877,0.355,5.841-0.025,8.535-1.095c1.06-0.421,2.146-1.012,2.651-2.035c0.65-1.318,0.111-2.946-0.799-4.1
						C366.429,140.567,358.316,144.383,358.252,150.89z"/>
					<path style="fill:#351E3B;" d="M420.208,143.261c0.189,0.677,0.216,1.464-0.214,2.02c-0.289,0.374-0.738,0.583-1.176,0.761
						c-2.686,1.089-5.648,1.49-8.527,1.156c-1.133-0.131-2.335-0.421-3.088-1.278c-0.97-1.105-0.871-2.816-0.291-4.167
						C409.634,135.413,418.458,136.993,420.208,143.261z"/>
				</g>
				<g>
					<g>
						<g>
							<path style="opacity:0.23;fill:#D9607B;" d="M404.888,182.898c0.255,11.796,10.025,21.151,21.82,20.896
								c11.796-0.255,21.151-10.025,20.896-21.82c-0.255-11.796-10.025-21.151-21.821-20.896
								C413.988,161.333,404.633,171.103,404.888,182.898z"/>
							<path style="opacity:0.23;fill:#D9607B;" d="M353.129,162.817c0.551,5.336,1.534,10.446,2.74,14.936
								c2.496,9.157,7.197,16.761,13.744,22.72c4.905-4.028,7.961-10.156,7.813-16.987c-0.255-11.781-10.025-21.137-21.826-20.881
								C354.769,162.622,353.938,162.68,353.129,162.817z"/>
						</g>
						<g>
							<g>
								<g>
									
										<path style="fill:none;stroke:#351E3B;stroke-width:1.1196;stroke-linecap:round;stroke-linejoin:round;stroke-miterlimit:10;" d="
										M386.939,178.3c-2.046-0.733-3.624-2.662-3.95-4.831c-0.387-2.576,1.426-5.461,3.226-7.355l-0.557-1.806"/>
									
										<path style="fill:none;stroke:#351E3B;stroke-width:1.1196;stroke-linecap:round;stroke-linejoin:round;stroke-miterlimit:10;" d="
										M391.633,177.907c0.263-0.69,0.884-1.263,1.612-1.336c0.728-0.074,1.505,0.446,1.613,1.176"/>
								</g>
							</g>
							<g>
								<g>
									<g>
										<path style="fill:#F7E9E9;" d="M358.383,165.681c-0.049,0.131,0.352,0.672,0.414,0.775
											c0.398,0.658,0.872,1.272,1.395,1.836c1.747,1.88,4.063,3.136,6.559,3.699c3.815,0.861,8.282,0.614,11.279-2.137
											c0.707-0.649,1.341-1.375,1.947-2.119c0.351-0.431,0.693-0.87,1.03-1.312c0.128-0.168,1.189-1.372,1.124-1.502
											c0,0-0.092-0.185-0.282-0.507c-0.133-0.22-0.3-0.496-0.519-0.824c-1.636-2.496-5.671-7.628-11.296-7.654l-0.211,0.008
											l-0.086,0.007c-1.143,0.035-2.184,0.254-3.138,0.6c-4.094,1.515-6.509,5.456-7.408,7.204
											C358.908,164.287,358.383,165.68,358.383,165.681z"/>
										<path style="fill:#492A51;" d="M365.962,166.402c1.191,1.983,3.257,3.366,5.691,3.592
											c1.707,0.151,3.488-0.196,4.993-0.991c2.226-1.162,4.08-3.664,4.928-5.918c-1.636-2.496-5.916-7.124-11.54-7.15
											l-0.211,0.008l-0.086,0.007c-1.143,0.035-2.184,0.254-3.138,0.6C364.869,159.559,364.191,163.436,365.962,166.402z"/>
										<g>
											<path style="fill:#351E3B;" d="M357.821,166.267c0.691-2.876,2.077-5.461,4.128-7.523c2.017-2.05,4.786-3.48,7.709-3.675
												c2.957-0.193,5.812,0.848,8.106,2.527c1.154,0.839,2.171,1.853,3.024,2.986c0.434,0.578,0.797,1.135,1.167,1.787
												l0.948,1.803l0.007,0.013c0.158,0.301,0.042,0.673-0.258,0.831c-0.299,0.157-0.67,0.043-0.829-0.254l-0.961-1.795
												c-0.301-0.527-0.698-1.1-1.09-1.598c-0.802-1.018-1.75-1.921-2.809-2.655c-2.1-1.474-4.684-2.316-7.171-2.093
												c-2.511,0.227-4.854,1.493-6.599,3.34c-1.759,1.823-2.952,4.238-3.48,6.648l-0.019,0.086
												c-0.113,0.518-0.625,0.846-1.143,0.732c-0.518-0.113-0.846-0.625-0.732-1.143
												C357.818,166.281,357.82,166.272,357.821,166.267z"/>
										</g>
									</g>
								</g>
								<g>
									<g>
										<path style="fill:#F7E9E9;" d="M400.455,163.298c2.15,1.884,4.496,3.718,7.171,4.792
											c5.265,2.113,12.063,0.205,16.005-3.703c1.03-1.022,1.902-2.211,2.507-3.533c0.085-0.185,0.56-1.046,0.458-1.237
											c-1.91-3.568-5.457-6.984-9-8.129c-0.226-0.072-0.439-0.133-0.65-0.182c-1.306-0.303-2.711-0.414-4.215-0.211
											c-0.108,0.012-0.227,0.025-0.346,0.05l-0.108,0.012l-0.226,0.037c-7.079,1.379-10.649,8.637-11.502,10.888
											C400.409,162.461,400.455,163.298,400.455,163.298z"/>
										<path style="fill:#492A51;" d="M408.753,162.99c1.331,2.075,3.575,3.482,6.176,3.646c1.823,0.106,3.709-0.319,5.287-1.214
											c2.334-1.308,4.591-3.846,5.422-6.274c-1.715-4.758-6.887-7.586-12.878-7.436l-0.225,0.015l-0.091,0.01
											c-1.216,0.073-2.318,0.339-3.323,0.739C407.373,155.736,406.774,159.887,408.753,162.99z"/>
										<g>
											<path style="fill:#351E3B;" d="M399.688,162.364l0.71-2.163c0.275-0.715,0.589-1.423,0.962-2.106
												c0.746-1.362,1.69-2.617,2.798-3.715c2.206-2.202,5.114-3.759,8.313-4.143c3.163-0.351,6.428,0.524,9.081,2.24
												c2.689,1.717,4.8,4.162,6.212,7.109c0.246,0.514,0.029,1.13-0.484,1.376c-0.514,0.246-1.13,0.029-1.376-0.484
												c-0.004-0.009-0.009-0.019-0.013-0.028l-0.041-0.093c-1.089-2.488-2.955-4.811-5.284-6.373
												c-2.325-1.592-5.148-2.431-7.957-2.202c-2.769,0.253-5.478,1.568-7.55,3.535c-1.045,0.979-1.95,2.114-2.677,3.356
												c-0.362,0.621-0.674,1.273-0.955,1.947l-0.746,2.082c-0.096,0.274-0.395,0.419-0.669,0.323
												C399.745,162.93,399.602,162.634,399.688,162.364z"/>
										</g>
									</g>
								</g>
							</g>
						</g>
					</g>
					<path style="fill:#F7E9E9;" d="M389.002,186.35c2.508,3.294,11.999,1.907,13.733-5.067L389.002,186.35z"/>
					<path style="opacity:0.23;fill:#D9607B;" d="M395.174,190.382c1.834-0.051,3.652-0.601,5.206-1.577
						c0.178,0.612,0.701,1.24,0.626,1.873c-0.162,1.354-1.421,2.488-2.785,2.509C396.858,193.208,395.378,191.73,395.174,190.382z"
						/>
				</g>
			</g>
			<path style="fill:#351E3B;" d="M452.871,100.849c-0.882-2.024-1.417-4.198-1.575-6.4c-0.052-0.722-0.021-1.548,0.524-2.023
				c0.491-0.429,1.261-0.403,1.837-0.097c0.576,0.305,0.996,0.836,1.367,1.372c1.832,2.648,2.885,5.828,2.997,9.046
				c1.592-0.86,3.667-1.186,5.466-0.991c1.799,0.194,3.558,1.155,4.478,2.713c0.921,1.558,0.86,3.71-0.336,5.068
				c-0.401,0.456-0.907,0.81-1.439,1.102c-1.575,0.864-3.461,1.201-5.211,0.794c-1.417-0.329-2.686-1.116-3.846-1.995
				C454.645,107.554,454.118,103.709,452.871,100.849z"/>
			<g>
				<path style="fill:#351E3B;" d="M453.308,159.104c-17.52-1.005-34.043-10.699-43.906-25.214
					c-0.742,1.866-1.659,3.889-3.486,4.725c-2.688,1.231-5.736-0.754-7.759-2.91c-4.558-4.86-7.461-11.082-9.244-17.502
					c-1.783-6.42-2.507-13.079-3.184-19.707c4.98-3.777,11.012-5.555,17.22-6.28c8.584-1.003,17.389-0.903,25.736,1.334
					c8.347,2.237,16.234,6.725,21.665,13.448c3.827,4.737,6.325,10.406,8.329,16.156c3.319,9.526,5.407,19.573,5.126,29.657
					c-2.002,0.48-3.944,0.861-5.774,1.804C456.204,155.558,454.055,157.186,453.308,159.104z"/>
				<g>
					<g>
						<path style="fill:#FF8B9B;" d="M442.56,160.719c0,0,14.462-13.114,24.89-5.641c6.761,4.846,9.482,15.298,4.989,22.503
							c-2.581,4.14-6.99,6.426-11.718,7.136c-4.162,0.624-9.915,0.451-11.528-3.579C446.186,173.625,442.56,160.719,442.56,160.719z
							"/>
						
							<path style="fill:none;stroke:#351E3B;stroke-width:0.8865;stroke-linecap:round;stroke-linejoin:round;stroke-miterlimit:10;" d="
							M466.733,154.313c-9.815,0.645-13.474,10.132-13.288,18.746c1.697,0.072,3.735,0.848,4.522,2.353
							c0.787,1.506,0.706,3.427-0.203,4.862c-0.423,0.667-1.158,1.275-1.929,1.102"/>
					</g>
				</g>
			</g>
		</g>
		<g>
			<path style="fill:#AA6EE7;" d="M465.42,142.97l-2.04,0.15l-0.95,0.07c-0.09-1.19-0.2-2.38-0.35-3.56
				c-0.3-2.47-0.72-4.9-1.26-7.29c-2.66-11.82-8.12-22.57-15.67-30.53c-0.12-0.13-0.24-0.25-0.36-0.38
				c-6.53-6.76-14.67-11.83-23.59-14.86c1.69,0.29,3.37,0.63,5.04,1.02c2.46,0.57,4.91,1.24,7.32,2.03
				c1.19,0.46,2.19,0.68,3.35,1.21c3.56,2.38,7.05,5.42,10.04,8.51c0.96,0.99,1.89,2.03,2.78,3.1c1.71,2.05,3.3,4.24,4.76,6.55
				c3.9,6.17,6.88,13.21,8.77,20.71c0.71,2.79,1.27,5.65,1.66,8.54C465.14,139.81,465.3,141.39,465.42,142.97z"/>
			<path style="fill:#492A51;" d="M465.021,138.235c-0.92,0.571-1.851,1.121-2.896,1.396c-0.021,0.01-0.052,0.01-0.073,0.02
				c-0.314-2.517-0.753-4.993-1.317-7.429c0.826-0.907,1.683-1.804,2.551-2.69C464.028,132.375,464.614,135.29,465.021,138.235z"/>
			<g>
				<path style="fill:#FFB18A;" d="M459.787,142.745c0,0-0.681-6.979,3.745-7.319c4.426-0.34,4.766,7.83,4.766,7.83L459.787,142.745
					z"/>
				<g>
					<path style="fill:#AA6EE7;" d="M484.809,163.824c0,12.041-7.745,22.029-17.863,23.842c-1.087,0.198-2.195,0.302-3.324,0.302
						c-11.712,0-21.197-10.811-21.197-24.144c0-13.332,9.485-24.144,21.197-24.144c1.129,0,2.237,0.104,3.324,0.302
						C477.064,141.795,484.809,151.784,484.809,163.824z"/>
					<path style="opacity:0.24;fill:#AA6EE7;" d="M484.809,163.824c0,12.041-7.745,22.029-17.863,23.842
						c-10.129-1.802-17.874-11.79-17.874-23.842c0-12.051,7.744-22.04,17.874-23.842
						C477.064,141.795,484.809,151.784,484.809,163.824z"/>
				</g>
			</g>
		</g>
		<path style="fill:#FFB18A;" d="M397.149,224.787c0,0,9.532,5.447,18.383,3.745c8.851-1.702,32.34-15.83,40.17-22.298L459.106,219
			c0,0,46.638,16,71.149,52.085c24.511,36.085,42.808,90.808,35.915,114.043c0,0-3.638,21.404-24.638,22.681l-3.447,31.532
			l-183.489,0.255c0,0-24.444-154.605-19.745-163.064c5.106-9.191,30.979-33.702,60.255-42.553L397.149,224.787z"/>
		<path style="fill:#FFB18A;" d="M334.851,276.532l-23.83,42.553l29.957,94.979c0,0,14.298-12.596,18.383-23.489L334.851,276.532z"
			/>
		<g>
			<path style="fill:#FFB18A;" d="M347.11,408.62c0,0-1.52,1.8-4.27,4.01c-0.28,0.24-0.58,0.47-0.89,0.71
				c-5.53,4.24-15.14,9.41-26.91,6.77c-0.37-0.08-0.75-0.17-1.13-0.27c-6.26-1.65-13.1-5.54-20.25-12.93c0,0-9.87-12.25-12.26-33.36
				c-0.5-4.48-0.9-8.36-1.21-11.69c-0.04-0.41-0.08-0.81-0.11-1.2c-1.06-11.5-1.06-16.04-1.06-16.04s20.77-4.43,32-25.53
				L347.11,408.62z"/>
			<g>
				<path style="fill:#351E3B;" d="M317.64,339.57c-4.85,13.09-18.51,22.67-32.47,22.77h-0.22c-1.77,0-3.35-0.16-4.76-0.48
					c-0.04-0.41-0.08-0.81-0.11-1.2c1.46,0.38,3.15,0.56,5.08,0.56c13.52-0.1,26.74-9.37,31.43-22.04c0.11-0.29,0.43-0.44,0.72-0.33
					C317.6,338.95,317.75,339.28,317.64,339.57z"/>
				<path style="fill:#351E3B;" d="M342.84,412.63c-0.28,0.24-0.58,0.47-0.89,0.71c-1.14-0.95-2.56-1.67-4.16-2.09
					c-2.28-0.59-4.92-0.58-8.07,0.02c-6.5,1.23-11.78,4.43-14.68,8.84c-0.37-0.08-0.75-0.17-1.13-0.27
					c3.01-4.84,8.64-8.34,15.6-9.67c3.32-0.63,6.12-0.63,8.56,0C339.91,410.65,341.55,411.5,342.84,412.63z"/>
			</g>
			
				<line style="fill:none;stroke:#351E3B;stroke-width:1.1196;stroke-linecap:round;stroke-linejoin:round;stroke-miterlimit:10;" x1="309.319" y1="323.17" x2="335.617" y2="374.745"/>
			<g>
				<path style="fill:#FF8B9B;" d="M278.596,342.149l-2.343-8.389c0,0-16.124-7.971-18.298-12.682
					c-2.174-4.71-9.602-13.588-10.145-18.117c-0.543-4.529-6.341-28.987,1.993-30.98c0,0,0.544-9.421,5.979-10.327
					c5.435-0.906,8.872,18.472,12.858,25.175c0,0,4-4.851,8-6.383c0,0-8.176-23.503-2.197-26.22
					c5.979-2.718,21.921,25.907,26.088,35.69c4.167,9.783,9.896,36.578,9.896,39.296c0,2.717-0.656,15.961-15.331,20.671
					c-14.675,4.71-15.818-4.075-15.818-4.075L278.596,342.149z"/>
				<g>
					
						<path style="fill:none;stroke:#351E3B;stroke-width:0.75;stroke-linecap:round;stroke-linejoin:round;stroke-miterlimit:10;" d="
						M270.638,323.426c0,0-0.255-7.404,2.809-13.787c3.064-6.383,10.851-19.66,15.957-19.149c5.106,0.511,3.191,9.702,1.277,14.936
						c-1.915,5.234-3.064,8.809-2.936,10.468c0.128,1.66,1.149,3.958,1.149,3.958"/>
					
						<path style="fill:none;stroke:#351E3B;stroke-width:0.75;stroke-linecap:round;stroke-linejoin:round;stroke-miterlimit:10;" d="
						M258.511,318.319c0,0-1.404-9.83-0.255-13.404c1.149-3.574,12.894-24.638,18.766-24.383c5.872,0.255,4.213,8.553,3.191,11.872
						c-1.021,3.319-4.255,9.83-4.255,9.83l0.511,1.447"/>
					
						<path style="fill:none;stroke:#351E3B;stroke-width:0.75;stroke-linecap:round;stroke-linejoin:round;stroke-miterlimit:10;" d="
						M289.611,309.447c0.117-0.022-0.11-0.163-0.124-0.045c-0.013,0.118,0.132,0.182,0.247,0.211c1.955,0.486,3.7,1.769,4.748,3.489
						"/>
					
						<path style="fill:none;stroke:#351E3B;stroke-width:0.75;stroke-linecap:round;stroke-linejoin:round;stroke-miterlimit:10;" d="
						M249.909,271.978c2.352,0.378,3.905,2.644,4.821,4.843c1.401,3.365,1.985,7.019,2.236,10.655
						c0.06,0.872,0.108,1.772,0.487,2.559c0.183,0.381,0.437,0.722,0.69,1.06c1.458,1.953,2.826,3.654,4.284,5.606"/>
				</g>
			</g>
		</g>
		
			<line style="fill:none;stroke:#351E3B;stroke-width:1.1196;stroke-linecap:round;stroke-linejoin:round;stroke-miterlimit:10;" x1="354.596" y1="439.596" x2="339.702" y2="342.319"/>
		
			<line style="fill:none;stroke:#351E3B;stroke-width:0.5;stroke-linecap:round;stroke-linejoin:round;stroke-miterlimit:10;" x1="527.617" y1="406.66" x2="527.191" y2="439.596"/>
		<path style="fill:#FFD4D4;" d="M422.34,341.383c0,2.538-2.058,4.596-4.596,4.596c-2.538,0-4.596-2.058-4.596-4.596
			c0-2.538,2.058-4.596,4.596-4.596C420.283,336.787,422.34,338.845,422.34,341.383z"/>
		<path style="fill:#FFD4D4;" d="M422.34,374.404c0,2.538-2.058,4.596-4.596,4.596c-2.538,0-4.596-2.058-4.596-4.596
			c0-2.538,2.058-4.596,4.596-4.596C420.283,369.809,422.34,371.866,422.34,374.404z"/>
		<g>
			
				<polyline style="fill:none;stroke:#351E3B;stroke-width:1.1196;stroke-linecap:round;stroke-linejoin:round;stroke-miterlimit:10;" points="
				395.106,233.979 401.745,256.957 411.447,229.043 417.234,258.319 459.106,219 			"/>
			<g>
				
					<path style="fill:none;stroke:#351E3B;stroke-width:1.1196;stroke-linecap:round;stroke-linejoin:round;stroke-miterlimit:10;" d="
					M411.702,231c0,0-6.128,56.681-5.362,111.319c0.766,54.638,0,96.766,0,96.766"/>
				<g>
					<path style="fill:#FFD4D4;" d="M422.34,308.362c0,2.538-2.058,4.596-4.596,4.596c-2.538,0-4.596-2.057-4.596-4.596
						s2.058-4.596,4.596-4.596C420.283,303.766,422.34,305.823,422.34,308.362z"/>
					<path style="fill:#FFD4D4;" d="M422.34,341.383c0,2.538-2.058,4.596-4.596,4.596c-2.538,0-4.596-2.058-4.596-4.596
						c0-2.538,2.058-4.596,4.596-4.596C420.283,336.787,422.34,338.845,422.34,341.383z"/>
					<path style="fill:#FFD4D4;" d="M422.34,374.404c0,2.538-2.058,4.596-4.596,4.596c-2.538,0-4.596-2.058-4.596-4.596
						c0-2.538,2.058-4.596,4.596-4.596C420.283,369.809,422.34,371.866,422.34,374.404z"/>
					<path style="fill:#FFD4D4;" d="M422.34,407.426c0,2.538-2.058,4.596-4.596,4.596c-2.538,0-4.596-2.058-4.596-4.596
						c0-2.538,2.058-4.596,4.596-4.596C420.283,402.83,422.34,404.887,422.34,407.426z"/>
					<path style="fill:#FFD4D4;" d="M422.34,278.064c0,2.538-2.058,4.596-4.596,4.596c-2.538,0-4.596-2.058-4.596-4.596
						c0-2.538,2.058-4.596,4.596-4.596C420.283,273.468,422.34,275.526,422.34,278.064z"/>
				</g>
			</g>
		</g>
		<g>
			<rect x="349.83" y="308.191" style="fill:#FFD4D4;" width="44.255" height="24.17"/>
			<rect x="368.553" y="301.383" style="fill:#351E3B;" width="5.106" height="11.234"/>
		</g>
		<g>
			<g>
				<path style="fill:#FF8B9B;" d="M463.118,289.818c0,0-8.075-15.067-5.888-26.083c2.187-11.017,9.589-26.245,8.58-27.379
					c-1.009-1.134-3.028-1.296-4.206-0.162c-1.178,1.134-2.355,9.396-6.056,6.318c-3.701-3.078-3.701-9.558-0.673-13.609
					c0,0-7.57,0.162-4.542-6.642s8.075-10.368,13.122-11.016c5.047-0.648,10.094,0.648,10.094,0.648s-7.57-6.318-13.459-6.318
					c-5.888,0-7.57-1.62-7.402-3.564c0.168-1.944,6.393-5.67,17.16-4.212c0,0-11.103-5.184-9.421-8.91
					c1.682-3.726,16.655-1.296,24.73,5.346c8.075,6.642,15.982,22.519,15.814,26.245c-0.168,3.726,1.682,6.318,1.682,10.206
					s-10.599,38.882-10.599,38.882S478.427,292.086,463.118,289.818z"/>
				<g>
					
						<path style="fill:none;stroke:#351E3B;stroke-width:0.7413;stroke-linecap:round;stroke-linejoin:round;stroke-miterlimit:10;" d="
						M470.057,197.556c0,0-13.122-5.741-9.337-9.526c3.785-3.785,18.337,0.927,24.436,6.204
						c6.099,5.278,13.417,17.012,15.562,24.204"/>
					
						<path style="fill:none;stroke:#351E3B;stroke-width:0.7413;stroke-linecap:round;stroke-linejoin:round;stroke-miterlimit:10;" d="
						M483.558,216.797c0,0-9.421-5.215-13.711-7.57c-4.29-2.355-5.552-2.692-10.01-3.365c-3.668-0.554-8.832-2.355-5.72-5.72
						c3.112-3.365,12.849-3.995,18.653-1.64c5.804,2.355,14.069,8.622,17.601,11.65"/>
					
						<path style="fill:none;stroke:#351E3B;stroke-width:0.7413;stroke-linecap:round;stroke-linejoin:round;stroke-miterlimit:10;" d="
						M454.371,228.961c1.89-4.285,5.481-8.115,10.084-8.975c2.661-0.497,5.433,0.034,7.945,1.045s4.805,2.486,7.082,3.952"/>
					
						<path style="fill:none;stroke:#351E3B;stroke-width:0.7413;stroke-linecap:round;stroke-linejoin:round;stroke-miterlimit:10;" d="
						M456.822,243.036c0.525,0.257,1.182,0.089,1.637-0.279c0.454-0.368,0.741-0.901,0.976-1.436
						c0.506-1.152,0.829-2.378,1.344-3.526c0.472-1.05,1.208-2.107,2.323-2.392c0.794-0.203,1.635,0.028,2.392,0.344
						c1.82,0.761,3.422,2.035,4.573,3.636"/>
				</g>
			</g>
			<g>
				<path style="fill:#FFB18A;" d="M562.26,377.049c-0.03,0.443-0.06,0.885-0.1,1.318c-0.71,9.451-2.41,17.76-5.87,21.674
					c-0.05,0.069-0.1,0.128-0.16,0.187c-0.7,0.747-1.47,1.455-2.31,2.114c-12.37,9.805-39.84,10.08-58.97-27.221
					c-0.66-1.288-1.31-2.576-1.96-3.865c-12.14-24.28-22.18-49.82-27.99-65.534c-0.13-0.364-0.27-0.718-0.4-1.062
					c-3.23-8.792-5.05-14.24-5.05-14.24l37.95-24.271l1.22,1.308l9.62,10.277l0.71,0.747l13.79,14.731l7.78,8.31l29.523,31.732
					C560.043,333.255,563.54,357.558,562.26,377.049z"/>
				<g>
					<path style="fill:#351E3B;" d="M556.29,402.3c-0.05,0.07-0.1,0.13-0.16,0.19c-0.7,0.76-1.47,1.48-2.31,2.15
						c-4.66,1.93-10.34,3.29-17.07,3.29c-3.85,0-8.04-0.45-12.58-1.49c-10.64-2.44-21.52-16.2-31.28-33.41
						c-12.48-22-23.13-49.66-29.13-66.57c-0.04-0.1-0.08-0.2-0.11-0.3v-0.01c-2.97-8.35-4.78-14.02-5.08-14.98
						c-0.07-0.23,0.01-0.49,0.22-0.63l7.32-5.11c0.27-0.17,25.43-16.22,31.06-20.16c0.21-0.15,0.49-0.14,0.68,0.03
						c0.24,0.2,16.18,13.85,32.67,36.82c5.23,7.27,10.5,15.47,15.35,24.48c0.25,0.47,0.5,0.94,0.76,1.42
						c2.29,4.35,4.48,8.87,6.52,13.57c0.13,0.28,0,0.61-0.29,0.73c-0.28,0.13-0.61,0-0.74-0.29c-8.37-19.3-19.4-35.76-29.38-48.36
						c-4.8-6.07-9.36-11.25-13.26-15.42c-0.25-0.26-0.48-0.51-0.72-0.75c-4.61-4.89-8.23-8.29-10.14-10.02
						c-0.52-0.48-0.92-0.83-1.17-1.05c-6.28,4.34-30.47,19.78-30.72,19.94l-6.96,4.85c0.46,1.43,2.15,6.62,4.8,14.05
						c0.13,0.36,0.26,0.72,0.39,1.08c10.77,30.05,36.14,93.65,59.46,99c5.2,1.19,9.93,1.59,14.19,1.43
						c0.39-0.02,0.78-0.04,1.16-0.06C546.43,406.29,551.93,404.5,556.29,402.3z"/>
					<path style="fill:#351E3B;" d="M539.084,407.745c-0.041,0-0.082-0.004-0.124-0.014c-0.301-0.067-0.491-0.367-0.423-0.669
						c1.472-6.556,5.082-12.886,10.439-18.304c4.54-4.59,10.234-8.505,17.408-11.968c0.276-0.136,0.612-0.018,0.747,0.261
						c0.135,0.278,0.018,0.613-0.261,0.747c-7.057,3.407-12.649,7.25-17.098,11.747c-5.211,5.27-8.719,11.411-10.144,17.763
						C539.57,407.568,539.34,407.745,539.084,407.745z"/>
					<path style="fill:#351E3B;" d="M464.214,306.709c-0.189,0-0.372-0.095-0.479-0.267c-0.161-0.264-0.079-0.608,0.185-0.771
						c17.283-10.605,43.318-26.746,44.757-28.079c0.1-0.155,0.274-0.259,0.473-0.259c0.31,0,0.56,0.25,0.56,0.56
						c0,0.396,0,0.994-45.203,28.733C464.414,306.683,464.313,306.709,464.214,306.709z"/>
					<path style="fill:#351E3B;" d="M552.445,330.438c-0.087,0-0.174-0.02-0.256-0.061c-2.111-1.088-4.33-1.993-6.597-2.692
						c-0.296-0.092-0.461-0.405-0.37-0.7c0.091-0.296,0.405-0.462,0.7-0.37c2.329,0.719,4.609,1.649,6.778,2.767
						c0.275,0.142,0.384,0.479,0.242,0.754C552.844,330.327,552.647,330.438,552.445,330.438z"/>
				</g>
			</g>
		</g>
		<g>
			<path style="fill:#AA6EE7;" d="M460.22,186.13c-0.76,2.24-1.77,4.28-2.97,6.13c-5.2,8.06-13.77,12.62-19.05,14.81
				c-7.49,3.11-15.66,4.67-23.83,4.67c-2.86,0-5.72-0.19-8.54-0.57c-1.53-0.21-3.06-0.48-4.57-0.81c-2.07-0.43-4.12-0.98-6.13-1.64
				l0.31-0.95c2.24,0.74,4.54,1.33,6.86,1.79c1.35,0.27,2.71,0.49,4.08,0.66c10.6,1.38,21.62,0,31.44-4.07
				c5.25-2.18,13.85-6.77,18.86-14.89c1.04-1.66,1.92-3.48,2.59-5.45L460.22,186.13z"/>
			<path style="fill:#351E3B;" d="M460.22,186.13c-0.76,2.24-1.77,4.28-2.97,6.13c-0.18-0.34-0.37-0.67-0.57-1
				c1.04-1.66,1.92-3.48,2.59-5.45L460.22,186.13z"/>
			<path style="fill:#351E3B;" d="M406.38,210.22c-0.19,0.31-0.37,0.63-0.55,0.95c-1.53-0.21-3.06-0.48-4.57-0.81
				c0.3-0.24,0.67-0.52,1.04-0.8C403.65,209.83,405.01,210.05,406.38,210.22z"/>
			<path style="fill:#AA6EE7;" d="M400.41,212.308c-2.598,0.657-5.724,0.054-7.988-1.267c-0.617-0.36-1.21-0.792-1.618-1.379
				c-0.798-1.149-0.519-2.681,0.383-3.681c0.664-0.736,1.607-1.266,2.57-1.491c2.833-0.663,6.607,0.213,8.591,2.428
				c1.753,1.958,0.801,4.58-1.622,5.303C400.622,212.252,400.517,212.281,400.41,212.308z"/>
		</g>
	</g>
	<g>
		<polygon style="fill:#7581FF;" points="650,435.38 650,500 0,500 0,483.45 154.34,435.38 		"/>
		<path style="opacity:0.31;fill:#7581FF;" d="M562.99,500H216.85l-62.79-31.84l268.11-21.42
			C422.17,446.74,524.67,484.98,562.99,500z"/>
		<g>
			<path style="fill:#351E3B;" d="M379.158,466.888l46.331-24.437H181.406l-35.313,25.567
				C146.093,468.018,379.158,465.758,379.158,466.888z"/>
			<path style="fill:#492A51;" d="M128.436,326.908l17.515,141.252h233.913l-21.47-142.947
				C358.394,325.213,128.436,326.343,128.436,326.908z"/>
			<circle style="fill:none;stroke:#FFD4D4;stroke-width:0.5532;stroke-miterlimit:10;" cx="245.581" cy="400.359" r="16.95"/>
			<polygon style="fill:#492A51;" points="379.546,465.899 379.846,468.124 425.465,444.347 425.5,442.44 			"/>
		</g>
		<g>
			<g>
				<path style="fill:#492A51;" d="M406.255,479.528v1.477c0,0.52,0.443,0.942,0.992,0.946l109.349,0.793
					c0.389,0.003,0.744-0.208,0.911-0.54l9.34-18.605c0.059-0.117,0.091-0.243,0.096-0.372l0.163-4.294L406.255,479.528z"/>
				<path style="fill:#351E3B;" d="M406.255,479.528l24.021-20.656l96.83,0.04l-10.894,21.582
					C516.213,480.495,405.915,479.528,406.255,479.528z"/>
				<path style="fill:#FFD4D4;" d="M415.334,478.018l20.73-18.462h87.495l-9.755,19.327
					C513.804,478.884,415.029,478.018,415.334,478.018z"/>
				
					<path style="fill:none;stroke:#FFD4D4;stroke-width:0.2116;stroke-linecap:round;stroke-linejoin:round;stroke-miterlimit:10;" d="
					M418.553,471.094l6.296-5.326h2.555l-6.148,5.396C421.257,471.164,418.609,471.12,418.553,471.094z"/>
			</g>
			<g>
				<path style="fill:#FFF3EA;" d="M477.064,469.809l-18.383-28.255h-33.83c-3.314,0-6-2.686-6-6v-50.638c0-3.314,2.686-6,6-6
					h91.489c3.314,0,6,2.686,6,6v50.001c0,3.297-2.66,5.976-5.956,6l-40.682,0.297L477.064,469.809z"/>
				<g>
					<path style="fill:#FFA7DA;" d="M435.362,391.603v35.695c0,1.105,0.895,2,2,2h69.362c1.105,0,2-0.895,2-2v-35.655
						c0-1.103-0.89-1.997-1.992-2c-10.463-0.026-58.973-0.139-69.395-0.04C436.24,389.613,435.362,390.506,435.362,391.603z"/>
					<g>
						
							<polyline style="fill:none;stroke:#351E3B;stroke-width:0.5;stroke-linecap:round;stroke-linejoin:round;stroke-miterlimit:10;" points="
							435.532,391 472.638,413.809 508.021,390.255 						"/>
						
							<line style="fill:none;stroke:#351E3B;stroke-width:0.5;stroke-linecap:round;stroke-linejoin:round;stroke-miterlimit:10;" x1="435.362" y1="428.277" x2="463.277" y2="408.191"/>
						
							<line style="fill:none;stroke:#351E3B;stroke-width:0.5;stroke-linecap:round;stroke-linejoin:round;stroke-miterlimit:10;" x1="508.043" y1="428.617" x2="482.511" y2="407.511"/>
					</g>
				</g>
			</g>
		</g>
		<g>
			<path style="opacity:0.31;fill:#7581FF;" d="M630.511,475.979c0,2.891-15.546,5.234-34.723,5.234s-34.723-2.343-34.723-5.234
				s15.546-5.234,34.723-5.234S630.511,473.088,630.511,475.979z"/>
			<g>
				<g>
					<path style="fill:#FFA565;" d="M621.485,402.515l-2.02,9.81l-1.72,8.38l-0.21,1.03l-0.82,3.99l-0.25,1.17l-5.41,26.33l-0.21,1
						l-4.5,21.89h-37.85l-7.39-29.76l-0.28-1.1l-1.46-5.87l-0.24-0.98l-6.21-25l-0.28-1.12l-2.22-8.93
						C551.255,403.355,621.485,402.515,621.485,402.515z"/>
					<g>
						<path style="fill:#FFF3EA;" d="M616.715,425.725l-0.25,1.17c-18.27,7.05-37.83,10.02-57.1,12.49l-0.24-0.98
							C578.585,435.915,598.345,432.915,616.715,425.725z"/>
						<path style="fill:#FFF3EA;" d="M611.055,453.225l-0.21,1c-16.87-0.21-33.5-3.87-49.74-7.87l-0.28-1.1
							C577.235,449.305,594.035,453.035,611.055,453.225z"/>
						<path style="fill:#FFF3EA;" d="M617.745,420.705l-0.21,1.03c-1.74,0.19-3.5,0.24-5.21,0.24c-0.56,0-1.11-0.01-1.65-0.01
							c-19.57-0.25-38.98-3.13-57.76-8.56l-0.28-1.12c18.87,5.51,38.37,8.42,58.05,8.68
							C612.985,420.995,615.385,420.985,617.745,420.705z"/>
					</g>
					<path style="fill:#351E3B;" d="M551.106,404.106l69.617-0.851c0,0-10.213,8.17-35.234,8.17
						C560.468,411.426,551.106,404.106,551.106,404.106z"/>
					<path style="opacity:0.27;fill:#FFA565;" d="M619.465,412.325l-1.72,8.38l-0.21,1.03l-0.82,3.99l-0.25,1.17l-5.41,26.33
						l-0.21,1l-4.5,21.89h-37C589.485,457.975,604.925,435.355,619.465,412.325z"/>
				</g>
				<g>
					<g>
						<path style="fill:#7581FF;" d="M626.426,298.446c-1.88,6.74-4.04,13.41-6.45,19.98c2.09-1.56,5.69,0.71,6.99,2.97
							c1.29,2.27,1.14,5.07,0.73,7.65c-0.52,3.25-1.38,6.4-2.48,9.48c-0.06,0.18-0.13,0.36-0.2,0.54
							c-1.65,4.51-3.81,8.88-6.14,13.14c-0.11,0.2-0.21,0.39-0.31,0.57c-1.29,2.34-2.62,4.65-3.95,6.94
							c-4.33,7.49-8.72,14.78-13.12,22.07c-0.13,0.23-0.27,0.45-0.41,0.68c-5.09,8.45-10.2,16.88-15.24,25.54
							c-0.26,0.44-0.51,0.89-0.77,1.33c-0.05,0.08-0.09,0.16-0.14,0.24c1.07-15.64,2.15-31.3,4.25-46.83
							c0.03-0.24,0.06-0.47,0.1-0.71c0.68-4.94,1.46-9.87,2.38-14.78c1.49-7.92,3.35-15.81,5.7-23.53c0.06-0.23,0.13-0.46,0.21-0.68
							c3.69-12.07,8.58-23.74,15.05-34.56c2.55-4.27,5.47-8.53,9.68-11.19c0.59-0.37,1.23-0.71,1.9-0.95
							c0.23-0.08,0.46-0.15,0.69-0.2c0.83-0.22,1.67-0.24,2.48,0.05c1.62,0.57,2.63,2.25,2.89,3.94c0.26,1.69-0.11,3.41-0.48,5.08
							c-0.95,4.21-2.01,8.4-3.17,12.55C626.566,297.996,626.496,298.226,626.426,298.446z"/>
						<path style="fill:#351E3B;" d="M624.896,276.146c-5.36,9.56-9.99,20.18-13.95,30.89c-0.1,0.27-0.2,0.54-0.3,0.8
							c-4.38,11.92-7.93,23.93-10.73,34.71c-0.04,0.18-0.09,0.35-0.13,0.53c-0.79,3.02-1.51,5.95-2.17,8.74
							c-0.3,1.27-0.6,2.55-0.9,3.84c-0.04,0.17-0.08,0.35-0.12,0.52c-2.14,9.31-4.17,18.98-6.12,28.66
							c-0.04,0.18-0.08,0.35-0.11,0.53c-1.13,5.55-2.23,11.11-3.32,16.6c-0.41,2.03-0.81,4.04-1.2,6.04
							c-0.15,0.76-0.3,1.52-0.45,2.28c-0.03,0.12-0.13,0.2-0.25,0.2c-0.01,0-0.03,0-0.05-0.01c-0.13-0.02-0.22-0.16-0.19-0.29
							c0.06-0.28,0.11-0.56,0.17-0.85c0.48-2.46,0.98-4.95,1.48-7.46c2.19-11.04,4.43-22.33,6.79-33.36
							c0.05-0.23,0.1-0.45,0.15-0.67c1.17-5.47,2.38-10.88,3.64-16.15c1.39-5.85,3.03-12.27,4.95-18.98
							c0.06-0.23,0.12-0.46,0.2-0.69c2.23-7.83,4.84-16.04,7.83-24.21c0.04-0.11,0.08-0.21,0.12-0.31
							c3.97-10.79,8.61-21.51,13.97-31.16C624.436,276.266,624.666,276.196,624.896,276.146z"/>
						<path style="fill:#351E3B;" d="M626.616,297.766c-0.05,0.23-0.12,0.46-0.19,0.68c-5.41,2.87-10.7,6.02-15.78,9.39
							c-0.05,0.03-0.1,0.07-0.15,0.1c-0.04,0.03-0.09,0.04-0.14,0.04c-0.08,0-0.16-0.04-0.21-0.11c-0.01-0.02-0.02-0.04-0.03-0.05
							c0-0.01,0-0.01,0-0.01c-0.03-0.11,0.01-0.22,0.1-0.29c0.01,0,0.01-0.01,0.02-0.01c0.24-0.16,0.47-0.32,0.71-0.47
							C616.006,303.716,621.256,300.606,626.616,297.766z"/>
						<path style="fill:#351E3B;" d="M602.446,332.886c-0.03,0.02-0.07,0.03-0.11,0.03c-0.09,0-0.18-0.05-0.22-0.14l-0.03-0.06
							l-4.72-8.99c0.06-0.23,0.13-0.46,0.21-0.68l4.71,8.98l0.27,0.52C602.616,332.666,602.576,332.816,602.446,332.886z"/>
						<path style="fill:#351E3B;" d="M625.216,338.526c-0.06,0.18-0.13,0.36-0.2,0.54l-25.23,4.01l-0.07,0.01h-0.04
							c-0.12,0-0.23-0.08-0.25-0.21c-0.02-0.13,0.07-0.26,0.21-0.28l0.28-0.04v-0.01L625.216,338.526z"/>
						<path style="fill:#351E3B;" d="M618.876,352.206c-0.11,0.2-0.21,0.39-0.31,0.57c-7.29,1.31-14.66,2.46-21.97,3.4v0.01
							c-0.04,0-0.07,0.01-0.11,0.01h-0.03c-0.12,0-0.23-0.09-0.25-0.22c-0.01-0.13,0.08-0.26,0.22-0.28
							c0.1-0.01,0.19-0.02,0.29-0.04C604.096,354.706,611.526,353.546,618.876,352.206z"/>
						<path style="fill:#351E3B;" d="M593.706,368.586c-0.04,0.03-0.09,0.05-0.14,0.05c-0.08,0-0.16-0.04-0.21-0.11
							c0,0,0-0.01-0.01-0.01c-1.34-1.94-2.73-3.87-4.16-5.77c0.03-0.24,0.06-0.47,0.1-0.71c1.44,1.91,2.85,3.86,4.21,5.81
							c0.09,0.13,0.18,0.26,0.27,0.39C593.846,368.356,593.816,368.506,593.706,368.586z"/>
						<path style="fill:#351E3B;" d="M601.496,381.786c-0.13,0.23-0.27,0.45-0.41,0.68c-3.48,1.26-7.08,2.23-10.72,2.9h-0.05
							c-0.12,0-0.22-0.08-0.25-0.2c-0.02-0.14,0.07-0.27,0.2-0.29c0.07-0.01,0.14-0.03,0.21-0.04
							C594.226,384.136,597.916,383.116,601.496,381.786z"/>
					</g>
					<g>
						<path style="fill:#7581FF;" d="M640.407,365.447c-1.88,4.66-5.48,8.4-9.2,11.79c-0.37,0.34-0.74,0.67-1.11,0.99
							c-0.16,0.16-0.33,0.3-0.5,0.44c-5.33,4.7-11.04,8.95-16.84,13.06h-0.01c-0.18,0.12-0.34,0.25-0.52,0.37
							c-0.78,0.55-1.56,1.1-2.34,1.65c-7.09,4.97-14.25,11.44-21.77,15.55c0.02-0.17,0.05-0.35,0.09-0.53
							c0.09-0.45,0.25-0.91,0.44-1.38c0.01-0.01,0.01-0.02,0.02-0.03c1.15-2.64,3.77-5.38,5.23-7.39c2.57-3.54,5.29-6.98,8.13-10.31
							c3.04-3.56,6.22-7,9.54-10.28c0.18-0.19,0.36-0.37,0.54-0.53c2.66-2.63,5.4-5.16,8.22-7.59c2.47-2.13,5.04-4.21,7.77-6
							c0.18-0.13,0.35-0.24,0.53-0.35h0.01c1.97-1.27,4.02-2.38,6.19-3.26c1.32-0.53,3.06-0.8,4.33-0.38
							c0.19,0.06,0.37,0.14,0.54,0.23c0.49,0.28,0.87,0.7,1.06,1.3C641.027,363.667,640.747,364.597,640.407,365.447z"/>
						<path style="fill:#351E3B;" d="M639.697,361.497c-6.43,4.7-13.15,9.79-19.81,15.3c-0.17,0.15-0.35,0.3-0.53,0.44
							c-4.63,3.86-9.23,7.93-13.69,12.22c-0.13,0.13-0.27,0.26-0.4,0.39c-6.06,5.87-11.85,12.16-17.06,18.92
							c-0.26,0.33-0.52,0.66-0.77,1c-0.05,0.06-0.13,0.1-0.2,0.1c-0.05,0-0.11-0.02-0.15-0.05c-0.11-0.09-0.13-0.24-0.05-0.35
							c0.53-0.7,1.07-1.39,1.61-2.08c0.01-0.01,0.01-0.02,0.02-0.03c5.01-6.36,10.52-12.32,16.28-17.89c0.05-0.05,0.1-0.1,0.15-0.15
							h0.01c2.03-1.97,4.09-3.88,6.17-5.75c0.17-0.16,0.35-0.32,0.53-0.47c5.24-4.69,10.6-9.08,15.91-13.21
							c0.18-0.14,0.35-0.28,0.53-0.41c3.68-2.86,7.34-5.59,10.91-8.21C639.347,361.327,639.527,361.407,639.697,361.497z"/>
						<path style="fill:#351E3B;" d="M628.627,364.907c-0.15,1.52-0.28,3.05-0.38,4.57c-0.02,0.17-0.03,0.35-0.04,0.52
							c-0.01,0.13-0.12,0.23-0.25,0.23h-0.01c-0.14-0.01-0.25-0.13-0.24-0.26c0-0.03,0-0.05,0.01-0.08c0.1-1.53,0.22-3.09,0.38-4.63
							C628.277,365.127,628.447,365.017,628.627,364.907z"/>
						<path style="fill:#351E3B;" d="M630.097,378.227c-0.16,0.16-0.33,0.3-0.5,0.44c-1.2-0.17-2.38-0.33-3.57-0.5
							c-2.21-0.31-4.41-0.62-6.67-0.93c-0.02,0-0.05-0.01-0.07-0.01c-0.14-0.02-0.24-0.15-0.22-0.28c0.02-0.14,0.14-0.23,0.29-0.22
							c0.18,0.03,0.36,0.05,0.53,0.07c2.1,0.3,4.15,0.58,6.21,0.87C627.427,377.857,628.757,378.047,630.097,378.227z"/>
						<path style="fill:#351E3B;" d="M612.107,378.847c-0.13,1.54-0.22,2.95-0.3,4.25c-0.01,0.18-0.02,0.36-0.03,0.53
							c0,0.14-0.11,0.24-0.25,0.24h-0.01c-0.14-0.01-0.24-0.13-0.24-0.26v-0.04c0.08-1.29,0.17-2.68,0.29-4.19
							C611.747,379.187,611.927,379.007,612.107,378.847z"/>
						<path style="fill:#351E3B;" d="M612.747,391.727c-0.18,0.12-0.34,0.25-0.52,0.37c-2.35-0.67-4.67-1.42-6.96-2.25
							c-0.06-0.02-0.11-0.04-0.17-0.06c-0.13-0.04-0.2-0.19-0.15-0.32c0.02-0.07,0.08-0.12,0.15-0.15h0.01
							c0.05-0.02,0.11-0.02,0.16,0c0.13,0.05,0.27,0.1,0.4,0.14C607.997,390.297,610.357,391.047,612.747,391.727z"/>
					</g>
					<g>
						<path style="fill:#7581FF;" d="M584.446,403.277c-0.14,0.88-0.31,1.77-0.48,2.66c-0.29,1.49-0.62,2.98-0.98,4.5
							c-4.04-17.39-9.51-34.43-16.33-50.92v-0.01c-0.09-0.23-0.19-0.46-0.29-0.69v-0.01c-1.11-2.69-2.26-5.35-3.45-8
							c-1.22-2.72-2.48-5.46-2.99-8.4c-0.51-2.94-0.16-6.16,1.6-8.56c-0.68-1.79-1.34-3.58-1.97-5.39v-0.01
							c-0.08-0.22-0.16-0.44-0.23-0.66c-4.99-14.43-8.28-29.59-6.72-44.64c0.02-0.19,0.04-0.39,0.06-0.59
							c0.1-0.83,0.2-1.67,0.33-2.5c0.57-3.76,1.64-7.76,4.6-10.15c0.31-0.25,0.66-0.49,1.04-0.62c0.17-0.06,0.34-0.1,0.52-0.1
							c0.02-0.01,0.05-0.01,0.07-0.01c0.75,0,1.39,0.51,1.92,1.03c2.28,2.24,3.78,5.15,5.11,8.06c3.39,7.37,6,15.02,8.09,22.83
							c0.09,0.32,0.17,0.63,0.26,0.96v0.01c3.38,12.92,5.38,26.28,7.16,39.56v0.01c0.05,0.36,0.1,0.73,0.15,1.08v0.01
							c0.07,0.53,0.14,1.06,0.21,1.59c1.18,8.95,2.31,17.89,3.09,26.87v0.01c0.04,0.4,0.07,0.8,0.1,1.19
							c0.15,1.75,0.28,3.49,0.4,5.24C586.306,386.567,585.916,394.787,584.446,403.277z"/>
						<g>
							<path style="fill:#351E3B;" d="M584.446,403.277c-0.14,0.88-0.31,1.77-0.48,2.66c-0.01-12.63-0.62-25.22-1.82-37.74
								c-0.01-0.21-0.03-0.42-0.06-0.63c-1.02-10.56-2.47-21.08-4.33-31.52c-0.04-0.2-0.07-0.4-0.11-0.6v-0.01
								c-1.59-8.85-3.48-17.66-5.68-26.4c-0.01-0.07-0.03-0.14-0.05-0.21c-0.95-3.81-1.97-7.6-3.04-11.39
								c-0.08-0.31-0.17-0.61-0.26-0.92v-0.01c-1.09-3.82-2.24-7.63-3.44-11.43c-1.69-5.32-3.58-10.87-6.54-15.79
								c0.17-0.06,0.34-0.1,0.52-0.1c2.93,4.93,4.82,10.45,6.49,15.74c1.29,4.06,2.51,8.14,3.67,12.23v0.01
								c0.04,0.13,0.07,0.24,0.1,0.36c0.99,3.48,1.92,6.97,2.8,10.46c0.08,0.29,0.15,0.57,0.21,0.86
								c3.15,12.51,5.67,25.14,7.58,37.86c0.06,0.33,0.11,0.67,0.15,1.01c1.41,9.52,2.48,19.08,3.2,28.69v0.01
								c0.03,0.41,0.06,0.82,0.08,1.24v0.01C584.056,386.177,584.386,394.707,584.446,403.277z"/>
							<path style="fill:#351E3B;" d="M569.416,297.527c0,0.02-0.01,0.03-0.03,0.05c-0.04,0.05-0.11,0.08-0.18,0.08
								c-0.06,0-0.12-0.03-0.17-0.07c-0.05-0.05-0.11-0.1-0.16-0.15c-5.26-4.9-10.72-9.7-16.27-14.29c0.02-0.19,0.04-0.39,0.06-0.59
								c5.44,4.48,10.79,9.17,15.95,13.95v0.01c0.24,0.21,0.47,0.43,0.7,0.64v0.01c0.02,0.01,0.04,0.03,0.06,0.05
								C569.466,297.307,569.486,297.427,569.416,297.527z"/>
							<path style="fill:#351E3B;" d="M574.606,302.057v0.01c-0.62,2.29-1.35,4.56-2.18,6.78c-0.01,0.04-0.03,0.07-0.04,0.11
								c-0.03,0.1-0.13,0.16-0.23,0.16c-0.03,0-0.06,0-0.09-0.02c-0.04-0.01-0.07-0.03-0.1-0.06c-0.05-0.06-0.07-0.13-0.05-0.21
								c0-0.02,0-0.03,0.01-0.05c0.1-0.26,0.19-0.52,0.29-0.79c0.82-2.25,1.53-4.56,2.13-6.89
								C574.436,301.417,574.516,301.727,574.606,302.057z"/>
							<path style="fill:#351E3B;" d="M577.996,335.937c-0.04,0.08-0.12,0.12-0.21,0.12c-0.01,0-0.02,0-0.03-0.01
								c-0.03,0-0.07,0-0.1-0.02c-2.35-1.44-5.02-2.37-7.6-3.27c-0.58-0.2-1.15-0.4-1.72-0.6c-2.98-1.07-5.93-2.31-8.78-3.7v-0.01
								c-0.08-0.22-0.16-0.44-0.23-0.66c2.98,1.47,6.06,2.78,9.18,3.9c0.57,0.2,1.14,0.4,1.72,0.6c2.5,0.88,5.09,1.78,7.42,3.15
								v0.01c0.09,0.04,0.18,0.1,0.27,0.15C578.036,335.667,578.076,335.827,577.996,335.937z"/>
							<path style="fill:#351E3B;" d="M581.916,342.717v0.01l-1.71,4.91c-0.01,0.03-0.03,0.06-0.05,0.08
								c-0.04,0.06-0.11,0.09-0.19,0.09c-0.02,0-0.05,0-0.08-0.01c-0.13-0.05-0.2-0.19-0.15-0.32l0.27-0.77l1.76-5.07
								C581.816,341.997,581.866,342.367,581.916,342.717z"/>
							<path style="fill:#351E3B;" d="M582.466,368.117c-0.05,0.07-0.13,0.11-0.21,0.11c-0.04,0-0.07-0.01-0.11-0.03
								c-0.01,0-0.02,0-0.03-0.01c-4.94-3.21-10.13-6.13-15.46-8.67v-0.01c-0.09-0.23-0.19-0.46-0.29-0.69
								c5.42,2.56,10.69,5.5,15.72,8.75c0.1,0.07,0.21,0.13,0.31,0.2C582.506,367.847,582.546,367.997,582.466,368.117z"/>
							<path style="fill:#351E3B;" d="M585.316,372.387l-1.86,5.23c0,0.01-0.01,0.03-0.02,0.04v0.01c-0.05,0.07-0.13,0.12-0.21,0.12
								c-0.03,0-0.06-0.01-0.08-0.02c-0.13-0.04-0.2-0.19-0.16-0.32l0.37-1.03v-0.01l1.86-5.21
								C585.256,371.597,585.286,371.997,585.316,372.387z"/>
						</g>
					</g>
					<g>
						<path style="fill:#7581FF;" d="M581.664,409.327c-0.27-0.28-0.55-0.55-0.83-0.8c-1.37-1.3-2.82-2.44-4.34-3.57
							c-7.43-5.5-14.61-11.33-21.54-17.46c-0.2-0.17-0.41-0.35-0.61-0.54c-0.96-0.85-1.92-1.71-2.87-2.58
							c-5.21-4.75-10.29-9.7-14.64-15.24c-0.15-0.19-0.3-0.38-0.44-0.57c-0.48-0.61-0.94-1.22-1.39-1.85
							c-1.47-2.05-2.87-4.27-3.2-6.78c-0.12-0.9-0.08-1.88,0.4-2.66c0.23-0.37,0.55-0.67,0.92-0.9c0.15-0.1,0.32-0.18,0.49-0.24
							c0.53-0.23,1.12-0.33,1.69-0.31c1.2,0.04,2.34,0.52,3.41,1.04c6.42,3.08,11.8,7.89,16.61,13.19c0.21,0.22,0.41,0.44,0.6,0.67
							c0.01,0.01,0.01,0.01,0.01,0.02c0.93,1.02,1.8,2.03,2.68,3.07c4.55,5.41,8.77,11.1,12.63,17.01c0.17,0.26,0.33,0.51,0.5,0.77
							c0.16,0.26,0.33,0.51,0.49,0.77c1.59,2.49,3.12,5.02,4.58,7.59c1.48,2.58,3.61,5.61,4.58,8.49
							C581.504,408.747,581.594,409.037,581.664,409.327z"/>
						<path style="fill:#351E3B;" d="M582.284,410.337c-0.04,0.03-0.09,0.04-0.13,0.04c-0.09,0-0.17-0.04-0.22-0.12
							c-0.36-0.58-0.73-1.16-1.1-1.73c-4.3-6.74-8.97-13.19-13.98-19.34c-0.17-0.2-0.34-0.4-0.5-0.61c-3.13-3.81-6.4-7.5-9.8-11.07
							h-0.01c-0.09-0.11-0.19-0.21-0.29-0.31c-2.03-2.14-4.12-4.23-6.25-6.28c-0.21-0.2-0.42-0.4-0.63-0.6
							c-5.15-4.91-10.57-9.57-16.25-13.94c0.15-0.1,0.32-0.18,0.49-0.24c5.83,4.5,11.4,9.3,16.69,14.38
							c1.99,1.91,3.95,3.86,5.85,5.85c0.2,0.2,0.39,0.39,0.58,0.59c5.28,5.53,10.25,11.36,14.88,17.47c0.16,0.2,0.31,0.39,0.45,0.59
							c3.28,4.34,6.39,8.82,9.33,13.43c0.32,0.51,0.65,1.03,0.97,1.54C582.434,410.107,582.404,410.267,582.284,410.337z"/>
						<path style="fill:#351E3B;" d="M550.364,370.707c-0.01,0.13-0.12,0.22-0.25,0.22h-0.03l-0.08-0.01l-13.17-1.78
							c-0.15-0.19-0.3-0.38-0.44-0.57l12.98,1.75l0.01,0.01l0.77,0.1c0.03,0,0.06,0.02,0.08,0.03c0.03,0.02,0.05,0.03,0.07,0.06
							C550.354,370.567,550.374,370.637,550.364,370.707z"/>
						<path style="fill:#351E3B;" d="M556.764,377.227c0.01,0.14-0.08,0.25-0.21,0.28h-0.04c-0.13,0-0.23-0.1-0.25-0.23
							c0-0.03-0.01-0.05-0.01-0.08c-0.03-0.28-0.06-0.55-0.1-0.83c-0.23-2.1-0.51-4.21-0.83-6.31c0.21,0.22,0.41,0.44,0.6,0.67
							c0.01,0.01,0.01,0.01,0.01,0.02c0.31,2.07,0.57,4.14,0.8,6.21C556.744,377.047,556.754,377.137,556.764,377.227z"/>
						<path style="fill:#351E3B;" d="M567.234,389.027c-0.03,0.11-0.13,0.19-0.25,0.19c-0.02,0-0.04,0-0.06-0.01
							c-0.02-0.01-0.05-0.01-0.07-0.01v-0.01c-3.9-0.9-7.89-1.47-11.9-1.69c-0.2-0.17-0.41-0.35-0.61-0.54
							c4.03,0.19,8.06,0.72,12.01,1.62c0.23,0.04,0.46,0.1,0.69,0.15C567.174,388.757,567.264,388.887,567.234,389.027z"/>
						<path style="fill:#351E3B;" d="M572.234,392.367c-0.02,0.88-0.08,1.77-0.17,2.65v0.04c-0.02,0.12-0.12,0.22-0.25,0.22
							c-0.13,0-0.23-0.09-0.25-0.22l-0.05-0.35c-0.01-0.09,0.03-0.17,0.1-0.22v-0.06c0.09-0.94,0.13-1.88,0.13-2.83
							C571.904,391.857,572.074,392.107,572.234,392.367z"/>
					</g>
				</g>
			</g>
		</g>
	</g>
	<g>
		<g>
			<path style="fill:#FFF3EA;" d="M297.571,130.786C284.986,57.313,215.222,7.955,141.749,20.54
				C68.276,33.126,18.918,102.89,31.504,176.363c12.322,71.933,79.451,120.741,151.209,110.945
				c19.76,19.97,50.22,31.567,50.22,31.567c-11.723-13.366-19.579-28.487-23.805-37.896
				C270.267,259.663,308.866,196.722,297.571,130.786z"/>
			<g>
				<defs>
					<path id="SVGID_1_" d="M297.571,130.786C284.986,57.313,215.222,7.955,141.749,20.54
						C68.276,33.126,18.918,102.89,31.504,176.363c12.322,71.933,79.451,120.741,151.209,110.945
						c19.76,19.97,50.22,31.567,50.22,31.567c-11.723-13.366-19.579-28.487-23.805-37.896
						C270.267,259.663,308.866,196.722,297.571,130.786z"/>
				</defs>
				<clipPath id="SVGID_00000035529207405304732720000018368053652435471286_">
					<use xlink:href="#SVGID_1_"  style="overflow:visible;"/>
				</clipPath>
				<g style="clip-path:url(#SVGID_00000035529207405304732720000018368053652435471286_);">
					<path style="fill:#492A51;" d="M116.193,74.764c-3.26,10.735-7.744,28.613-15.865,35.893
						c-5.798,5.198-12.901,8.735-18.919,13.678c-13.824,11.352-20.945,30.318-18.006,47.956c0.833,5.002,2.441,9.931,5.224,14.171
						c5.037,7.675,13.457,12.462,21.993,15.852c30.694,12.192,65.399,9.547,97.471,1.663c11.663-2.867,23.351-6.483,33.36-13.118
						c10.009-6.635,18.26-16.684,20.399-28.495c2.099-11.59-1.837-23.526-7.704-33.741c-3.548-6.177-7.909-12.199-8.943-19.245
						c-1.099-7.491,1.736-14.924,2.924-22.401c1.997-12.569-0.92-25.992-8.581-36.158c-7.661-10.166-20.118-16.759-32.852-16.633
						C157.488,34.473,136.426,51.48,116.193,74.764z"/>
					<g>
						<g>
							<path style="fill:#C26975;" d="M258.696,324.358c-45.799,10.307-195.441-7.708-195.441-7.708l16.434-131.327
								c15.823-16.911,53.524-37.627,54.406-41.664c0.139-0.647,0.195-1.764,0.187-3.219c-0.021-6.537-1.277-19.592-1.665-23.319
								c-0.061-0.657-0.096-1.019-0.096-1.019l3.465,1.133l31.287,10.271l9.987,3.273l12.442,4.075c0,0-0.003,0.053-0.021,0.146
								c-0.018,0.092-0.038,0.238-0.061,0.424c-0.08,0.543-0.219,1.443-0.368,2.556c-0.262,2.055-0.575,4.84-0.749,7.526
								c-0.105,1.582-0.156,3.127-0.115,4.449c0.011,0.041,0.01,0.067,0.008,0.107c0.012,0.294,0.025,0.575,0.051,0.843
								c0.407,5.476,25.487,19.318,42.065,35.138c16.592,15.807,23.03,57.345,24.728,77.864
								C256.94,284.414,258.696,324.358,258.696,324.358z"/>
							<path style="fill:#351E3B;" d="M189.704,134.855c0,0-0.003,0.053-0.021,0.146c-0.018,0.092-0.038,0.238-0.061,0.424
								c-0.067,0.544-0.178,1.432-0.314,2.546c-0.254,2.148-0.549,5.121-0.688,7.915c-0.001,0.013-0.001,0.013-0.001,0.013
								c-0.072,1.45-0.102,2.849-0.057,4.079c-0.053-0.003-0.12-0.006-0.172-0.022c-10.067-0.875-21.826-1.795-30.858-6.034
								c-0.078-0.031-0.156-0.075-0.221-0.118c-7.44-3.546-13.303-9.267-17.545-15.961c-1.509-2.37-2.799-4.848-3.886-7.397
								c0.468,0.25,0.949,0.487,1.431,0.725c8.462,4.17,18.25,6.099,28.173,7.715c3.929,0.65,7.875,1.233,11.777,1.895
								L189.704,134.855z"/>
							<path style="fill:#C26975;" d="M219.676,93.446c-0.346,4.799-1.085,9.405-2.042,13.464
								c-1.984,8.277-5.987,15.223-11.69,20.746c-3.362,3.264-7.315,6.036-11.788,8.279c-18.898,9.5-48.518,4.41-59.53-14.848
								c-5.741-10.035-7.338-23.288-6.857-34.695c0.448-11.122,3.718-22.378,11.528-30.602
								c11.029-11.576,28.122-16.565,43.787-14.685c2.703,0.33,5.39,0.856,8.007,1.613c3.027,0.878,5.987,2.041,8.771,3.507
								c7.478,3.909,12.227,10.401,15.85,18.094C219.534,72.4,220.435,83.333,219.676,93.446z"/>
							<g>
								<g>
									<g>
										<path style="opacity:0.23;fill:#D9607B;" d="M173.837,112.88c0.098,10.58-8.4,19.237-18.98,19.335
											c-10.58,0.098-19.237-8.4-19.335-18.98c-0.098-10.58,8.4-19.237,18.98-19.335C165.083,93.802,173.74,102.3,173.837,112.88
											z"/>
										<path style="opacity:0.23;fill:#D9607B;" d="M219.676,93.446c-0.346,4.799-1.085,9.405-2.042,13.464
											c-1.984,8.277-5.987,15.223-11.69,20.746c-4.508-3.475-7.418-8.883-7.474-15.01c-0.098-10.567,8.401-19.224,18.985-19.322
											C218.201,93.317,218.947,93.346,219.676,93.446z"/>
									</g>
									<g>
										<g>
											<g>
												
													<path style="fill:none;stroke:#351E3B;stroke-width:1.004;stroke-linecap:round;stroke-linejoin:round;stroke-miterlimit:10;" d="
													M189.799,108.261c1.814-0.713,3.175-2.487,3.407-4.44c0.276-2.319-1.43-4.856-3.095-6.503"/>
												
													<path style="fill:none;stroke:#351E3B;stroke-width:1.004;stroke-linecap:round;stroke-linejoin:round;stroke-miterlimit:10;" d="
													M185.58,108.039c-0.254-0.611-0.827-1.107-1.482-1.153c-0.655-0.046-1.337,0.441-1.413,1.099"/>
											</g>
										</g>
										<g>
											<g>
												<g>
													<path style="fill:#F7E9E9;" d="M214.322,94.156c0,0-2.417,8.203-12.593,7.187c-0.103-0.005-0.206-0.019-0.308-0.041
														c-2.488-0.391-5.137-2.565-8.021-6.225c0,0,0.077-0.168,0.238-0.462c0.114-0.201,0.255-0.453,0.443-0.753
														c1.398-2.283,4.872-6.994,9.913-7.174l0.189,0.001l0.077,0.004c1.025-0.001,1.965,0.167,2.829,0.451
														c3.712,1.245,5.986,4.71,6.839,6.252C214.199,93.865,214.322,94.156,214.322,94.156z"/>
													<path style="fill:#AA6EE7;" d="M207.934,95.956c-1.012,1.811-2.826,3.107-5.002,3.378
														c-1.525,0.182-3.132-0.079-4.503-0.75c-2.028-0.98-3.526-2.726-4.348-4.723c1.398-2.283,4.872-6.994,9.913-7.174
														l0.189,0.001l0.077,0.004c1.025-0.001,1.965,0.167,2.829,0.451C208.724,89.792,209.439,93.248,207.934,95.956z"/>
													<g>
														<path style="fill:#351E3B;" d="M212.911,96.106c-0.441-1.979-1.465-4.065-2.959-5.607
															c-1.488-1.578-3.459-2.664-5.616-2.888c-2.107-0.204-4.378,0.473-6.228,1.759c-1.885,1.277-3.345,3.109-4.33,5.297
															c-0.125,0.278-0.452,0.402-0.73,0.277c-0.278-0.125-0.402-0.452-0.277-0.73c0.003-0.007,0.007-0.014,0.01-0.021
															l0.012-0.024c0.553-1.092,1.036-2.222,1.793-3.26c0.731-1.033,1.612-1.969,2.618-2.763
															c2.004-1.592,4.548-2.617,7.279-2.549c2.677,0.085,5.284,1.293,7.222,3.095c1.977,1.819,3.368,4.104,4.155,6.784
															c0.235,0.8-0.223,1.638-1.023,1.873c-0.799,0.235-1.638-0.223-1.873-1.022c-0.009-0.031-0.017-0.062-0.024-0.093
															L212.911,96.106z"/>
													</g>
												</g>
											</g>
											<g>
												<g>
													<path style="fill:#F7E9E9;" d="M176.105,94.418c-3.662,3.623-6.889,5.678-9.739,5.817
														c-0.12,0.016-0.239,0.021-0.357,0.015c-1.514,0-2.857-0.164-4.043-0.439c-6.382-1.443-8.549-6.113-9.171-7.95
														c1.516-3.297,4.217-5.865,7.326-7.083c0.199-0.077,0.386-0.143,0.572-0.198c1.152-0.343,2.404-0.518,3.762-0.418
														c0.097,0.005,0.205,0.01,0.312,0.026l0.097,0.005l0.204,0.021c6.412,0.849,10.001,7.153,10.887,9.122
														C176.1,93.667,176.105,94.418,176.105,94.418z"/>
													<path style="fill:#AA6EE7;" d="M168.66,94.594c-1.079,1.929-3.011,3.311-5.33,3.599
														c-1.626,0.194-3.338-0.084-4.799-0.799c-2.16-1.044-3.757-2.905-4.633-5.033c1.277-4.352,5.192-7.453,10.563-7.644
														l0.202,0.001l0.082,0.004c1.092-0.001,2.094,0.178,3.015,0.481C169.502,88.025,170.264,91.708,168.66,94.594z"/>
													<g>
														<path style="fill:#351E3B;" d="M175.869,93.896l-0.833-1.798c-0.305-0.579-0.635-1.133-1.006-1.653
															c-0.745-1.042-1.635-1.97-2.631-2.745c-1.974-1.562-4.449-2.476-6.813-2.467c-2.421,0.03-4.731,0.967-6.574,2.498
															c-0.922,0.76-1.729,1.655-2.393,2.636c-0.333,0.49-0.633,1.001-0.886,1.532c-0.128,0.264-0.258,0.526-0.363,0.817
															l-0.168,0.424c-0.056,0.142-0.061,0.215-0.097,0.322l-0.082,0.238c-0.336,0.977-1.4,1.497-2.377,1.161
															c-0.977-0.336-1.497-1.4-1.161-2.377c0.024-0.069,0.052-0.137,0.083-0.201l0.291-0.606l0.247-0.493
															c0.154-0.328,0.348-0.655,0.542-0.979c0.383-0.649,0.82-1.265,1.293-1.846c0.945-1.165,2.049-2.191,3.277-3.037
															c2.433-1.7,5.48-2.629,8.436-2.404c3.012,0.255,5.722,1.606,7.803,3.544c1.044,0.967,1.938,2.079,2.654,3.287
															c0.358,0.607,0.663,1.236,0.931,1.871l0.701,1.923c0.089,0.244-0.037,0.515-0.282,0.604
															C176.228,94.229,175.971,94.115,175.869,93.896z"/>
													</g>
												</g>
											</g>
										</g>
									</g>
								</g>
								
									<path style="fill:none;stroke:#351E3B;stroke-width:0.8375;stroke-linecap:round;stroke-linejoin:round;stroke-miterlimit:10;" d="
									M177.016,112.49c2.021,3.267,5.955,4.092,9.389,3.045"/>
								<path style="opacity:0.23;fill:#D9607B;" d="M182.752,119.319c-1.645,0.005-3.29-0.438-4.71-1.269
									c-0.142,0.554-0.594,1.131-0.509,1.696c0.183,1.209,1.343,2.191,2.565,2.172
									C181.321,121.899,182.607,120.533,182.752,119.319z"/>
							</g>
							<g>
								<g>
									<path style="fill:#C26975;" d="M140.228,94.325c0,0-13.327-11.354-22.467-4.366c-5.926,4.531-8.075,13.975-3.849,20.309
										c2.428,3.639,6.444,5.567,10.701,6.072c3.748,0.444,8.9,0.13,10.234-3.527C137.335,105.994,140.228,94.325,140.228,94.325z
										"/>
									
										<path style="fill:none;stroke:#351E3B;stroke-width:0.795;stroke-linecap:round;stroke-linejoin:round;stroke-miterlimit:10;" d="
										M118.382,89.252c8.816,0.307,12.359,8.709,12.431,16.435c-1.519,0.112-3.325,0.863-3.988,2.234
										c-0.663,1.372-0.538,3.092,0.317,4.352c0.398,0.587,1.073,1.11,1.76,0.934"/>
								</g>
							</g>
							<path style="fill:#351E3B;" d="M155.205,77.757c-0.474,0.83-0.747,1.986,0.041,2.603c0.624,0.488,1.562,0.346,2.359,0.176
								c2.88-0.614,5.759-1.228,8.639-1.842c0.895-0.191,1.809-0.389,2.577-0.843c0.768-0.454,1.373-1.222,1.329-2.056
								c-0.053-1.005-0.995-1.79-1.961-2.295C163.23,70.908,157.688,73.407,155.205,77.757z"/>
							<path style="fill:#351E3B;" d="M212.333,79.56c0.461,0.809,0.77,1.95,0.13,2.598c-0.507,0.513-1.323,0.411-2.02,0.275
								c-2.519-0.492-5.037-0.984-7.556-1.476c-0.783-0.153-1.583-0.312-2.273-0.733c-0.69-0.421-1.26-1.162-1.275-1.996
								c-0.018-1.005,0.743-1.828,1.543-2.372C204.988,73.063,209.919,75.324,212.333,79.56z"/>
						</g>
						<path style="fill:#492A51;" d="M131.731,92.084c6.771,3.115,14.815,0.789,21.371-2.757
							c20.069-10.856,32.914-32.534,36.525-55.063c-17.536-3.891-37.311-4.355-53.616,8.455
							c-14.125,11.097-21.193,29.331-22.517,47.245c2.657-1.893,5.872-2.847,9.115-2.488
							C125.852,87.834,128.767,90.721,131.731,92.084z"/>
					</g>
					<g>
						<polygon style="fill:#351E3B;" points="114.043,85.725 117.533,145.016 146.539,139.234 140.919,75.657 						"/>
						<path style="fill:none;stroke:#FFD4D4;stroke-width:0.2189;stroke-miterlimit:10;" d="M138.2,83.74l-6.223,2.392
							c-0.947,0.364-2.019-0.113-2.383-1.06l-0.06-0.156c-0.364-0.947,0.113-2.019,1.06-2.383l6.223-2.392
							c0.947-0.364,2.019,0.113,2.383,1.06l0.06,0.156C139.623,82.303,139.147,83.376,138.2,83.74z"/>
					</g>
					<path style="fill:#FFA7DA;" d="M259.873,325.611c-45.799,10.307-196.618-8.961-196.618-8.961l16.434-131.327
						c15.823-16.911,53.524-37.627,54.406-41.664c0.139-0.647,0.195-1.764,0.187-3.219c2.42,0.428,12.087,2.097,23.028,3.363
						c11.139,1.303,23.594,2.191,30.991,0.972c0,0,0.053,0.269,0.204,0.73c0.021,0.108,0.068,0.243,0.115,0.379
						c-0.001,0.013-0.001,0.013-0.001,0.013c-0.072,1.45-0.102,2.849-0.057,4.079c-0.053-0.003-0.12-0.006-0.172-0.022
						c0.011,0.041,0.01,0.067,0.008,0.107c0.012,0.294,0.025,0.575,0.051,0.843c0.407,5.476,25.487,19.318,42.065,35.138
						c16.592,15.807,23.03,57.345,24.728,77.864C256.94,284.414,259.873,325.611,259.873,325.611z"/>
					<g>
						<g>
							<path style="fill:#C26975;" d="M112.34,169.078c0,0,1.203-20.714,1.39-27.857c0.186-7.143,1.603-15.075,3.836-18.88
								c2.233-3.805,6.105-9.742,11.744-13.548c5.639-3.806,13.953-6.626,16.068-4.647c2.115,1.979-6.207,8.375-6.207,8.375
								s6.276,0.483,10.948,5.825c4.672,5.341,0.74,9.062-1.128,8.969c0,0,1.614,5.189-0.194,7.312
								c-1.809,2.123-10.413-2.903-10.413-2.903s6.286,13.936,5.574,21.393c-0.712,7.457-6.733,18.906-6.733,18.906L112.34,169.078z
								"/>
							<g>
								
									<path style="fill:none;stroke:#351E3B;stroke-width:0.6661;stroke-linecap:round;stroke-linejoin:round;stroke-miterlimit:10;" d="
									M112.501,166.986c0,0,0.988-19.817,1.141-22.874c0.153-3.057,0.066-14.981,3.559-21.278
									c3.493-6.297,8.571-12.514,12.319-14.825c3.748-2.311,12.461-6.303,15.859-3.863c0,0,1.263,1.993-1.472,4.467
									s-4.184,4.219-4.184,4.219"/>
								
									<path style="fill:none;stroke:#351E3B;stroke-width:0.6661;stroke-linecap:round;stroke-linejoin:round;stroke-miterlimit:10;" d="
									M121.919,128.024c2.803-5.196,6.747-9.863,11.774-12.96c1.019-0.628,2.087-1.193,3.229-1.55
									c2.389-0.747,5.027-0.538,7.355,0.38c2.328,0.918,4.355,2.515,5.967,4.429c1.161,1.378,2.148,3.011,2.249,4.81
									c0.101,1.799-1.468,4.368-3.838,4.08"/>
								
									<path style="fill:none;stroke:#351E3B;stroke-width:0.6661;stroke-linecap:round;stroke-linejoin:round;stroke-miterlimit:10;" d="
									M127.92,129.97c1.084-1.723,2.391-3.305,3.878-4.694c1.5-1.401,3.212-2.621,5.156-3.282
									c1.943-0.661,4.141-0.722,6.013,0.119c0.927,0.417,1.751,1.04,2.488,1.74c1.867,1.774,3.22,4.085,3.853,6.581
									c0.207,0.816,0.339,1.673,0.179,2.499c-0.16,0.827-0.652,1.625-1.418,1.977c-0.966,0.444-2.093,0.104-3.1-0.24
									c-2.216-0.758-4.431-1.515-6.647-2.273c0,0,5.791,12.467,5.843,18.259"/>
							</g>
						</g>
						<path style="fill:#FFA7DA;" d="M79.689,185.323c0,0-25.368,26.914-30.74,56.369c-6.094,33.412,2.918,68.835,39.688,71.454
							c47.849,3.408,53.933-111.739,53.372-120.962c-0.562-9.223,1.549-19.675,1.549-19.675l-32.217-5.013l-27.234,45.299
							L79.689,185.323z"/>
						
							<path style="fill:none;stroke:#351E3B;stroke-width:1.004;stroke-linecap:round;stroke-linejoin:round;stroke-miterlimit:10;" d="
							M64.89,304.469c0,0,25.668,17.968,47.017-0.379s30.102-111.906,29.626-116.017c0,0-0.443-7.06-2.487-9.319
							c0,0,1.001-6.421-1.456-7.224s-25.558-4.226-25.558-4.226s-2.61-0.017-2.972,2.69c-0.362,2.706-0.735,7.91-0.735,7.91
							s-3.85-0.192-6.963,7.599c-3.113,7.791-29.5,36.104-35.341,53.068c-5.841,16.964-6.463,24.879-6.463,24.879"/>
						
							<path style="fill:none;stroke:#351E3B;stroke-width:1.004;stroke-linecap:round;stroke-linejoin:round;stroke-miterlimit:10;" d="
							M108.171,178.088c10.108,2.213,20.591,2.703,30.862,1.443"/>
					</g>
				</g>
			</g>
		</g>
		<g>
			<path style="fill:#FFB18A;" d="M337.257,52.89h-84.983c-7.523,0-13.679,6.155-13.679,13.679v18.626
				c0,7.523,6.156,13.679,13.679,13.679h12.611c-2.79,6.441-5.862,12.761-9.238,18.916c8.878-6.305,17.755-12.61,26.633-18.916
				h54.977c7.523,0,13.679-6.156,13.679-13.679V66.569C350.936,59.045,344.781,52.89,337.257,52.89z"/>
			<g>
				<circle style="fill:#351E3B;" cx="273.66" cy="75.851" r="4.085"/>
				<circle style="fill:#351E3B;" cx="295.787" cy="75.851" r="4.085"/>
				<circle style="fill:#351E3B;" cx="317.915" cy="75.851" r="4.085"/>
			</g>
		</g>
	</g>
	<g>
		<g>
			<path style="fill:#FFF3EA;" d="M40.556,293.043h94.377c8.355,0,15.191,7.693,15.191,17.094v23.278
				c0,9.402-6.836,17.095-15.191,17.095h-14.005c3.099,8.05,6.51,15.948,10.26,23.639c-9.859-7.88-19.718-15.76-29.577-23.639
				H40.556c-8.355,0-15.191-7.693-15.191-17.095v-23.278C25.365,300.735,32.201,293.043,40.556,293.043z"/>
			<g>
				<path style="fill:#FFA7DA;" d="M65.143,320.886c0,2.82-2.286,5.105-5.105,5.105c-2.82,0-5.105-2.286-5.105-5.105
					c0-2.819,2.286-5.105,5.105-5.105C62.858,315.781,65.143,318.066,65.143,320.886z"/>
				<path style="fill:#FFA7DA;" d="M92.797,320.886c0,2.82-2.286,5.105-5.105,5.105c-2.819,0-5.105-2.286-5.105-5.105
					c0-2.819,2.286-5.105,5.105-5.105C90.511,315.781,92.797,318.066,92.797,320.886z"/>
				<path style="fill:#FFA7DA;" d="M120.45,320.886c0,2.82-2.286,5.105-5.105,5.105c-2.82,0-5.105-2.286-5.105-5.105
					c0-2.819,2.286-5.105,5.105-5.105C118.164,315.781,120.45,318.066,120.45,320.886z"/>
			</g>
		</g>
		<g>
			<g>
				
					<ellipse transform="matrix(0.8438 -0.5367 0.5367 0.8438 -91.7454 224.4063)" style="fill:#FFF3EA;" cx="339.625" cy="269.809" rx="29.787" ry="29.787"/>
				<path style="fill:#FFF3EA;" d="M330,296.372c-5.639,2.845-11.277,5.69-16.916,8.536c2.901-5.757,5.407-11.713,7.496-17.812
					C324.455,288.908,327.635,292.809,330,296.372z"/>
			</g>
			<g>
				<path style="fill:#FFA7DA;" d="M338.244,277.379l-0.368,0.092c-0.414,0-0.737-0.184-0.967-0.599
					c-0.69-1.426-1.058-2.807-1.058-4.142c0-3.36,2.209-5.385,4.511-7.503c1.104-1.059,1.888-1.888,2.302-2.486
					c0.414-0.599,0.644-1.243,0.644-1.841c0-1.795-1.519-2.67-3.176-2.67c-1.841,0-3.683,0.967-5.109,2.072
					c-0.23,0.138-0.415,0.23-0.645,0.23c-0.275,0-0.505-0.138-0.69-0.414l-1.61-2.394c-0.139-0.138-0.185-0.368-0.185-0.598
					c0-0.322,0.139-0.599,0.369-0.828c2.486-2.072,5.155-3.084,8.009-3.084c4.696,0,8.286,2.808,8.286,7.595
					c0,3.038-1.427,4.971-3.499,7.042l-0.874,0.874c-1.058,0.967-1.795,1.75-2.255,2.348c-0.46,0.598-0.691,1.243-0.691,1.888
					c0,0.598,0.139,1.289,0.46,2.072c0.046,0.184,0.092,0.322,0.092,0.414c0,0.138-0.046,0.322-0.139,0.46
					c-0.138,0.138-0.275,0.276-0.414,0.322L338.244,277.379z M335.253,284.468c0-2.118,1.703-3.82,3.82-3.82
					c2.163,0,3.82,1.658,3.82,3.82c0,2.163-1.657,3.82-3.82,3.82C336.956,288.288,335.253,286.586,335.253,284.468z"/>
			</g>
		</g>
	</g>
	<g>
		<g>
			<g>
				
					<ellipse style="fill:none;stroke:#FFF3EA;stroke-width:0.75;stroke-miterlimit:10;" cx="67.66" cy="408.477" rx="30.766" ry="30.523"/>
				
					<ellipse style="fill:none;stroke:#FFF3EA;stroke-width:0.75;stroke-miterlimit:10;" cx="67.66" cy="408.477" rx="26.063" ry="25.857"/>
				
					<polyline style="fill:none;stroke:#FFF3EA;stroke-width:0.75;stroke-linecap:round;stroke-linejoin:round;stroke-miterlimit:10;" points="
					66.876,395.451 66.876,411.393 78.438,407.505 				"/>
			</g>
			<g>
				
					<path style="fill:none;stroke:#FFF3EA;stroke-width:0.75;stroke-linecap:round;stroke-linejoin:round;stroke-miterlimit:10;" d="
					M558.466,211.378l1.711,44.962c0.02,0.535,0.459,0.96,0.995,0.962l59.857,0.247c0.541,0.002,0.985-0.426,1.004-0.967
					l1.466-43.973c0.019-0.557-0.422-1.022-0.98-1.033l-63.034-1.236C558.91,210.329,558.444,210.803,558.466,211.378z"/>
				
					<path style="fill:none;stroke:#FFF3EA;stroke-width:0.75;stroke-linecap:round;stroke-linejoin:round;stroke-miterlimit:10;" d="
					M558.425,210.319l33.277,26.468c0,0,31.83-25.532,31.83-25.191"/>
				
					<line style="fill:none;stroke:#FFF3EA;stroke-width:0.75;stroke-linecap:round;stroke-linejoin:round;stroke-miterlimit:10;" x1="560.894" y1="256.872" x2="585.574" y2="233.213"/>
				
					<line style="fill:none;stroke:#FFF3EA;stroke-width:0.75;stroke-linecap:round;stroke-linejoin:round;stroke-miterlimit:10;" x1="598.17" y1="232.532" x2="620.808" y2="257.043"/>
			</g>
			<path style="fill:none;stroke:#FFF3EA;stroke-width:0.75;stroke-miterlimit:10;" d="M492.749,20.525
				c-16.916,0.085-30.56,13.867-30.475,30.783c0.043,8.651,3.675,16.44,9.469,21.98c-1.799,4.755-3.844,9.417-6.131,13.957
				c5.164-2.606,10.328-5.212,15.493-7.818c3.677,1.536,7.716,2.376,11.952,2.355c16.916-0.085,30.56-13.867,30.475-30.783
				C523.447,34.084,509.665,20.44,492.749,20.525z"/>
		</g>
		<g>
			<path style="fill:none;stroke:#FFF3EA;stroke-width:0.75;stroke-miterlimit:10;" d="M606.28,138.576l-0.468,0.118
				c-0.527,0-0.937-0.234-1.23-0.762c-0.878-1.814-1.346-3.57-1.346-5.267c0-4.273,2.809-6.848,5.736-9.541
				c1.405-1.347,2.4-2.4,2.927-3.161c0.526-0.761,0.819-1.58,0.819-2.341c0-2.283-1.931-3.395-4.039-3.395
				c-2.341,0-4.683,1.23-6.496,2.634c-0.293,0.176-0.528,0.293-0.821,0.293c-0.35,0-0.643-0.176-0.878-0.526l-2.047-3.044
				c-0.176-0.176-0.235-0.468-0.235-0.761c0-0.41,0.176-0.761,0.469-1.053c3.161-2.634,6.555-3.922,10.184-3.922
				c5.971,0,10.537,3.57,10.537,9.658c0,3.863-1.815,6.321-4.449,8.955l-1.112,1.112c-1.346,1.23-2.283,2.225-2.868,2.986
				c-0.585,0.76-0.878,1.581-0.878,2.4c0,0.76,0.177,1.639,0.585,2.634c0.059,0.234,0.118,0.409,0.118,0.527
				c0,0.175-0.059,0.409-0.177,0.585c-0.175,0.175-0.35,0.352-0.527,0.409L606.28,138.576z M602.477,147.59
				c0-2.693,2.165-4.858,4.858-4.858c2.75,0,4.858,2.108,4.858,4.858c0,2.75-2.108,4.858-4.858,4.858
				C604.642,152.448,602.477,150.283,602.477,147.59z"/>
		</g>
	</g>
	<g>
		<g>
			
				<line style="fill:#FFF3EA;stroke:#FFF3EA;stroke-width:2;stroke-linecap:round;stroke-linejoin:round;stroke-miterlimit:10;" x1="395.872" y1="29.809" x2="395.872" y2="62.745"/>
			
				<line style="fill:#FFF3EA;stroke:#FFF3EA;stroke-width:2;stroke-linecap:round;stroke-linejoin:round;stroke-miterlimit:10;" x1="412.34" y1="46.277" x2="379.404" y2="46.277"/>
			
				<line style="fill:#FFF3EA;stroke:#FFF3EA;stroke-width:2;stroke-linecap:round;stroke-linejoin:round;stroke-miterlimit:10;" x1="404.468" y1="55.085" x2="386.425" y2="36.702"/>
			
				<line style="fill:#FFF3EA;stroke:#FFF3EA;stroke-width:2;stroke-linecap:round;stroke-linejoin:round;stroke-miterlimit:10;" x1="404.979" y1="37.553" x2="386.596" y2="55.596"/>
		</g>
		<g>
			
				<line style="fill:#FFF3EA;stroke:#FFF3EA;stroke-width:2;stroke-linecap:round;stroke-linejoin:round;stroke-miterlimit:10;" x1="32.043" y1="242.745" x2="32.043" y2="275.681"/>
			
				<line style="fill:#FFF3EA;stroke:#FFF3EA;stroke-width:2;stroke-linecap:round;stroke-linejoin:round;stroke-miterlimit:10;" x1="48.511" y1="259.213" x2="15.575" y2="259.213"/>
			
				<line style="fill:#FFF3EA;stroke:#FFF3EA;stroke-width:2;stroke-linecap:round;stroke-linejoin:round;stroke-miterlimit:10;" x1="40.638" y1="268.021" x2="22.596" y2="249.638"/>
			
				<line style="fill:#FFF3EA;stroke:#FFF3EA;stroke-width:2;stroke-linecap:round;stroke-linejoin:round;stroke-miterlimit:10;" x1="41.149" y1="250.489" x2="22.766" y2="268.532"/>
		</g>
		<g>
			
				<line style="fill:#FFF3EA;stroke:#FFF3EA;stroke-width:2;stroke-linecap:round;stroke-linejoin:round;stroke-miterlimit:10;" x1="32.043" y1="20.617" x2="32.043" y2="53.553"/>
			
				<line style="fill:#FFF3EA;stroke:#FFF3EA;stroke-width:2;stroke-linecap:round;stroke-linejoin:round;stroke-miterlimit:10;" x1="48.511" y1="37.085" x2="15.575" y2="37.085"/>
			
				<line style="fill:#FFF3EA;stroke:#FFF3EA;stroke-width:2;stroke-linecap:round;stroke-linejoin:round;stroke-miterlimit:10;" x1="40.638" y1="45.894" x2="22.596" y2="27.511"/>
			
				<line style="fill:#FFF3EA;stroke:#FFF3EA;stroke-width:2;stroke-linecap:round;stroke-linejoin:round;stroke-miterlimit:10;" x1="41.149" y1="28.362" x2="22.766" y2="46.404"/>
		</g>
		<g>
			
				<line style="fill:#FFF3EA;stroke:#FFF3EA;stroke-width:2;stroke-linecap:round;stroke-linejoin:round;stroke-miterlimit:10;" x1="535.66" y1="158.106" x2="535.66" y2="191.043"/>
			
				<line style="fill:#FFF3EA;stroke:#FFF3EA;stroke-width:2;stroke-linecap:round;stroke-linejoin:round;stroke-miterlimit:10;" x1="552.128" y1="174.574" x2="519.191" y2="174.574"/>
			
				<line style="fill:#FFF3EA;stroke:#FFF3EA;stroke-width:2;stroke-linecap:round;stroke-linejoin:round;stroke-miterlimit:10;" x1="544.255" y1="183.383" x2="526.213" y2="165"/>
			
				<line style="fill:#FFF3EA;stroke:#FFF3EA;stroke-width:2;stroke-linecap:round;stroke-linejoin:round;stroke-miterlimit:10;" x1="544.766" y1="165.851" x2="526.383" y2="183.894"/>
		</g>
		<g>
			
				<line style="fill:#FFF3EA;stroke:#FFF3EA;stroke-width:1.1783;stroke-linecap:round;stroke-linejoin:round;stroke-miterlimit:10;" x1="332.298" y1="188.234" x2="332.298" y2="207.638"/>
			
				<line style="fill:#FFF3EA;stroke:#FFF3EA;stroke-width:1.1783;stroke-linecap:round;stroke-linejoin:round;stroke-miterlimit:10;" x1="342" y1="197.936" x2="322.596" y2="197.936"/>
			
				<line style="fill:#FFF3EA;stroke:#FFF3EA;stroke-width:1.1783;stroke-linecap:round;stroke-linejoin:round;stroke-miterlimit:10;" x1="337.362" y1="203.126" x2="326.732" y2="192.295"/>
			
				<line style="fill:#FFF3EA;stroke:#FFF3EA;stroke-width:1.1783;stroke-linecap:round;stroke-linejoin:round;stroke-miterlimit:10;" x1="337.663" y1="192.797" x2="326.833" y2="203.426"/>
		</g>
		<g>
			
				<line style="fill:#FFF3EA;stroke:#FFF3EA;stroke-width:1.1783;stroke-linecap:round;stroke-linejoin:round;stroke-miterlimit:10;" x1="577.404" y1="53.425" x2="577.404" y2="72.83"/>
			
				<line style="fill:#FFF3EA;stroke:#FFF3EA;stroke-width:1.1783;stroke-linecap:round;stroke-linejoin:round;stroke-miterlimit:10;" x1="587.106" y1="63.128" x2="567.702" y2="63.128"/>
			
				<line style="fill:#FFF3EA;stroke:#FFF3EA;stroke-width:1.1783;stroke-linecap:round;stroke-linejoin:round;stroke-miterlimit:10;" x1="582.468" y1="68.317" x2="571.839" y2="57.487"/>
			
				<line style="fill:#FFF3EA;stroke:#FFF3EA;stroke-width:1.1783;stroke-linecap:round;stroke-linejoin:round;stroke-miterlimit:10;" x1="582.769" y1="57.988" x2="571.939" y2="68.618"/>
		</g>
		<g>
			
				<line style="fill:#FFF3EA;stroke:#FFF3EA;stroke-width:1.1783;stroke-linecap:round;stroke-linejoin:round;stroke-miterlimit:10;" x1="264.894" y1="17.17" x2="264.894" y2="36.575"/>
			
				<line style="fill:#FFF3EA;stroke:#FFF3EA;stroke-width:1.1783;stroke-linecap:round;stroke-linejoin:round;stroke-miterlimit:10;" x1="274.596" y1="26.872" x2="255.191" y2="26.872"/>
			
				<line style="fill:#FFF3EA;stroke:#FFF3EA;stroke-width:1.1783;stroke-linecap:round;stroke-linejoin:round;stroke-miterlimit:10;" x1="269.958" y1="32.062" x2="259.328" y2="21.232"/>
			
				<line style="fill:#FFF3EA;stroke:#FFF3EA;stroke-width:1.1783;stroke-linecap:round;stroke-linejoin:round;stroke-miterlimit:10;" x1="270.259" y1="21.733" x2="259.428" y2="32.363"/>
		</g>
	</g>
</g>
</svg>
