<?xml version="1.0" encoding="utf-8"?>
<!-- Generator: Adobe Illustrator 27.5.0, SVG Export Plug-In . SVG Version: 6.00 Build 0)  -->
<svg version="1.1" xmlns="http://www.w3.org/2000/svg" xmlns:xlink="http://www.w3.org/1999/xlink" x="0px" y="0px"
	 viewBox="0 0 450 450" style="enable-background:new 0 0 450 450;" xml:space="preserve">
<g id="Layer_50">
	<rect style="fill:#f4c6e0;" width="450" height="450"/>
</g>
<g id="Layer_7">
	<g>
	</g>
	<g>
		<path style="fill:#472F12;" d="M416.261,326.11c-0.037-0.006-0.025-0.025-0.055-0.03l-12.077-6.559l33.761-44.305L274.202,171.72
			l-24.643-1.742l-0.599,0.255l-2.045-1.223l-42.953,31.581l2.143,1.148l-4.355,0.495l2.213-1.642l-8.113-4.421
			c0.359-0.703,0.731-1.42,1.071-2.142c0.458-0.927,0.905-1.844,1.342-2.753c0.871-3.843,3.078-7.472-1.946-10.074
			c1.234-0.098,2.409-0.276,3.468-0.595c0.409-0.089,0.782-0.219,1.151-0.353c-2.613-0.97-2.361-2.615-1.053-4.377
			c3.057-1.873,5.022-3.824,6.422-5.989c0.224-0.356,0.423-0.711,0.626-1.077c0.854-0.072,1.7-0.16,2.547-0.256
			c1.388-1.211,2.367-2.494,2.879-3.748c0.439-0.936,0.556-1.88,0.313-2.841c0.086-0.426,0.086-0.853-0.04-1.28
			c0.004-0.031-0.018-0.051-0.027-0.088c-0.657-1.234-1.768-2.441-2.658-3.127c-2.946-2.585-9.825-4.517-15.046-5.817
			c-1.915-0.495-3.944-0.927-6.01-1.278c0,0,0,0-0.006-0.002c-0.318-0.051-0.641-0.103-0.957-0.153
			c-7.14-1.028-16.066,0.451-22.793,2.768c-0.187-0.107-0.386-0.204-0.602-0.296c-1.201-0.516-2.778-0.846-4.5-1.034
			c-3.813-0.406-8.343-0.106-11.098,0.427c-8.334,1.46-15.879,5.578-18.172,9.82c-1.532,3.25,0.197,6.74-2.452,9.801
			c-1.556,1.741-6.068,3.57-9.979,3.445c1.655,0.279,3.468,0.423,5.181,0.371c-2.087,1.086-5.47,0.991-8.398,1.136
			c7.249,3.367,27.478,1.427,33.008-3.705c0.405-0.375,0.725-0.764,0.957-1.167c0.468,0.663,1.059,1.329,1.821,1.992
			c0.93,0.752,2.213,1.385,3.416,2.036c0.54,0.285,1.059,0.589,1.529,0.899c-0.016,0.021-0.037,0.04-0.047,0.058
			c-0.239,0.298-0.47,0.602-0.721,0.897c-0.132,0.003-0.277,0.03-0.452,0.051c-0.07,0.012-0.24,0.04-0.495,0.058
			c-3.017,0.316-17.52,1.67-22.726,2.966c-3.523,0.282-6.105,4.091-8.349,6.762c-2.474,2.858-3.888,6.648-5.174,10.715
			l-70.209,6.893c-0.029-0.002-0.044,0.013-0.08,0.01c-0.552,0.052-1.053,0.117-1.49,0.215c-6.147,1.052-3.342,4.189-3.342,4.189
			l-31.771,41.647l19.583,11.688c0,0,10.265-1.09,25.05-2.667l-0.253,0.331l198.688,113.27l5.06,10.51l21.32,12.299l95.172-23.143
			l31.951-41.876l6.39-0.718c0,0,4.471-2.429,2.999-4.208C416.797,326.464,416.559,326.295,416.261,326.11z M257.05,330.163
			l1.605-0.16c-0.554,0.052-1.062,0.123-1.497,0.216L257.05,330.163z"/>
	</g>
</g>
<g id="Layer_7_copy">
	<g>
		<g id="XMLID_3_">
			<g>
				<path style="fill:#913005;" d="M135.512,115.86l-2.207,8.833c-21.087,12.854-97.1,58.971-97.1,58.971h-0.031
					c-0.73-2.137-0.556-6.09,0.708-7.938L135.512,115.86z"/>
				<path style="fill:#FA621E;" d="M36.205,176.138l0.677-0.412c-1.264,1.848-1.439,5.801-0.708,7.938l-23.202-14.025
					c0,0-4.153-4.181,0.113-7.471L36.205,176.138z"/>
				<path style="fill:#FA621E;" d="M280.881,316.097l0.704-0.443c-1.287,1.817-1.465,5.795-0.733,7.968l-8.559-5.174l6.357-3.702
					L280.881,316.097z"/>
				<path style="fill:#FA621E;" d="M278.65,314.745l-6.357,3.702l-14.65-8.859c0,0-4.116-4.173,0.119-7.464L278.65,314.745z"/>
				<path style="fill:#913005;" d="M364.041,265.622l-2.061,8.792l-81.099,49.207h-0.029c-0.732-2.173-0.554-6.15,0.733-7.968
					L364.041,265.622z"/>
				<path style="fill:#913005;" d="M383.221,253.995c2.265,2.413,0.173,7.416,0.173,7.416l-4.672,2.824l-16.742,10.179l2.061-8.792
					L383.221,253.995z"/>
				<polygon style="fill:#E3953A;" points="36.205,183.664 36.205,183.725 35.735,256.643 12.972,243.498 12.972,169.638 
					36.174,183.664 				"/>
				<path style="fill:#C64207;" d="M36.882,175.726l-0.677,0.412l-23.12-13.971c0.288-0.27,0.648-0.503,1.056-0.739
					c0.034,0,0.034-0.031,0.061-0.031l103.042-58.625l19.031,9.915l-0.764,3.174L36.882,175.726z"/>
				<path style="fill:#C64207;" d="M383.221,253.995l-19.18,11.627l4.591-19.416l13.647,7.083c0.024,0,0.024,0.031,0.056,0.031
					C382.688,253.528,382.98,253.731,383.221,253.995z"/>
				<polygon style="fill:#C64207;" points="343.626,253.148 336.655,281.271 315.593,269.091 				"/>
				<path style="fill:#C64207;" d="M336.655,281.271l-58.005,33.475l-20.889-12.621c0.291-0.265,0.649-0.504,1.063-0.743
					c0.023,0,0.023-0.019,0.061-0.019l56.708-32.272L336.655,281.271z"/>
				<polygon style="fill:#C64207;" points="281.585,315.653 280.881,316.097 278.65,314.745 336.655,281.271 343.626,253.148 
					361.923,242.731 368.632,246.206 364.041,265.622 				"/>
				<polygon style="fill:#9E6729;" points="54.117,245.795 54.117,235.382 257.643,353.155 257.643,365.955 54.117,246.377 				"/>
				<path style="fill:#BF7D31;" d="M133.305,124.693l-8.438,34.294l-79.424,45.861v25.501l8.674,5.033v10.413
					c-10.85,6.415-18.382,10.848-18.382,10.848l0.47-72.918v-0.061C36.205,183.664,112.218,137.547,133.305,124.693z"/>
				<polygon style="fill:#DBAB89;" points="386.13,171.988 368.632,246.206 361.923,242.731 343.626,253.148 362.833,175.432 
					383.923,170.693 				"/>
				<polygon style="fill:#C29779;" points="383.923,170.693 362.833,175.432 363.128,174.283 153.719,53.032 154.041,52.473 
					174.784,48.648 				"/>
				<polygon style="fill:#BF7D31;" points="361.979,274.414 378.722,264.235 378.722,338.508 280.438,396.605 280.881,323.684 
					280.881,323.621 				"/>
				<polygon style="fill:#EFBA95;" points="362.833,175.432 343.626,253.148 315.593,269.091 124.867,158.987 133.305,124.693 
					135.512,115.86 138.688,113.92 136.276,112.687 151.337,51.653 153.719,53.032 363.128,174.283 				"/>
				<path style="fill:#DBAB89;" d="M315.593,269.091l-56.708,32.272c-0.037,0-0.037,0.019-0.061,0.019l-1.182,0.682l0.119,0.061
					c-4.235,3.291-0.119,7.464-0.119,7.464v17.3l-0.408,0.233L45.443,204.848l79.424-45.861L315.593,269.091z"/>
				<polygon style="fill:#E3953A;" points="280.881,323.621 280.881,323.684 280.438,396.605 257.643,383.457 257.643,365.955 
					257.643,353.155 257.643,326.888 272.293,318.447 280.852,323.621 				"/>
				<polygon style="fill:#E3953A;" points="257.643,309.588 272.293,318.447 257.643,326.888 				"/>
				<polygon style="fill:#FFC69F;" points="54.117,235.382 45.443,230.349 45.443,204.848 257.234,327.121 257.643,326.888 
					257.643,353.155 				"/>
			</g>
		</g>
		<g id="XMLID_2_">
			<g>
				<path style="fill:#871404;" d="M74.836,84.146c-1.295,9.529-16.269,17.964-24.111,14.605c2.256-1.004,5.013-1.759,6.017-4.015
					c-1.336,0.534-2.874,0.782-4.365,0.789c3.197-0.84,5.687-4.925,5.871-8.06c0.249-5.517-3.257-10.533-4.015-16.052
					c-0.751-7.273,2.759-15.748,8.528-20.261c1.878-1.567,5.313-3.246,8.606-3.622c-1.172,1.639-2.121,3.511-2.796,5.623
					c-1.903,5.837-1.394,12.854,0.393,18.618c0.231,0.677,0.517,1.421,0.817,2.169c0.203,2.485,0.817,4.632,1.872,6.471
					C72.457,81.888,73.528,83.137,74.836,84.146z"/>
				<path style="fill:#FBCCBD;" d="M95.922,84.502c2.183,0.485,4.485,0.398,6.59-0.452c0.121-0.059,0.188-0.052,0.267-0.09
					c0.047,0.444,0.003,0.931,0.053,1.399c0.013,0.328,0.031,0.604,0.07,0.936c0.035,0.864,0.121,1.756,0.197,2.62l0.142-0.012
					c0.003,0.209-0.047,0.417-0.083,0.649c-0.233,0.044-0.469,0.069-0.752,0.089c-0.07,0.04-0.142,0.012-0.285,0.046
					c-2.259,0.27-4.506-0.261-6.477-1.285c-0.485-0.231-0.927-0.508-1.366-0.8c0-0.028,0-0.028,0.006-0.072
					c0.027-0.275,0.013-0.602-0.006-0.903c0.006-0.049,0.012-0.121,0.012-0.14c-0.012-0.095-0.025-0.192-0.018-0.301
					c0.018-0.015,0.024-0.019,0.027-0.022c-0.002-0.009-0.009-0.013-0.021-0.028c-0.076-0.679-0.031-1.377,0.033-2.06h0.019
					c0.025,0.003,0.067,0.03,0.067,0.03C94.891,84.268,95.394,84.405,95.922,84.502z"/>
				<path style="fill:#2F8AA1;" d="M82.57,90.123c-0.068,1.18,0.024,2.443,0.203,3.734c0,0,0,0.027-0.006,0.049
					c0.07,2.189,0.353,4.42,0.971,6.48c0.06,0.144,0.113,0.314,0.146,0.454c0.503,1.627,1.262,3.186,2.291,4.536
					c1.964,2.558,4.389,4.453,6.92,6.223c0,0,0.022,0.007,0.022,0.027c0.472,0.462,0.933,0.948,1.39,1.454
					c0.086-0.108,0.191-0.19,0.289-0.295c1.856,1.263,3.71,2.506,5.482,3.924c1.279,1.004,2.477,2.119,3.56,3.38
					c3.11,3.542,5.872,6.823,7.941,10.436c2.029,3.467,3.352,7.184,3.822,11.735c0.027,0.074,0.021,0.145,0.037,0.218
					c0.019,3.229-0.369,6.326-0.903,9.368c0,0-0.037,0.021-0.037,0.068c-0.556,3.202-1.286,6.338-1.848,9.53
					c-0.261,1.565-0.298,2.968-0.126,4.359c0.144,1.153,0.482,2.277,0.871,3.333c0.267,0.648,0.599,1.311,1.041,1.959
					c1.445,2.457,3.674,4.525,6.249,6.232c-1.521,0.896-3.149,1.609-4.699,2.063c-2.974-2.205-5.874-4.5-8.548-6.396
					c-0.263-0.191-0.561-0.424-0.786-0.608c-1.015-0.792-1.986-1.579-2.992-2.469c-0.24-0.206-0.479-0.417-0.712-0.596
					c-0.191-0.184-0.388-0.34-0.583-0.522c-1.579-1.424-3.18-2.968-4.832-4.401c-3.416-2.971-6.925-5.672-10.706-6.955
					c-0.368-1.032-0.641-2.054-0.963-3.156l0.145-0.055c-0.136-0.519-0.316-1.074-0.423-1.618c-0.602-2.499-0.835-5.027-1.035-7.532
					c-0.144-1.175-0.292-2.375-0.405-3.585c-0.93-8.691-1.815-19.271-3.89-27.157c-0.239-1.647-0.863-3.427-1.731-5.063
					c-0.019-0.05-0.019-0.075-0.037-0.075c-0.08-0.146-0.178-0.315-0.254-0.488c-0.63-1.242-1.482-3.065-2.314-3.91
					c-2.073-2.142-3.232-2.651-6.828-3.683l-2.492-0.236c-0.055-0.006-0.11-0.009-0.156-0.016c-0.279-0.023-0.414-0.038-0.414-0.038
					C69.6,97.412,80.354,91.428,82.57,90.123z"/>
				<path style="fill:#871404;" d="M72.543,55.366c-2.68,9.383-3.968,19.168,2.345,26.688c0.058,0.7,0.039,1.396-0.051,2.092
					c-1.308-1.009-2.379-2.258-3.184-3.734c-1.055-1.838-1.669-3.986-1.872-6.471c-0.045-0.262-0.045-0.495-0.077-0.748
					c-0.03-2.073-0.117-4.683,0.049-7.155c0.027-0.55,0.031-1.084,0.11-1.632c0.016-0.188,0.053-0.367,0.065-0.53
					c0.052-0.511,0.148-1.01,0.267-1.559c0.037-0.179,0.055-0.366,0.101-0.545c0.096-0.343,0.154-0.704,0.209-1.024
					c0.117-0.27,0.16-0.55,0.221-0.844c0.979-4.007,2.6-8.275,4.864-11.947c0.228,0.087,0.449,0.185,0.657,0.301
					C74.54,50.59,73.246,53.058,72.543,55.366z"/>
				<path style="fill:#4D5857;" d="M174.296,205.315l-15.656,12.283l-6.375,4.991c-1.019-0.056-2.087-0.122-3.232-0.202
					l-0.718-0.915l2.98-2.338l2.219-1.793l24.794-19.387c0.801,0.626,1.715,1.332,2.704,2.087L174.296,205.315z"/>
				<path style="fill:#FBCCBD;" d="M94.298,86.165c-0.002,0.003-0.009,0.007-0.027,0.022l0,0c-0.007-0.019-0.01-0.035,0.006-0.05
					C94.29,86.152,94.296,86.155,94.298,86.165z"/>
				<path style="fill:#B41B06;" d="M87.678,73.34c0.065,0.011,0.129,0.016,0.201,0.046c-0.121-0.238-0.136-0.501-0.158-0.756
					C87.694,72.878,87.65,73.112,87.678,73.34z M91.506,63.902c0.062,0.145,0.113,0.291,0.144,0.431
					c-0.712,3.465-2.106,9.347-1.811,14.182c-0.061,0.162-0.156,0.338-0.236,0.493c-0.115,0.247-0.227,0.468-0.323,0.668
					c-0.412,0.703-0.819,1.34-1.313,1.942c-0.563-0.215-1.127-0.433-1.655-0.712c-0.304,0.743-0.746,1.51-1.227,2.256
					c-0.632,0.958-1.431,1.582-2.053,2.551c-0.237,0.253-0.37,0.495-0.52,0.76c0,0,0,0-0.006,0.025
					c-0.193,0.167-0.353,0.364-0.509,0.577c-0.16-0.026-0.322-0.049-0.476-0.086c-1.359-0.702-2.765-1.355-3.966-2.28
					c-1.012-0.849-1.893-1.736-2.667-2.654c-6.313-7.52-5.025-17.305-2.345-26.688c0.703-2.309,1.997-4.776,3.704-7.109
					c3.97-5.425,10.191-10.13,16.523-10.413c0.285-0.003,0.573-0.009,0.859-0.009c0.006,0,0.006,0,0.006,0
					c1.866,0,3.745,0.137,5.581,0.403c4.956,0.653,11.629,1.857,15.564,5.129c1.129,0.846,2.747,2.442,4.024,4.214
					c0.037,0.052,0.061,0.075,0.08,0.124c0.358,0.633,0.62,1.308,0.809,2.003c0.774,1.438,1.258,2.954,1.479,4.546
					c0.356,2.103,0.356,4.381-0.016,6.646c-0.621,0.381-1.24,0.741-1.879,1.082c-0.144,0.077-0.343,0.172-0.479,0.229
					c-0.322,0.206-0.616,0.387-0.957,0.515c-0.675,0.308-1.339,0.618-2.036,0.859c-0.693,0.278-1.436,0.513-2.197,0.716
					c-0.006,0.028-0.074,0.021-0.074,0.021c-2.836,0.801-5.74,1.226-8.597,1.285c0.825-0.924,1.418-2.054,2.084-3.154
					c-5.055,1.133-10.261,1.153-15.282,1.423c-0.074-0.005-0.16,0.01-0.23,0.007L91.506,63.902z M91.278,63.833
					c-0.018,0-0.064-0.006-0.107-0.009c-0.644-0.08-1.264-0.188-1.771-0.238c-0.037,0.14-0.049,0.3-0.15,0.408
					C89.977,63.941,90.606,63.91,91.278,63.833z M84.308,72.051c0.079-0.01,0.12-0.01,0.188-0.022
					c-0.145-0.205-0.234-0.44-0.329-0.689C84.188,71.601,84.216,71.838,84.308,72.051z"/>
				<path style="fill:#359BB5;" d="M97.733,164.398c1.652,1.434,3.253,2.978,4.832,4.401c0.195,0.182,0.392,0.338,0.583,0.522
					c-3.809,0.246-9.991,7.908-9.687,12.144c-0.439-0.251-0.859-0.497-1.279-0.749c-2.441-1.461-4.733-3.045-7.058-4.77
					c-1.098-0.847-2.184-1.712-3.28-2.634c-0.507-0.324-1.047-0.73-1.614-1.105c-0.433-0.319-0.851-0.632-1.348-0.983
					c-0.585-0.455-1.209-0.921-1.685-1.455c-0.38-0.298-0.66-0.602-0.951-0.909c-0.611-1.24-1.176-2.547-1.749-3.929
					c-2.355-5.773-4.132-12.581-5.55-19.567c-2.191-11.495-5.654-23.181-5.266-31.692c0.165-4.794-0.09-11.46,2.55-12.84
					c0,0,0.135,0.015,0.414,0.038c0.046,0.006,0.101,0.009,0.156,0.016c1.698,0.175,6.827,1.01,9.187,4.606
					c0.636,0.983,1.729,2.157,2.447,3.223c0.076,0.173,0.175,0.342,0.254,0.488c0.019,0,0.019,0.025,0.037,0.075
					c0.147,0.361,0.322,0.754,0.47,1.159c0.076,0.169,0.153,0.359,0.201,0.552c0.464,1.535,0.78,3.326,0.955,4.478
					c2.073,7.867,3.018,17.574,3.995,26.031c0.113,1.21,0.261,2.409,0.405,3.585c0.199,2.505,0.433,5.034,1.035,7.532
					c0.107,0.544,0.288,1.099,0.423,1.618l-0.145,0.055c0.323,1.102,0.596,2.124,0.963,3.156
					C90.808,158.726,94.317,161.428,97.733,164.398z"/>
				<path style="fill:#4D5857;" d="M115.207,209.152c0.043,0,0.062,0.031,0.108,0.037c0.613,0.171,1.203,0.318,1.698,0.485
					l11.607,5.218l0.053,0.006l14.508,6.525l3.299,1.486l1.833-1.437l0.718,0.915c1.145,0.08,2.213,0.146,3.232,0.202l-0.616,0.486
					l-0.78,0.62l-2.484,1.934l-1.527,1.196l-6.687-2.996l-1.891-0.853l-29.063-13.083l-0.586-0.238
					c-0.027-0.215-0.027-0.404-0.064-0.589c-0.144-0.878-0.292-1.773-0.102-2.615c-0.015-0.049-0.015-0.067-0.009-0.117
					c0.064-0.019,0.064-0.019,0.064-0.019c0.538,0.289,3.374,1.462,6.597,2.824C115.133,209.121,115.182,209.128,115.207,209.152z"
					/>
				<path style="fill:#9A1503;" d="M289.468,244.953c1.43,5.709-25.944,16.151-35.78,16.526c-3.241-1.413-5.867-3.505-8.629-5.63
					c9.981-0.558,31.81-6.477,29.37-13.793C279.714,241.43,288.662,240.913,289.468,244.953z"/>
				<path style="fill:#9A1503;" d="M270.411,266.855c5.017,1.671,18.456,7.245,8.239,13.487
					c-9.173,5.599-31.314-2.785-40.004-12.148c-0.467-0.693-1.732-3.149-2.803-4.819c0.755,0.424,1.505,0.853,2.244,1.278
					l-0.113,0.202c4.518,4.341,11.371,7.52,17.554,8.858c6.044,1.473,18.14,1.024,13.26-7.393
					C269.367,266.513,269.907,266.691,270.411,266.855z"/>
				<path style="fill:#FBCCBD;" d="M241.737,253.419c-3.745-0.571-7.251-1.123-10.648-1.72c-3.651-0.638-7.167-1.325-10.714-2.153
					c-4.528-5.943,0.598-14.477,5.592-18.516c6.341,3.887,12.665,7.778,19.045,11.572c0.829,0.73,1.784,1.276,2.827,1.681
					c6.897,2.659,17.695-1,23.576-1.835c0.685-0.099,1.737-0.252,3.014-0.392c2.44,7.316-19.389,13.235-29.37,13.793
					C243.987,255.027,242.901,254.204,241.737,253.419z"/>
				<path style="fill:#FBBEAB;" d="M245.059,255.85c2.762,2.125,5.388,4.217,8.629,5.63c-0.548,0.018-1.046,0.005-1.475-0.037
					c0.957,0.159,2.214,0.453,3.634,0.841c3.93,1.056,9.141,2.768,12.941,4.038c4.88,8.417-7.216,8.865-13.26,7.393
					c-6.183-1.339-13.036-4.518-17.554-8.858l0.113-0.202c-0.739-0.425-1.489-0.854-2.244-1.278
					c-3.472-1.982-7.063-3.978-10.758-6.028c0.989-2.16,3.944-4.161,5.952-5.364l0.052-0.283c3.397,0.597,6.903,1.148,10.648,1.72
					C242.901,254.204,243.987,255.027,245.059,255.85z"/>
				<path style="fill:#A11805;" d="M220.374,249.546c3.548,0.828,7.063,1.516,10.714,2.153l-0.052,0.283
					c-2.008,1.203-4.963,3.204-5.952,5.364c-7.652-4.26-15.746-8.748-24.214-13.751c0.15,0.05,0.298,0.099,0.444,0.147
					C208.234,246.34,214.339,248.139,220.374,249.546z"/>
				<path style="fill:#B41B06;" d="M200.872,243.596c-8.396-2.829-17.364-2.264-34.283-19.706
					c-4.414-0.828-8.465-0.957-14.325-1.301l6.375-4.991l15.656-12.283c8.506,0.288,15.449,4.843,22.386,8.544
					c2.062,1.123,4.119,2.266,6.157,3.42c7.827,4.426,15.494,9.079,23.127,13.751c-4.994,4.039-10.12,12.572-5.592,18.516
					c-6.035-1.407-12.141-3.206-19.059-5.803C201.169,243.694,201.022,243.645,200.872,243.596z"/>
				<polygon style="fill:#55605F;" points="178.308,197.955 153.514,217.341 151.294,219.134 148.314,221.472 146.481,222.909 
					147.805,216.954 150.143,206.905 150.852,203.835 151.313,201.877 151.54,200.668 152.374,197.218 154.655,187.046 
					155.448,183.565 155.834,181.859 156.074,180.907 156.725,178.132 157.952,177.181 195.07,149.282 205.491,141.409 
					206.021,141.001 200.463,162.336 194.524,185.266 181.331,195.591 				"/>
				<path style="fill:#6D7B79;" d="M202.519,140.436c0,0,3.567-1.179,2.972,0.973l-10.421,7.872l-37.119,27.899l-1.227,0.951
					l-0.651,2.775l-0.24,0.953l-0.386,1.705l-0.793,3.481l-2.281,10.172l-0.835,3.45l-0.227,1.209l-0.461,1.958l-0.708,3.069
					l-2.338,10.049l-1.324,5.956l-3.299-1.486l1.047-4.689l0.63-2.781l1.47-6.243l0.665-2.886l0.427-2.074l0.269-1.185l0.053-0.252
					l0.046-0.018l1.27-5.648l0.215-0.995l1.074-4.801l0.83-3.622l0.156-0.706l0.66-2.817l0.243-1.044l0.31-1.369l0.067-0.153
					l0.444-2.02l0.164-0.596l2.203-1.694l4.632-3.444l2.17-1.656l31.42-23.668L202.519,140.436z"/>
				<path style="fill:#A11805;" d="M202.839,217.28c-2.039-1.154-4.095-2.297-6.157-3.42c-6.936-3.702-13.879-8.256-22.386-8.544
					l6.716-5.273C187.397,204.934,197.078,212.222,202.839,217.28z"/>
				<path style="fill:#4D5857;" d="M194.524,185.266c1.067,1.491,0.772,3.572,0.772,3.572l-11.031,8.656l-3.253,2.548
					c-0.989-0.755-1.903-1.461-2.704-2.087l3.023-2.363L194.524,185.266z"/>
				<path style="fill:#FBCCBD;" d="M155.425,175.83l-2.203,1.694l-0.164,0.596l-0.444,2.02c-0.234-0.042-0.372-0.055-0.556-0.08
					h-0.021c-1.246-0.134-2.244-0.116-2.67,0.221c0.69,0.344,1.737,0.81,2.87,1.381l-0.243,1.044l-0.66,2.817
					c-0.089-0.024-0.148-0.105-0.221-0.135c-1.056-0.516-2.066-0.977-3.021-1.486c-0.064-0.012-0.107-0.062-0.171-0.086
					c-1.301-0.706-2.622-1.529-3.684-2.602l0.049-0.043c-0.688-0.792-1.304-1.651-2.019-2.486c0.322-0.897,0.717-1.676,1.222-2.327
					c0.938-1.302,2.108-2.247,3.416-3.235c0.275-0.202,0.596-0.454,0.896-0.688c0.025-0.013,0.071,0.012,0.147,0.019
					c2.472,0.816,4.995,2.167,7.103,3.198C155.186,175.72,155.3,175.77,155.425,175.83z"/>
				<path style="fill:#F58A75;" d="M152.614,180.14l-0.067,0.153c-0.15-0.104-0.286-0.141-0.488-0.233
					C152.243,180.085,152.38,180.097,152.614,180.14z"/>
				<path style="fill:#001823;" d="M152.547,180.293l-0.31,1.369c-1.133-0.571-2.18-1.038-2.87-1.381
					c0.427-0.337,1.424-0.356,2.67-0.221h0.021C152.261,180.152,152.396,180.189,152.547,180.293z"/>
				<path style="fill:#303A3A;" d="M151.334,185.523l-0.156,0.706l-0.83,3.622c-0.54,0.369-1.135,0.725-1.743,1.044
					c-1.053,0.552-2.195,1.075-3.201,1.676c-2.56-1.24-5.372-2.413-8.254-3.401c3.503-1.436,7.087-4.493,10.784-5.212
					c0.067-0.049,0.095-0.042,0.159-0.055c0.955,0.509,1.964,0.97,3.021,1.486C151.186,185.419,151.245,185.499,151.334,185.523z"/>
				<path style="fill:#4D5857;" d="M150.348,189.851l-1.074,4.801c-0.113-0.062-0.215-0.166-0.331-0.221
					c-0.52-0.369-1.112-0.725-1.739-1.025c-0.527-0.325-1.156-0.565-1.801-0.835c1.006-0.602,2.148-1.124,3.201-1.676
					C149.213,190.576,149.809,190.22,150.348,189.851z"/>
				<path style="fill:#FBCCBD;" d="M149.274,194.652l-0.215,0.995l-1.27,5.648l-0.046,0.018c-2.64-1.872-5.438-2.67-8.113-4.174
					l-0.055,0.067c2.849,1.916,5.077,4.838,7.419,7.618l-0.665,2.886c-1.673-1.044-2.699-3.439-4.39-5.2
					c-1.102-1.148-2.465-1.712-3.861-2.155c-0.747-0.252-1.556-0.491-2.318-0.84l-0.043,0.018c-0.636-0.222-1.281-0.516-1.919-0.897
					c-2.54-0.657-4.613-1.805-6.623-3.413c-0.415-0.301-0.801-0.632-1.216-0.945c-0.094-2.922,0.199-5.837,2.606-7.471l0.028-0.025
					l0.043,0.006c2.815,0.521,5.685,1.369,8.514,2.382c2.882,0.988,5.694,2.161,8.254,3.401c0.645,0.27,1.273,0.509,1.801,0.835
					c0.626,0.301,1.219,0.657,1.739,1.025C149.059,194.486,149.162,194.59,149.274,194.652z"/>
				<path style="fill:#A11805;" d="M148.093,183.903c-0.064,0.013-0.092,0.006-0.159,0.055c-3.696,0.719-7.281,3.776-10.784,5.212
					c-2.829-1.013-5.699-1.86-8.514-2.382l-0.043-0.006l-0.028,0.025l-0.013-0.049c-3.327-1.246-6.765-3.4-10.211-5.789
					c1.267-0.909,2.554-1.946,3.244-3.162c-0.242-0.159-0.479-0.294-0.7-0.479c1.131-0.663,2.194-1.449,3.211-2.296
					c0.484-0.012,0.96-0.264,1.603-0.945c0.485-0.491,1.078-1.596,1.534-2.715c0.129-0.202,0.242-0.415,0.335-0.62
					c3.235,0.929,6.726,2.07,10.384,3.458c0.845,0.896,1.691,1.786,2.517,2.652l0.022,0.024c0.694,0.479,1.197,1.093,1.761,1.725
					c0,0.024,0,0.024,0,0.024c0,0.049,0.016,0.049,0.016,0.049c0.715,0.835,1.331,1.694,2.019,2.486l-0.049,0.043
					c1.063,1.074,2.383,1.897,3.684,2.602C147.985,183.841,148.028,183.891,148.093,183.903z"/>
				<path style="fill:#FBCCBD;" d="M147.831,172.35c0,0.048-0.031,0.085-0.031,0.085c-0.3,0.233-0.62,0.485-0.896,0.688
					c-1.308,0.988-2.478,1.934-3.416,3.235c-0.504,0.651-0.9,1.43-1.222,2.327c0,0-0.016,0-0.016-0.049c0,0,0,0,0-0.024
					c-0.564-0.632-1.067-1.246-1.761-1.725l-0.022-0.024c-0.825-0.866-1.672-1.756-2.517-2.652
					c-3.496-3.833-7.148-8.237-10.3-12.488c2.213-3.251,5.958-6.105,9.622-6.504c0.386,0.825,0.78,1.587,1.203,2.226
					c2.763,4.49,5.065,9.862,8.224,13.64C147.056,171.54,147.427,171.969,147.831,172.35z"/>
				<path style="fill:#4D5857;" d="M147.743,201.313l-0.053,0.252l-0.269,1.185l-0.427,2.074c-2.342-2.78-4.57-5.702-7.419-7.618
					l0.055-0.067C142.305,198.642,145.103,199.44,147.743,201.313z"/>
				<path style="fill:#4D5857;" d="M146.329,207.71l-1.47,6.243c-0.172-0.08-0.384-0.147-0.63-0.222c-0.043,0-0.043,0-0.043,0
					c-3.194-1.854-14.358-7.15-17.786-8.569c2.977-1.688,6.114-3.444,9.318-5.629l0.043-0.018c0.762,0.349,1.571,0.589,2.318,0.84
					c1.396,0.442,2.759,1.007,3.861,2.155C143.629,204.271,144.655,206.666,146.329,207.71z"/>
				<path style="fill:#303A3A;" d="M144.858,213.952l-0.63,2.781l-1.047,4.689l-14.508-6.525l-0.053-0.006l-11.607-5.218
					c-0.495-0.167-1.085-0.314-1.698-0.485c-0.047-0.006-0.065-0.037-0.108-0.037c-0.025-0.024-0.074-0.031-0.091-0.013
					c-3.223-1.363-6.059-2.535-6.597-2.824c4.893-3.02,14.89-8.821,18.657-11.093c2.01,1.608,4.083,2.756,6.623,3.413
					c0.638,0.381,1.283,0.675,1.919,0.897c-3.205,2.185-6.342,3.941-9.318,5.629c3.428,1.418,14.592,6.715,17.786,8.569
					c0,0,0,0,0.043,0C144.475,213.805,144.686,213.872,144.858,213.952z"/>
				<path style="fill:#B41B06;" d="M109.216,209.894l29.063,13.083c-0.833-0.056-1.733-0.111-2.568-0.166
					c-2.268-0.123-4.549-0.289-6.74-0.448c-5.672-0.486-11.075-1.039-15.359-1.909c-0.918-0.154-1.896-0.363-2.836-0.546
					c-0.134-0.031-0.267-0.067-0.407-0.11c-0.342-1.002-0.786-1.996-1.244-2.996c-0.31-0.651-0.669-1.314-1.025-1.953
					c-1.821-3.352-4.086-6.489-6.71-9.294c0.751,0.51,1.568,0.964,2.338,1.344c0.694,0.338,1.394,0.731,2.149,1.166
					c0.376,0.221,0.7,0.437,1.071,0.657c0.509,0.308,1.016,0.589,1.507,0.841l0.175,0.092L109.216,209.894z"/>
				<path style="fill:#226475;" d="M130.46,142.471c3.136,2.176,4.822,8.432,6.813,12.747c-3.664,0.399-7.409,3.254-9.622,6.504
					c-4.169-5.593-7.526-10.949-8.73-14.455l-0.019-0.024c0.166-1.074,0.363-2.102,0.544-3.017l0.004-0.043
					c0.131-0.267,0.256-0.558,0.285-0.859c0.082,0.031,0.082,0.031,0.082,0.055c0.291-0.875,0.684-1.817,1.003-2.756
					c1.286-3.278,2.956-6.975,4.463-10.713c0.111-0.336,0.271-0.602,0.319-0.9c0.927-2.14,1.64-4.281,2.249-6.311
					C128.283,130.469,127.647,135.006,130.46,142.471z"/>
				<path style="fill:#28768A;" d="M128.894,113.336c0.218,1.599,0.092,3.425-0.177,5.281c-0.215,1.324-0.479,2.695-0.864,4.081
					c-0.61,2.03-1.322,4.171-2.249,6.311c-0.048,0.298-0.208,0.564-0.319,0.9c-1.507,3.739-3.177,7.436-4.463,10.713
					c-0.32,0.939-0.712,1.881-1.003,2.756c0-0.024,0-0.024-0.082-0.055c-0.029,0.301-0.154,0.592-0.285,0.859l-0.004,0.043
					c-0.181,0.915-0.378,1.943-0.544,3.017l0.019,0.024c-1.273,8.663-1.092,20.338,8.856,21.508
					c0.049,0.463-0.095,1.225-0.302,1.946c-0.066,0.227-0.158,0.427-0.242,0.651c-0.828,1.339-1.891,2.561-3.137,3.66
					c-0.546-0.018-1.148-0.417-2.124-0.877c-2.315-1.075-4.795-2.124-7.336-3.059c-0.442-0.648-0.773-1.311-1.041-1.959
					c-0.389-1.056-0.728-2.18-0.871-3.333c-0.172-1.391-0.136-2.794,0.126-4.359c0.562-3.192,1.292-6.329,1.848-9.53
					c0-0.046,0.037-0.068,0.037-0.068c0.534-3.042,0.921-6.139,0.903-9.368c-0.016-0.073-0.01-0.144-0.037-0.218
					c0.641-2.566,1.912-5.7,2.468-7.383c0.163-0.521,0.359-1.06,0.512-1.581c0.876-2.823,1.461-5.622,1.529-8.568
					c0.203-6.342-0.73-12.982-2.624-19.06c-0.016-0.118-0.071-0.264-0.102-0.359c-0.196-0.672-0.438-1.341-0.678-1.991
					c0.758-0.115,1.489-0.238,2.17-0.331c-2.676-2.388-3.582-7.123-5.432-10.195c-0.877-1.547-1.879-2.968-2.913-4.34
					c-0.556-1.01-1.166-1.921-1.86-2.706c0.024-0.046,0.074-0.109,0.11-0.175c0,0.008,0.005,0.016,0.021,0
					c2.244,0.347,4.828,0.294,7.167-0.372c0,0.022,0.022,0.049,0.09,0.078c1.77,2.654,3.038,5.654,3.388,8.426l-0.203,0.166
					c1.114,1.775,1.931,3.666,2.588,5.584c0.08,0.175,0.16,0.267,0.197,0.414c0.288,0.376,0.461,0.767,0.699,1.139
					c0.706,1.152,1.422,2.244,2.159,3.291c0.813,1.256,1.568,2.537,2.253,3.879c0.265,0.513,0.491,1,0.696,1.553
					C128.29,110.845,128.649,112.011,128.894,113.336z"/>
				<path style="fill:#FBCCBD;" d="M128.553,186.757l0.013,0.049c-2.407,1.633-2.7,4.549-2.606,7.471c0,0-0.041-0.031-0.059-0.061
					c-1.015-0.11-2.108-0.313-3.271-0.559c-4.559-0.964-9.761-2.892-14.795-5.009c-0.708-0.325-1.43-0.607-2.093-0.939
					c-0.156-0.067-0.313-0.129-0.466-0.208c-3.438-1.547-6.672-3.18-9.3-4.642c-0.863-0.454-1.704-0.92-2.515-1.393
					c-0.304-4.236,5.878-11.898,9.687-12.144c0.233,0.178,0.472,0.39,0.712,0.596c1.006,0.89,1.977,1.677,2.992,2.469
					c0.225,0.185,0.522,0.417,0.786,0.608c2.674,1.896,5.574,4.192,8.548,6.396c0.712,0.534,1.431,1.062,2.155,1.577
					C121.788,183.357,125.226,185.511,128.553,186.757z"/>
				<path style="fill:#12141A;" d="M127.475,170.721c0.022,0.006,0.074,0.009,0.092,0.031c-0.092,0.205-0.205,0.418-0.335,0.62
					C127.317,171.148,127.409,170.949,127.475,170.721z"/>
				<path style="fill:#226475;" d="M126.656,104.255c0.175,1.316,0.332,2.632,0.482,3.922c-0.684-1.342-1.439-2.622-2.253-3.879
					c-0.737-1.047-1.453-2.139-2.159-3.291c-0.238-0.372-0.411-0.763-0.699-1.139c-0.037-0.147-0.117-0.239-0.197-0.414
					c-0.657-1.918-1.474-3.809-2.588-5.584l0.203-0.166c-0.35-2.772-1.618-5.772-3.388-8.426c-0.068-0.028-0.09-0.055-0.09-0.078
					c0.835-0.221,1.648-0.519,2.385-0.933c5.598,2.75,6.05,9.04,7.694,15.307C126.251,101.123,126.454,102.676,126.656,104.255z"/>
				<path style="fill:#B41B06;" d="M127.233,171.372c-0.456,1.119-1.049,2.224-1.534,2.715c-0.642,0.681-1.118,0.933-1.603,0.945
					C125.342,173.933,126.405,172.711,127.233,171.372z"/>
				<path style="fill:#B41B06;" d="M125.959,194.277c0.415,0.313,0.801,0.645,1.216,0.945c-3.767,2.271-13.763,8.073-18.657,11.093
					c0,0,0,0-0.064,0.019c-0.006,0.049-0.08,0.043-0.055,0.092c0,0,0,0,0.064,0.024c-0.189,0.842-0.042,1.737,0.102,2.615
					c0.037,0.185,0.037,0.374,0.064,0.589l-0.175-0.092c-0.491-0.253-0.998-0.534-1.507-0.841c-0.372-0.22-0.696-0.436-1.071-0.657
					c0.006-0.043,0.006-0.074,0.058-0.153c-0.758-0.326-1.476-0.651-2.207-1.014c-0.77-0.38-1.587-0.834-2.338-1.344
					c-2.44-2.573-5.184-4.855-8.085-6.795c-0.088-0.098-0.197-0.184-0.283-0.282c-1.181-1.228-1.965-2.554-2.486-3.996
					c0-0.024,0-0.024-0.009-0.068c-0.322-1.522-0.534-3.057-0.546-4.611c0.366,0.056,0.709,0.136,1.052,0.167
					c0.028,0.006,0.043,0.006,0.068,0.012c1.391,0.338,2.705,0.436,3.994,0.35c3.665,0.251,6.888,0.3,10.334-0.817
					c0.768-0.208,1.564-0.503,2.406-0.865c5.034,2.118,10.236,4.046,14.795,5.009c1.163,0.246,2.256,0.448,3.271,0.559
					C125.919,194.247,125.959,194.277,125.959,194.277z"/>
				<path style="fill:#28768A;" d="M121.973,174.155c0.976,0.46,1.577,0.859,2.124,0.877c-1.017,0.847-2.08,1.633-3.211,2.296
					c-2.575-1.706-4.804-3.775-6.249-6.232C117.178,172.03,119.658,173.08,121.973,174.155z"/>
				<path style="fill:#B41B06;" d="M120.885,177.328c0.221,0.184,0.458,0.319,0.7,0.479c-0.69,1.215-1.977,2.253-3.244,3.162
					c-0.725-0.516-1.443-1.043-2.155-1.577C117.736,178.937,119.364,178.225,120.885,177.328z"/>
				<path style="fill:#9C1705;" d="M121.466,81.557c-0.212,0.307-0.427,0.613-0.703,0.863c-1.351-1.729-3.046-2.814-5.155-3.061
					c0.376-0.478,0.704-1.003,1.008-1.555c0.196-0.35,0.396-0.733,0.561-1.108c0.261-0.415,0.439-0.868,0.651-1.333
					c0.053-0.136,0.083-0.272,0.126-0.406C117.982,78.068,118.783,80.722,121.466,81.557z"/>
				<path style="fill:#28768A;" d="M117.485,105.67c1.894,6.078,2.827,12.718,2.624,19.06c-0.067,2.946-0.653,5.745-1.529,8.568
					c0.231-4.649,0.351-8.886-0.245-12.196c-0.934-5.873-4.193-10.985-7.812-15.74c-0.151-0.173-0.295-0.371-0.437-0.548
					l6.618-1.494c0.24,0.65,0.482,1.318,0.678,1.991C117.414,105.406,117.469,105.552,117.485,105.67z"/>
				<path style="fill:#9C1705;" d="M119.44,63.85c0.2,3.765-0.181,7.35-1.485,11.107C117.933,71.17,119.054,66.669,119.44,63.85z"/>
				<path style="fill:#9C1705;" d="M119.28,61.983c0.059,0.628,0.121,1.243,0.16,1.866c-0.386,2.819-1.507,7.32-1.485,11.107
					c-0.043,0.134-0.074,0.27-0.126,0.406c-0.212,0.465-0.39,0.918-0.651,1.333c-0.164,0.375-0.365,0.759-0.561,1.108
					c-0.304,0.551-0.632,1.077-1.008,1.555c-0.414-0.06-0.832-0.08-1.276-0.05c-0.771,0.296-1.339,0.196-2.01,0.181
					c0.768-1.482,1.492-3.02,2.106-4.609c0.141-0.287,0.251-0.652,0.371-0.962c0.663-1.891,1.063-3.898,1.071-6.013
					c-0.024-0.232,0.018-0.415-0.031-0.629c-0.039-1.376-0.11-2.542-0.03-3.691c0.697-0.241,1.361-0.551,2.036-0.859
					c0.34-0.128,0.635-0.309,0.957-0.515C118.937,62.155,119.136,62.06,119.28,61.983z"/>
				<path style="fill:#9C1705;" d="M115.609,79.359c2.109,0.246,3.804,1.331,5.155,3.061c-0.655,0.778-1.484,1.374-2.41,1.848
					c-0.737,0.414-1.55,0.712-2.385,0.933c-0.899-1.107-1.839-2.148-2.823-3.051C114.057,81.329,114.884,80.408,115.609,79.359z"/>
				<path style="fill:#2F8AA1;" d="M118.335,121.102c0.595,3.31,0.476,7.547,0.245,12.196c-0.152,0.521-0.349,1.06-0.512,1.581
					c-0.556,1.684-1.827,4.817-2.468,7.383c-0.47-4.551-1.792-8.269-3.822-11.735c0.186-1.985,0.254-3.929,0.052-5.922
					c-0.589-6.301-2.584-12.577-4.68-18.119c-0.08-0.236-0.176-0.459-0.271-0.673l3.207-0.997c0.142,0.177,0.286,0.374,0.437,0.548
					C114.142,110.117,117.402,115.229,118.335,121.102z"/>
				<path style="fill:#FABBA6;" d="M118.875,102.989c-0.681,0.093-1.412,0.216-2.17,0.331c-0.254-0.766-0.552-1.516-0.878-2.266
					c-1.212-2.926-2.854-8.423-5.297-12.6c1.034,1.372,2.037,2.793,2.913,4.34C115.293,95.866,116.199,100.601,118.875,102.989z"/>
				<path style="fill:#FABBA6;" d="M116.705,103.32l-6.618,1.494c-0.417-0.53-0.828-1.057-1.227-1.553l-0.021-0.287
					c-0.068,0.02-0.209,0.031-0.298,0.045c-0.359-1.942-1.188-4.25-2.057-5.887c1.222,0.675,2.351,1.43,3.34,2.311
					c1.639-5.858,0.874-9.279-1.808-12.877c0.181-0.213,0.341-0.433,0.525-0.667c0,0,0.003-0.029,0.021-0.021
					c0.642,0.855,1.305,1.699,1.968,2.578c2.443,4.177,4.085,9.674,5.297,12.6C116.153,101.804,116.451,102.555,116.705,103.32z"/>
				<path style="fill:#FBCCBD;" d="M115.839,67.277c0.049,0.214,0.007,0.397,0.031,0.629c-0.008,2.114-0.409,4.122-1.071,6.013
					c-0.12,0.31-0.23,0.675-0.371,0.962c-0.614,1.589-1.338,3.126-2.106,4.609c-0.047,0.02-0.113,0.015-0.162,0.011l-0.049,0.016
					c-0.437-0.04-0.928-0.016-1.572,0.155l-0.045-0.006c-0.096,0.043-0.168,0.059-0.283,0.09c-1.246,0.396-2.517,0.835-3.698,1.236
					c-0.439,0.703-1.01,1.326-1.708,1.834c-0.074,0.042-0.094,0.061-0.168,0.082c-0.497,0.44-1.092,0.776-1.857,1.054
					c-0.079,0.038-0.147,0.032-0.267,0.09c-2.104,0.85-4.407,0.937-6.59,0.452c-0.528-0.098-1.031-0.235-1.525-0.396
					c0,0-0.043-0.026-0.067-0.03h-0.019c0.117-0.988,0.277-2,0.314-2.902c0.365-3.149-0.669-4.222-1.053-7.046
					c-0.144-0.987-0.098-1.983,0.16-3.003c0.025-0.181,0.07-0.365,0.129-0.569c0.152-0.635,0.417-1.306,0.717-1.953
					c0.219-1.352,0.329-2.806,0.535-3.943c0.401,0.106,0.791,0.192,1.252,0.252c2.755,0.539,5.66,0.814,8.576,0.694
					c2.857-0.059,5.761-0.483,8.597-1.285c0,0,0.068,0.007,0.074-0.021c0.762-0.203,1.504-0.438,2.197-0.716
					C115.729,64.735,115.8,65.901,115.839,67.277z"/>
				<path style="fill:#9C1705;" d="M114.332,79.309c0.445-0.029,0.862-0.009,1.276,0.05c-0.725,1.048-1.552,1.969-2.463,2.79
					c-0.511-0.491-1.002-0.931-1.526-1.304c0.023-0.045,0.03-0.073,0.055-0.109c0.225-0.402,0.445-0.82,0.648-1.247
					C112.994,79.505,113.562,79.605,114.332,79.309z"/>
				<path style="fill:#9C1705;" d="M113.146,82.149c0.984,0.903,1.924,1.944,2.823,3.051c-2.339,0.666-4.923,0.719-7.167,0.372
					c0.138-0.199,0.292-0.413,0.436-0.657C110.683,84.08,111.976,83.198,113.146,82.149z"/>
				<path style="fill:#FBCCBD;" d="M112.322,79.49c-0.203,0.427-0.423,0.844-0.648,1.247c-0.025,0.036-0.031,0.063-0.055,0.109
					c-0.225-0.189-0.414-0.342-0.627-0.5c-0.263-0.233-0.527-0.379-0.782-0.59c0.115-0.032,0.188-0.047,0.283-0.09l0.045,0.006
					c0.645-0.17,1.136-0.195,1.572-0.155l0.049-0.016C112.209,79.505,112.275,79.51,112.322,79.49z"/>
				<path style="fill:#9C1705;" d="M111.62,80.845c0.524,0.373,1.015,0.813,1.526,1.304c-1.17,1.048-2.463,1.931-3.908,2.767
					C110.069,83.667,110.806,82.28,111.62,80.845z"/>
				<path style="fill:#2F8AA1;" d="M111.831,124.604c0.202,1.994,0.134,3.938-0.052,5.922c-2.068-3.613-4.831-6.894-7.941-10.436
					c-1.083-1.261-2.281-2.376-3.56-3.38c-1.771-1.417-3.625-2.661-5.482-3.924c2.492-2.809,6.593-4.982,10.976-6.595
					c0.359-0.125,0.747-0.252,1.108-0.38c0.095,0.215,0.191,0.438,0.271,0.673C109.247,112.027,111.242,118.303,111.831,124.604z"/>
				<path style="fill:#FBCCBD;" d="M110.992,80.345c0.213,0.158,0.403,0.312,0.627,0.5c-0.814,1.435-1.551,2.822-2.382,4.071
					c-0.144,0.245-0.298,0.458-0.436,0.657c-0.016,0.016-0.021,0.008-0.021,0v-0.006c-0.114-0.007-0.207-0.017-0.295-0.046
					c-0.632-0.733-1.322-1.338-2.044-1.795c-0.454-0.344-0.949-0.528-1.446-0.712c-0.083-0.057-0.126-0.13-0.191-0.189
					c0.698-0.507,1.269-1.131,1.708-1.834c1.181-0.401,2.452-0.839,3.698-1.236C110.465,79.966,110.729,80.111,110.992,80.345z"/>
				<path style="fill:#00000C;" d="M110.775,219.907c-0.134-0.031-0.248-0.043-0.377-0.074l-0.03-0.037
					C110.508,219.84,110.641,219.876,110.775,219.907z"/>
				<path style="fill:#FABBA6;" d="M110.087,104.814l-3.207,0.997c-0.131-0.339-0.264-0.677-0.396-1.013l0.074-0.037
					c0.052-0.042,0.056-0.092,0.132-0.128c0.197-0.378,0.439-0.727,0.773-1.021c0.298-0.271,0.664-0.492,1.078-0.593
					c0.089-0.014,0.23-0.025,0.298-0.045l0.021,0.287C109.259,103.757,109.67,104.284,110.087,104.814z"/>
				<path style="fill:#FABBA6;" d="M108.016,86.565c2.683,3.599,3.447,7.02,1.808,12.877c-0.989-0.881-2.118-1.636-3.34-2.311
					c-0.835-0.473-1.679-0.899-2.501-1.305c-1.311-0.651-2.578-1.283-3.715-2.015l-0.162-0.272c1.402-1.054,2.72-2.441,3.051-3.987
					c0.498-0.071,0.903-0.223,1.319-0.439c0.065,0.008,0.115-0.007,0.185-0.028c0.819-0.294,1.51-0.763,2.145-1.328
					C107.236,87.426,107.619,87.018,108.016,86.565z"/>
				<path style="fill:#B41B06;" d="M109.124,216.801c0.457,1,0.902,1.994,1.244,2.996c-9.387-2.665-18.533-7.896-26.188-13.211
					c-4.377-2.917-8.131-6.17-10.209-10.829c-1.48-3.456-1.365-4.887-0.793-7.348c-0.012,0.14-0.03,0.282-0.012,0.399
					c-0.009,0.073-0.04,0.153-0.031,0.227l6.029,2.683l3.683,1.621l3.358,1.572l0.715,0.294c2.207,1.025,4.343,2.173,6.384,3.555
					c2.901,1.94,5.645,4.223,8.085,6.795c2.623,2.806,4.889,5.943,6.71,9.294C108.455,215.488,108.814,216.15,109.124,216.801z"/>
				<path style="fill:#8EB50A;" d="M110.53,88.454c-0.664-0.879-1.326-1.723-1.968-2.578c0.028-0.045,0.061-0.091,0.108-0.128
					C109.364,86.533,109.974,87.444,110.53,88.454z"/>
				<path style="fill:#FBCCBD;" d="M108.781,85.567v0.006c-0.037,0.066-0.086,0.129-0.11,0.175c-0.041-0.073-0.13-0.154-0.185-0.227
					C108.574,85.55,108.666,85.56,108.781,85.567z"/>
				<path style="fill:#FBCCBD;" d="M108.67,85.748c-0.047,0.037-0.081,0.083-0.108,0.128c-0.019-0.008-0.021,0.021-0.021,0.021
					c-0.184,0.234-0.344,0.454-0.525,0.667c-0.573-0.816-1.283-1.651-2.069-2.514c-0.292-0.325-0.61-0.663-0.951-1.038
					c0.497,0.185,0.992,0.369,1.446,0.712c0.722,0.457,1.412,1.062,2.044,1.795C108.54,85.595,108.629,85.676,108.67,85.748z"/>
				<path style="fill:#303A3A;" d="M108.455,206.334c-0.006,0.049-0.006,0.068,0.009,0.117c-0.064-0.024-0.064-0.024-0.064-0.024
					C108.375,206.377,108.449,206.383,108.455,206.334z"/>
				<path style="fill:#FABBA6;" d="M106.484,97.131c0.869,1.638,1.698,3.945,2.057,5.887c-0.414,0.101-0.78,0.322-1.078,0.593
					c-0.335,0.295-0.577,0.644-0.773,1.021c-1.952-2.226-5.272-3.03-7.52-4.819c0.065-0.181,0.129-0.337,0.114-0.476
					c0.467-1.772,0.789-3.666,0.984-5.526c1.137,0.732,2.404,1.363,3.715,2.015C104.805,96.232,105.649,96.659,106.484,97.131z"/>
				<path style="fill:#FBCCBD;" d="M108.016,86.565c-0.396,0.453-0.78,0.861-1.209,1.192c-0.635,0.564-1.326,1.034-2.145,1.328
					c-0.07,0.021-0.12,0.037-0.185,0.028c-0.416,0.217-0.821,0.369-1.319,0.439c0.037-0.232,0.086-0.439,0.083-0.649l-0.142,0.012
					c-0.076-0.864-0.162-1.756-0.197-2.62c-0.04-0.331-0.058-0.608-0.07-0.936c-0.049-0.468-0.006-0.955-0.053-1.399
					c0.765-0.278,1.36-0.614,1.857-1.054c0.074-0.021,0.095-0.04,0.168-0.082c0.065,0.059,0.108,0.132,0.191,0.189
					c0.341,0.375,0.659,0.712,0.951,1.038C106.732,84.914,107.442,85.748,108.016,86.565z"/>
				<path style="fill:#FABBA6;" d="M106.484,104.798c0.132,0.336,0.265,0.674,0.396,1.013c-0.361,0.128-0.749,0.256-1.108,0.38
					c-4.383,1.613-8.483,3.786-10.976,6.595c-0.568-0.385-1.112-0.778-1.679-1.159c0-0.02-0.022-0.027-0.022-0.027
					c-3.06-3.073-6.221-5.717-8.202-9.85c3.662,3.224,8.481,5.697,11.044,7.793c1.218-3.161,2.433-6.388,3.231-9.73
					c2.248,1.789,5.568,2.594,7.52,4.819c-0.076,0.036-0.08,0.086-0.132,0.128L106.484,104.798z"/>
				<path style="fill:#B41B06;" d="M105.741,187.709c0.663,0.331,1.385,0.614,2.093,0.939c-0.841,0.362-1.638,0.657-2.406,0.865
					c-3.447,1.118-6.67,1.068-10.334,0.817C98.688,190.134,102.056,188.661,105.741,187.709z"/>
				<path style="fill:#B41B06;" d="M105.934,207.912c-0.052,0.079-0.052,0.109-0.058,0.153c-0.755-0.436-1.456-0.828-2.149-1.166
					C104.458,207.261,105.176,207.586,105.934,207.912z"/>
				<path style="fill:#2F8AA1;" d="M105.275,187.501c0.154,0.079,0.31,0.141,0.466,0.208c-3.686,0.952-7.054,2.425-10.647,2.622
					c-0.63-0.062-1.268-0.099-1.915-0.154c-0.693-0.043-1.388-0.11-2.079-0.196c-0.025-0.006-0.04-0.006-0.068-0.012
					c-0.343-0.031-0.686-0.111-1.052-0.167c-2.658-0.386-5.284-1.098-7.848-2.038c-2.438-0.994-4.888-3.087-7.398-4.316
					c-0.865-0.429-1.716-0.767-2.609-0.921c2.079-4.051,3.892-8.348,5.071-12.757c0.476,0.534,1.1,1,1.685,1.455
					c0.497,0.351,0.916,0.664,1.348,0.983c0.567,0.374,1.107,0.78,1.614,1.105c1.096,0.921,2.182,1.787,3.28,2.634
					c2.324,1.725,4.617,3.309,7.058,4.77c0.42,0.252,0.84,0.498,1.279,0.749c0.811,0.473,1.652,0.939,2.515,1.393
					C98.603,184.32,101.836,185.953,105.275,187.501z"/>
				<path style="fill:#FABAA9;" d="M107.024,62.453c-0.666,1.1-1.259,2.23-2.084,3.154c-2.916,0.12-5.82-0.155-8.576-0.694
					c-0.461-0.061-0.851-0.146-1.252-0.252c-0.206,1.137-0.316,2.591-0.535,3.943c-0.3,0.648-0.564,1.318-0.717,1.953
					c-0.059,0.204-0.104,0.388-0.129,0.569c-0.258,1.021-0.304,2.017-0.16,3.003c0.384,2.824,1.418,3.897,1.053,7.046
					c-0.037,0.902-0.197,1.914-0.314,2.902c-0.049-0.006-0.074-0.013-0.095-0.036c-0.025,0.02-0.07-0.023-0.113-0.011
					c-0.854-0.29-1.64-0.642-2.44-1.043c0.006-0.042-0.058-0.029-0.058-0.029c-0.335-0.146-0.645-0.312-0.958-0.462
					c-0.472-1.178-0.715-2.529-0.807-3.979c0.969-1.992,1.817-4.517,2.188-7.066c0.402-2.49,0.335-5.006-0.377-7.116
					c0.049-0.155,0.063-0.319,0.092-0.457C96.764,63.606,101.969,63.586,107.024,62.453z"/>
				<path style="fill:#FABBA6;" d="M102.405,89.642c0.283-0.021,0.519-0.045,0.752-0.089c-0.331,1.546-1.648,2.933-3.051,3.987
					c-0.068,0.039-0.135,0.054-0.175,0.098c-1.115,0.825-2.412,1.493-3.371,1.796c-0.573,0.202-1.283,0.342-2.062,0.459
					c-0.517-0.68-0.967-1.51-1.349-2.448c-0.834-1.963-1.39-4.29-1.581-6.444c0.405-0.152,0.817-0.298,1.244-0.417
					c0.393,0.316,0.783,0.609,1.199,0.879c0.047,0.003,0.068,0.047,0.108,0.052c0.025,0.027,0.07,0.055,0.092,0.055
					c0.021,0,0.064,0.033,0.064,0.033c0.439,0.292,0.881,0.569,1.366,0.8c1.97,1.024,4.218,1.555,6.477,1.285
					C102.263,89.654,102.335,89.682,102.405,89.642z"/>
				<path style="fill:#FABBA6;" d="M100.106,93.54l0.162,0.272c-0.195,1.86-0.518,3.754-0.984,5.526
					c0.015,0.14-0.049,0.295-0.114,0.476c-0.798,3.342-2.014,6.569-3.231,9.73c-2.564-2.096-7.382-4.569-11.044-7.793
					c-0.033-0.006-0.033-0.024-0.033-0.024c-0.144-0.314-0.301-0.659-0.433-0.995c-0.719-2.023-1.347-4.449-1.661-6.824
					c0.006-0.022,0.006-0.049,0.006-0.049c-0.008-1.346,0.04-2.665,0.16-3.953c0.125-0.082,0.23-0.161,0.329-0.2
					c-0.01,1.041-0.037,2.064-0.09,3.102c1.295,1.842,3.92,2.786,6.655,3.093c1.607,0.214,3.266,0.163,4.672-0.006
					c0.778-0.117,1.488-0.256,2.062-0.459c0.958-0.304,2.256-0.972,3.371-1.796C99.971,93.594,100.038,93.578,100.106,93.54z"/>
				<path style="fill:#8EB50A;" d="M95.094,190.331c-1.289,0.085-2.603-0.012-3.994-0.35c0.691,0.086,1.385,0.153,2.079,0.196
					C93.826,190.232,94.464,190.269,95.094,190.331z"/>
				<path style="fill:#2F8AA1;" d="M94.796,112.787c-0.098,0.104-0.203,0.186-0.289,0.295c-0.458-0.506-0.918-0.991-1.39-1.454
					C93.685,112.008,94.228,112.401,94.796,112.787z"/>
				<path style="fill:#FABAA9;" d="M94.311,84.077c-0.064,0.683-0.109,1.381-0.033,2.06c-1.19-0.388-2.103-1.105-2.759-2.02
					c0.027-0.302,0.052-0.578,0.101-0.853c0.08-0.086,0.068-0.202,0.043-0.278c0.801,0.402,1.587,0.753,2.44,1.043
					c0.044-0.012,0.088,0.031,0.113,0.011C94.237,84.063,94.261,84.071,94.311,84.077z"/>
				<path style="fill:#FABAA9;" d="M94.277,86.627c0.019,0.301,0.033,0.628,0.006,0.903c-0.006,0.044-0.006,0.044-0.006,0.072
					c0,0-0.043-0.033-0.064-0.033c-0.022,0-0.067-0.028-0.092-0.055c-0.041-0.004-0.062-0.049-0.108-0.052
					c-0.417-0.27-0.807-0.563-1.199-0.879c0.463-0.167,0.93-0.288,1.458-0.397l0,0c-0.007,0.109,0.006,0.206,0.018,0.301
					C94.29,86.506,94.283,86.578,94.277,86.627z"/>
				<path style="fill:#B41B06;" d="M94.277,86.137c-0.016,0.015-0.013,0.031-0.006,0.05c-0.528,0.109-0.995,0.23-1.458,0.397
					c-0.302-0.241-0.577-0.498-0.878-0.76c0.006-0.044-0.062-0.049-0.062-0.049c-0.125-0.104-0.257-0.236-0.39-0.341
					c-0.024-0.468-0.006-0.907,0.035-1.317C92.175,85.031,93.087,85.748,94.277,86.137z"/>
				<path style="fill:#FABBA6;" d="M83.556,88.171c0.169,0.048,0.341,0.084,0.509,0.122c3.061,0.564,5.145-0.402,7.505-1.292
					c0.191,2.154,0.747,4.48,1.581,6.444c0.381,0.938,0.832,1.768,1.349,2.448c-1.406,0.169-3.065,0.221-4.672,0.006
					c-2.735-0.307-5.36-1.251-6.655-3.093c0.053-1.038,0.08-2.061,0.09-3.102c0.021-0.533,0.021-1.072,0.03-1.604
					C83.374,88.127,83.464,88.153,83.556,88.171z"/>
				<path style="fill:#B41B06;" d="M93.021,198.477c0.086,0.098,0.194,0.184,0.283,0.282c-2.041-1.381-4.177-2.529-6.384-3.555
					l-0.715-0.294l-3.358-1.572l-3.683-1.621l-6.029-2.683c-0.009-0.074,0.022-0.153,0.031-0.227c-0.019-0.117,0-0.259,0.012-0.399
					c0-0.019,0-0.043,0.006-0.068c0.154-0.663,0.359-1.405,0.562-2.266c0.236-0.81,0.604-1.688,0.988-2.628
					c2.511,1.229,4.96,3.322,7.398,4.316c2.564,0.939,5.19,1.651,7.848,2.038c0.013,1.554,0.224,3.088,0.546,4.611
					c0.009,0.044,0.009,0.044,0.009,0.068C91.057,195.922,91.84,197.249,93.021,198.477z"/>
				<path style="fill:#B41B06;" d="M91.935,85.824c0.302,0.262,0.577,0.519,0.878,0.76c-0.427,0.12-0.839,0.265-1.244,0.417
					c-0.064-0.542-0.088-1.055-0.086-1.567c0.133,0.104,0.265,0.236,0.39,0.341C91.873,85.774,91.941,85.779,91.935,85.824z"/>
				<path style="fill:#B41B06;" d="M91.65,64.333c0.712,2.11,0.78,4.626,0.377,7.116c-0.371,2.549-1.219,5.074-2.188,7.066
					C89.544,73.68,90.938,67.798,91.65,64.333z"/>
				<path style="fill:#FABAA9;" d="M91.512,63.883c0.07,0.003,0.156-0.012,0.23-0.007c-0.029,0.138-0.044,0.302-0.092,0.457
					c-0.031-0.14-0.083-0.287-0.144-0.431L91.512,63.883z"/>
				<path style="fill:#FABAA9;" d="M91.662,82.986c0.025,0.076,0.037,0.192-0.043,0.278c-0.049,0.275-0.074,0.551-0.101,0.853
					c-0.375-0.483-0.645-1.014-0.872-1.622c0.313,0.15,0.623,0.316,0.958,0.462C91.604,82.956,91.669,82.944,91.662,82.986z"/>
				<path style="fill:#B41B06;" d="M91.483,85.434c-0.002,0.512,0.022,1.025,0.086,1.567c-2.36,0.89-4.444,1.856-7.505,1.292
					c-0.168-0.037-0.339-0.074-0.509-0.122c-0.089-0.06-0.175-0.113-0.264-0.176c-0.01-0.45-0.022-0.926-0.055-1.382
					c-0.258,0.064-0.562,0.129-0.844,0.149c0.033-0.089,0.092-0.173,0.113-0.266c0.006-0.025,0.006-0.025,0.006-0.025
					c0.129-0.107,0.228-0.186,0.374-0.285c0.839-0.764,1.788-1.159,2.646-1.916c0.657-0.594,1.295-1.205,1.778-1.856
					c0.96,0.881,2.102,1.57,3.054,2.379c0.073-0.063,0.125-0.08,0.199-0.143C90.861,84.914,91.159,85.173,91.483,85.434z"/>
				<path style="fill:#B41B06;" d="M91.518,84.117c-0.041,0.41-0.059,0.849-0.035,1.317c-0.324-0.261-0.622-0.52-0.92-0.783
					c-0.074,0.063-0.127,0.08-0.199,0.143c-0.952-0.809-2.094-1.498-3.054-2.379c0.236-0.254,0.463-0.512,0.657-0.797
					c0.644,0.252,1.304,0.497,1.928,0.788c0.045-0.088,0.076-0.11,0.144-0.196c0.209,0.089,0.405,0.203,0.608,0.285
					C90.873,83.103,91.143,83.633,91.518,84.117z"/>
				<path style="fill:#B41B06;" d="M91.171,63.824c0.044,0.003,0.089,0.009,0.107,0.009c-0.672,0.077-1.301,0.108-2.028,0.161
					c0.101-0.108,0.113-0.268,0.15-0.408C89.907,63.636,90.527,63.744,91.171,63.824z"/>
				<path style="fill:#B41B06;" d="M90.646,82.495c-0.203-0.082-0.398-0.196-0.608-0.285c-0.067,0.086-0.098,0.107-0.144,0.196
					c-0.624-0.291-1.284-0.536-1.928-0.788c0.495-0.602,0.901-1.239,1.313-1.942c0.095-0.2,0.208-0.42,0.323-0.668
					c0.08-0.155,0.175-0.331,0.236-0.493C89.931,79.966,90.174,81.316,90.646,82.495z"/>
				<path style="fill:#2F8AA1;" d="M93.095,111.601c-2.532-1.771-4.956-3.665-6.92-6.223c-1.029-1.35-1.788-2.909-2.291-4.536
					c0.32,0.307,0.642,0.616,0.977,0.884c0,0,0,0.019,0.033,0.024C86.874,105.883,90.036,108.528,93.095,111.601z"/>
				<path style="fill:#B41B06;" d="M87.878,73.386c-0.072-0.03-0.136-0.035-0.201-0.046c-0.027-0.228,0.016-0.462,0.043-0.71
					C87.743,72.884,87.757,73.148,87.878,73.386z"/>
				<path style="fill:#B41B06;" d="M87.967,81.617c-0.193,0.285-0.421,0.543-0.657,0.797c-0.482,0.651-1.121,1.262-1.778,1.856
					c-0.858,0.758-1.807,1.153-2.646,1.916c-0.146,0.1-0.245,0.178-0.374,0.285c0.15-0.265,0.283-0.508,0.52-0.76
					c0.622-0.969,1.42-1.592,2.053-2.551c0.482-0.747,0.924-1.514,1.227-2.256C86.84,81.184,87.404,81.402,87.967,81.617z"/>
				<path style="fill:#2F8AA1;" d="M84.428,100.731c0.131,0.336,0.289,0.68,0.433,0.995c-0.334-0.269-0.657-0.577-0.977-0.884
					c-0.033-0.14-0.086-0.31-0.146-0.454c-0.618-2.06-0.901-4.292-0.971-6.48C83.081,96.282,83.709,98.709,84.428,100.731z"/>
				<path style="fill:#B41B06;" d="M84.496,72.028c-0.068,0.012-0.108,0.012-0.188,0.022c-0.092-0.212-0.121-0.45-0.141-0.712
					C84.261,71.588,84.351,71.824,84.496,72.028z"/>
				<path d="M83.556,88.171c-0.091-0.018-0.181-0.044-0.264-0.07c0-0.034,0-0.07,0-0.105C83.381,88.058,83.467,88.112,83.556,88.171
					z"/>
				<path style="fill:#B41B06;" d="M83.237,86.614c0.033,0.456,0.045,0.932,0.055,1.382c-0.562-0.362-1.164-0.697-1.771-1.007
					c0.154,0.037,0.316,0.06,0.476,0.086c0.156-0.213,0.316-0.41,0.509-0.577c-0.021,0.092-0.08,0.177-0.113,0.266
					C82.675,86.743,82.979,86.678,83.237,86.614z"/>
				<path style="fill:#359BB5;" d="M84.345,141.498c-0.977-8.457-1.922-18.164-3.995-26.031c-0.174-1.152-0.491-2.943-0.955-4.478
					c0.394,1.038,0.756,2.163,1.06,3.352C82.53,122.227,83.415,132.807,84.345,141.498z"/>
				<path style="fill:#2F8AA1;" d="M82.933,89.905c-0.121,1.288-0.168,2.607-0.16,3.953c-0.178-1.291-0.271-2.554-0.203-3.734
					C82.765,90.029,82.886,89.942,82.933,89.905z"/>
				<path style="fill:#2F8AA1;" d="M80.456,114.341c-0.304-1.189-0.666-2.314-1.06-3.352c-0.048-0.193-0.125-0.383-0.201-0.552
					c-0.117-0.425-0.295-0.816-0.47-1.159C79.593,110.915,80.217,112.694,80.456,114.341z"/>
				<path style="fill:#747474;" d="M78.725,109.278c0.175,0.343,0.353,0.734,0.47,1.159
					C79.047,110.032,78.872,109.639,78.725,109.278z"/>
				<path style="fill:#359BB5;" d="M78.433,108.715c-0.718-1.065-1.811-2.24-2.447-3.223c-2.36-3.596-7.489-4.431-9.187-4.606
					l2.492,0.236c3.595,1.031,4.755,1.541,6.828,3.683C76.951,105.65,77.803,107.474,78.433,108.715z"/>
				<path style="fill:#871404;" d="M75.59,47.957c-2.265,3.672-3.885,7.94-4.864,11.947c-0.061,0.294-0.104,0.574-0.221,0.844
					c-0.055,0.32-0.113,0.681-0.209,1.024c-0.045,0.179-0.064,0.366-0.101,0.545c-0.12,0.549-0.215,1.048-0.267,1.559
					c-0.012,0.163-0.049,0.342-0.065,0.53c-0.079,0.549-0.083,1.082-0.11,1.632c-0.166,2.472-0.08,5.081-0.049,7.155
					c0.031,0.253,0.031,0.487,0.077,0.748c-0.3-0.748-0.585-1.493-0.817-2.169c-1.786-5.763-2.295-12.781-0.393-18.618
					c0.676-2.112,1.624-3.984,2.796-5.623C72.855,47.366,74.313,47.461,75.59,47.957z"/>
				<path style="fill:#B41B06;" d="M73.746,186.076c-0.203,0.86-0.408,1.603-0.562,2.266
					C73.246,187.697,73.455,186.93,73.746,186.076z"/>
			</g>
		</g>
		<g>
			<g id="XMLID_1_">
				<g>
					<path style="fill:#C0C4C2;" d="M353.332,272.839c1.424-0.636,3.524-1.186,5.328-1.968c-2.349,1.434-5.282,2.74-8.141,3.843
						c0.135-0.362,0.295-0.688,0.462-0.967C351.791,273.486,352.574,273.191,353.332,272.839z"/>
					<path style="fill:#CCD1CF;" d="M350.981,273.747c-0.167,0.279-0.327,0.604-0.462,0.967c-2.935,1.153-5.791,2.088-7.818,2.701
						C344.975,275.337,348.052,274.72,350.981,273.747z"/>
					<path style="fill:#ACB0AE;" d="M290.55,272.412c-0.285,0.565-0.162,1.255,0.445,1.657c-2.123,0.708-4.136,1.679-5.99,3.075
						C285.863,275.301,287.936,273.732,290.55,272.412z"/>
					<path style="fill:#CCD1CF;" d="M285.005,277.145c1.855-1.397,3.867-2.367,5.99-3.075c0.022,0.025,0.042,0.039,0.065,0.055
						c-1.162,0.949-1.588,2.797-0.362,3.811c1.646,1.392,4.052,1.371,6.274,1.401c-2.623,1.271-3.748,3.46-7.04,3.635
						c-2.509,0.179-7.559-2.296-6.475-4.537c0.003-0.008,0.003-0.024,0.015-0.024C283.972,277.952,284.476,277.539,285.005,277.145z
						"/>
					<path style="fill:#727574;" d="M294.242,248.492l-0.019-0.169c1.67-0.39,4.356,1.176,5.506,2.121
						c-0.65,1.228-2.276,3.22-3.76,2.77C294.621,252.746,293.684,249.686,294.242,248.492z"/>
					<path style="fill:#727574;" d="M296.353,231.989c-0.834,0.317-1.658,0.702-2.445,1.168c-0.013,0.017-0.013,0.017-0.027,0.017
						c-0.099,0.082-0.206,0.174-0.302,0.257c-0.113-1.403,0.298-3.195,0.744-4.278C295.153,229.91,295.749,231.053,296.353,231.989z
						"/>
					<path style="fill:#727574;" d="M316.341,230.901c-0.079,1.757-0.002,3.395-0.081,5.083c-0.701-0.629-1.451-1.199-2.243-1.725
						C314.602,233.143,315.468,231.743,316.341,230.901z"/>
					<path style="fill:#CCD1CF;" d="M312.553,270.497c-0.271,0.064-0.557,0.132-0.842,0.195l0.003-0.013
						c-1.293-0.707-3.052-1.936-4.604-3.362c-1.56-1.428-2.913-3.027-3.454-4.51l0.02-0.221c2.136,0.175,4.27,0.144,6.046-0.129
						C311.748,264.275,312.457,267.865,312.553,270.497z"/>
					<path style="fill:#D6DBD9;" d="M311.711,270.692c0.285-0.064,0.57-0.131,0.842-0.195c-0.096-2.632-0.805-6.222-2.832-8.039
						c0.467-0.076,0.9-0.166,1.309-0.276c4.549-0.937,7.071-3.81,8.529-7.315c3.128,2.377,8.127,4.031,11.945,3.362
						c4.573-0.673,8.023-3.748,12.033-5.544c0.696-0.331,1.439-0.57,2.199-0.732l0.057,0.282c-5.796,1.433-6.925,11.09-3.063,15.752
						c-3.824,0.837-6.833,1.952-9.359,3.827c-0.907,0.574-1.973,1.451-2.686,2.446c-0.027-0.061-0.042-0.123-0.066-0.185
						l-0.183-0.233c-1.697,0.617-3.81,0.792-5.72,0.535c-4.978,7.184-19.859,4.051-27.48,4.844
						c-0.084,0.033-0.176,0.069-0.264,0.115c-2.223-0.03-4.628-0.009-6.274-1.401c-1.226-1.014-0.8-2.861,0.362-3.811
						c0.053-0.052,0.11-0.092,0.165-0.131c0-0.01,0.009-0.006,0.009-0.006C297.667,271.922,305.014,272.231,311.711,270.692z"/>
					<path style="fill:#E4EAE8;" d="M294.242,248.492c-0.559,1.194,0.379,4.254,1.728,4.722c1.483,0.45,3.109-1.542,3.76-2.77
						c-1.149-0.945-3.836-2.511-5.506-2.121L294.242,248.492z M311.726,233.751c4.721,4.817,4.97,11.841,3.747,18.418
						c-0.608,3.223-2.121,5.663-5.138,7.122c-2.083,1.059-5.107,3.063-7.676,3.204c-0.012,0.006-0.037,0.003-0.049-0.007
						c-2.908-0.316-5.738-0.997-7.669-1.921c-9.763-5.325-9.701-17.45-3.671-24.797c0.689-0.86,1.462-1.641,2.309-2.34
						c0.096-0.083,0.203-0.175,0.302-0.257c0.015,0,0.015,0,0.027-0.017c0.787-0.466,1.611-0.851,2.445-1.168
						c0.798-0.312,1.611-0.544,2.441-0.724c3.818-0.831,7.874-0.373,11.489,1.066c0.293,0.283,0.583,0.58,0.886,0.861
						C311.358,233.369,311.553,233.547,311.726,233.751z"/>
					<path style="fill:#E4EAE8;" d="M336.731,275.745c3.65-0.602,6.911-1.13,10.393-2.268c5.354-1.744,11.253-3.668,15.896-6.669
						l0.068,0.046c-0.726,1.388-2.325,2.734-4.387,3.996c-0.015-0.004-0.024,0.007-0.042,0.021
						c-1.804,0.782-3.904,1.332-5.328,1.968c-0.758,0.353-1.541,0.647-2.351,0.908c-2.93,0.973-6.007,1.59-8.28,3.668
						c-1.12,0.361-1.993,0.614-2.505,0.769c-2.148,0.692-7.588,2.178-9.783-0.183c-0.905-1.24-0.548-2.568,0.272-3.741
						C331.7,276.988,334.572,276.06,336.731,275.745z"/>
					<path style="fill:#C0C4C2;" d="M358.702,270.85c2.062-1.262,3.661-2.608,4.387-3.996c0.617-1.173,0.593-2.392-0.354-3.579
						c0.025-2.737,0.364-5.009,0.315-7.323c-0.037-1.514-0.256-3.039-0.827-4.749c7.068,4.424,10.09,17.386,3.878,23.703
						c-3.504,3.428-10.006,6.248-14.871,7.546c-1.859-1.65-1.664-5.344-0.71-7.737c2.858-1.103,5.792-2.409,8.141-3.843
						C358.678,270.856,358.688,270.846,358.702,270.85z"/>
					<path style="fill:#CCD1CF;" d="M290.995,274.069c-0.607-0.402-0.73-1.092-0.445-1.657c5.107-2.578,12.284-4.187,16.56-5.095
						c1.553,1.427,3.311,2.655,4.604,3.362l-0.003,0.013c-6.697,1.539-14.044,1.229-20.478,3.295c0,0-0.009-0.004-0.009,0.006
						C291.147,274.018,291.071,274.045,290.995,274.069z"/>
					<path style="fill:#E1933A;" d="M291.225,273.993c-0.055,0.039-0.112,0.079-0.165,0.131c-0.023-0.016-0.043-0.03-0.065-0.055
						C291.071,274.045,291.147,274.018,291.225,273.993z"/>
					<path style="fill:#CCD1CF;" d="M342.73,267.986c-3.862-4.662-2.733-14.319,3.063-15.752l-0.057-0.282
						c2.431-0.551,5.105-0.375,7.313,0.066c3.211,0.621,5.456,5.602,8.384,4.985c0.615-0.21,1.145-0.608,1.617-1.053
						c0.049,2.314-0.29,4.586-0.315,7.323c0.947,1.188,0.972,2.406,0.354,3.579l-0.068-0.046
						c-4.643,3.001-10.542,4.925-15.896,6.669c-3.481,1.139-6.743,1.666-10.393,2.268c-2.159,0.315-5.031,1.243-6.047-1.485
						c0.714-0.995,1.779-1.872,2.686-2.446C335.897,269.939,338.906,268.823,342.73,267.986z"/>
					<path style="fill:#CCD1CF;" d="M323.316,250.923c4.143-0.479,9.028-5.165,12.217-7.309c5.117-3.569,10.428-5.061,16.546-3.4
						c4.909,1.248,7.204,4.646,9.361,9.035c0.315,0.685,0.576,1.332,0.782,1.952c0.571,1.71,0.79,3.235,0.827,4.749
						c-0.473,0.444-1.002,0.843-1.617,1.053c-2.928,0.617-5.173-4.364-8.384-4.985c-2.207-0.441-4.882-0.617-7.313-0.066
						c-0.761,0.162-1.503,0.401-2.199,0.732c-4.01,1.796-7.46,4.871-12.033,5.544c-3.818,0.669-8.817-0.985-11.945-3.362
						c0.686-1.645,1.143-3.416,1.467-5.198C321.584,250.232,322.389,250.613,323.316,250.923z"/>
					<path style="fill:#CCD1CF;" d="M351.229,282.451c-0.363,0.103-0.723,0.191-1.067,0.273c-3.153,0.709-12.633,0.485-8.138-4.606
						c0.214-0.258,0.445-0.489,0.677-0.703c2.027-0.613,4.883-1.548,7.818-2.701C349.565,277.107,349.37,280.801,351.229,282.451z"
						/>
					<path style="fill:#CCD1CF;" d="M321.025,249.668c-0.324,1.782-0.78,3.554-1.467,5.198c-1.458,3.506-3.98,6.379-8.529,7.315
						c-0.408,0.11-0.842,0.2-1.309,0.276c-1.776,0.272-3.91,0.304-6.046,0.129c-0.332-0.024-0.676-0.055-1.016-0.092
						c2.569-0.142,5.593-2.145,7.676-3.204c3.017-1.459,4.529-3.899,5.138-7.122c1.223-6.577,0.974-13.6-3.747-18.418
						c0.107-0.2,0.226-0.403,0.337-0.614c0.682,0.335,1.329,0.718,1.954,1.123c0.792,0.525,1.542,1.096,2.243,1.725
						c0.957,0.844,1.81,1.789,2.532,2.814c1.913,2.701,2.917,5.927,2.468,9.447C321.188,248.716,321.109,249.189,321.025,249.668z"
						/>
					<path style="fill:#CCD1CF;" d="M318.038,227.862c1.909,3.024,1.103,7.303,0.754,10.936c-0.722-1.025-1.575-1.971-2.532-2.814
						c0.079-1.689,0.002-3.326,0.081-5.083c-0.873,0.842-1.739,2.241-2.324,3.358c-0.625-0.405-1.273-0.788-1.954-1.123
						C313.398,230.834,315.645,228.391,318.038,227.862z"/>
					<path style="fill:#E4EAE8;" d="M294.144,224.975c2.111,0.985,3.651,4.315,4.651,6.291c-0.83,0.18-1.643,0.412-2.441,0.724
						c-0.604-0.937-1.2-2.079-2.03-2.837c-0.446,1.083-0.857,2.875-0.744,4.278c-0.847,0.699-1.619,1.48-2.309,2.34
						C291.782,232.563,291.693,227.544,294.144,224.975z"/>
				</g>
			</g>
		</g>
	</g>
</g>
</svg>
