<?xml version="1.0" encoding="utf-8"?>
<!-- Generator: Adobe Illustrator 27.5.0, SVG Export Plug-In . SVG Version: 6.00 Build 0)  -->
<svg version="1.1" xmlns="http://www.w3.org/2000/svg" xmlns:xlink="http://www.w3.org/1999/xlink" x="0px" y="0px"
	 viewBox="0 0 500 500" style="enable-background:new 0 0 500 500;" xml:space="preserve">
<g id="BACKGROUND">
	<rect style="fill:#f4c6e0;" width="500" height="500"/>
</g>
<g id="OBJECTS">
	<g>
		<path style="fill:#F3F3F3;" d="M372.587,428.893c0,12.1-9.9,22-22,22H149.413c-12.1,0-22-9.9-22-22V47.42c0-12.1,9.9-22,22-22
			h201.174c12.1,0,22,9.9,22,22V428.893z"/>
	</g>
	<path style="fill:#9A98A0;" d="M289.435,52.929c0,1.837-1.534,3.327-3.427,3.327h-64.281c-1.893,0-3.428-1.49-3.428-3.327l0,0
		c0-1.838,1.535-3.328,3.428-3.328h64.281C287.9,49.601,289.435,51.091,289.435,52.929L289.435,52.929z"/>
	<path style="fill:#9A98A0;" d="M214.379,52.928c0,1.919-1.555,3.476-3.475,3.476c-1.919,0-3.475-1.557-3.475-3.476
		c0-1.919,1.556-3.475,3.475-3.475C212.824,49.453,214.379,51.008,214.379,52.928z"/>
	<path style="fill:#D6D9E0;" d="M265.529,432.09c0,7.521-6.099,13.619-13.62,13.619c-7.522,0-13.619-6.098-13.619-13.619
		c0-7.523,6.097-13.619,13.619-13.619C259.431,418.471,265.529,424.566,265.529,432.09z"/>
	<path style="fill:#9A98A0;" d="M262.805,432.09c0,6.018-4.878,10.896-10.895,10.896c-6.018,0-10.895-4.879-10.895-10.896
		c0-6.018,4.877-10.896,10.895-10.896C257.927,421.193,262.805,426.072,262.805,432.09z"/>
	<path style="fill:#D6D9E0;" d="M359.685,391.811c0.05,7.928-6.339,14.396-14.268,14.443l-186.624,1.166
		c-7.928,0.047-14.396-6.34-14.445-14.268l-1.926-308.648c-0.048-7.929,6.339-14.396,14.267-14.446l186.625-1.165
		c7.928-0.049,14.397,6.338,14.445,14.267L359.685,391.811z"/>
	<path style="fill:#45CC92;" d="M411.697,133.306c-0.066-10.665-8.766-19.256-19.43-19.19l-189.647,1.182
		c-10.665,0.066-19.256,8.766-19.189,19.43l0.046,7.433c-3.05,1.172-9.696,5.903-9.696,5.903l9.732-0.059l0.001-0.003l0.083,13.278
		c0.066,10.663,8.765,19.255,19.428,19.189l189.646-1.184c10.666-0.066,19.256-8.765,19.191-19.43L411.697,133.306z"/>
	<path style="fill:#45CC92;" d="M383.965,245.739c-0.047-7.691-7.764-13.878-17.236-13.818l-168.43,1.051
		c-9.471,0.059-17.11,6.341-17.063,14.031l0.12,19.146c-3.568,2.108-7.575,4.961-7.575,4.961l8.724-0.057
		c2.481,5.246,8.748,8.957,16.086,8.91l168.429-1.049c9.473-0.059,17.111-6.342,17.065-14.029L383.965,245.739z"/>
	<path style="fill:#30DDDD;" d="M339.842,324.694c0,0-7.221-5.307-10.533-6.619l0.051-8.336c0.072-11.959-6.566-21.697-14.828-21.75
		l-146.95-0.949c-8.266-0.051-15.019,9.602-15.094,21.561l-0.18,29.775c-0.072,11.959,6.569,21.699,14.833,21.752l146.947,0.949
		c8.262,0.053,15.018-9.6,15.09-21.563l0.092-14.885l0,0L339.842,324.694z"/>
	<path style="fill:#30DDDD;" d="M339.842,204.315l-7.375-3.912l-0.012-1.95c-0.039-6.163-8.963-11.105-19.938-11.038l-195.127,1.218
		c-10.973,0.067-19.837,5.122-19.797,11.286l0.095,15.345c0.038,6.167,8.966,11.106,19.938,11.036l195.126-1.215
		c10.975-0.07,19.838-5.122,19.799-11.286l-0.041-6.479L339.842,204.315z"/>
</g>

</svg>
