<?xml version="1.0" encoding="utf-8"?>
<!-- Generator: Adobe Illustrator 27.5.0, SVG Export Plug-In . SVG Version: 6.00 Build 0)  -->
<svg version="1.1" id="Layer_1" xmlns="http://www.w3.org/2000/svg" xmlns:xlink="http://www.w3.org/1999/xlink" x="0px" y="0px"
	 viewBox="0 0 450 450" style="enable-background:new 0 0 450 450;" xml:space="preserve">
<radialGradient id="SVGID_1_" cx="225" cy="225" r="317.0025" gradientUnits="userSpaceOnUse">
	<stop  offset="0.7095" style="stop-color:#FFFFFF"/>
	<stop  offset="1" style="stop-color:#DEDEDE"/>
</radialGradient>
<rect style="fill:url(#SVGID_1_);" width="450" height="450"/>
<g>
	<path d="M179.84,28.549h-5.236v14.193h-2.149V28.549h-5.171v-1.691h12.557V28.549z"/>
	<path d="M190.771,35.378h-6.524v5.684h7.637v1.68h-9.786V26.858h9.666v1.691h-7.517v5.138h6.524V35.378z"/>
	<path d="M202.63,38.651h-5.979l-1.418,4.091h-2.193l5.728-15.884h1.844l5.607,15.884h-2.193L202.63,38.651z M197.273,36.851h4.746
		l-2.313-6.818h-0.065L197.273,36.851z"/>
	<path d="M216.43,39.764h0.065l5.073-12.906h2.673v15.884h-2.149V30.84l-0.065-0.011l-4.811,11.913h-1.495l-4.953-12.306
		l-0.065,0.011v12.295h-2.149V26.858h2.826L216.43,39.764z"/>
	<path d="M230.988,37.233l0.272,2.083l0.066,0.011l0.37-2.095l2.815-10.375h2.105l2.836,10.375l0.371,2.128h0.065l0.295-2.128
		l2.269-10.375h2.335l-3.84,15.884h-1.92l-3.175-11.019l-0.24-1.429h-0.065l-0.23,1.429l-3.218,11.019h-1.92l-3.83-15.884h2.324
		L230.988,37.233z"/>
	<path d="M259.169,36.218c0,1.942-0.602,3.553-1.806,4.833c-1.204,1.28-2.766,1.92-4.686,1.92c-1.854,0-3.362-0.64-4.522-1.92
		c-1.16-1.28-1.74-2.891-1.74-4.833v-2.826c0-1.935,0.58-3.545,1.74-4.833c1.16-1.287,2.668-1.931,4.522-1.931
		c1.92,0,3.481,0.642,4.686,1.925c1.203,1.284,1.806,2.897,1.806,4.838V36.218z M257.02,33.371c0-1.454-0.392-2.647-1.178-3.578
		c-0.786-0.931-1.841-1.396-3.164-1.396c-1.251,0-2.249,0.465-2.995,1.396c-0.745,0.931-1.118,2.124-1.118,3.578v2.848
		c0,1.469,0.373,2.669,1.118,3.6c0.746,0.931,1.744,1.396,2.995,1.396c1.331,0,2.387-0.464,3.169-1.391
		c0.782-0.927,1.173-2.129,1.173-3.605V33.371z"/>
	<path d="M264.416,35.858v6.884h-2.149V26.869h5.434c1.737,0,3.065,0.386,3.981,1.156c0.917,0.771,1.375,1.891,1.375,3.36
		c0,0.814-0.213,1.524-0.639,2.127c-0.426,0.604-1.046,1.084-1.86,1.44c0.873,0.284,1.501,0.744,1.883,1.38
		c0.382,0.636,0.572,1.423,0.572,2.362v1.495c0,0.495,0.055,0.938,0.164,1.331c0.108,0.393,0.298,0.713,0.567,0.96v0.262h-2.215
		c-0.284-0.247-0.466-0.611-0.546-1.091c-0.08-0.48-0.12-0.975-0.12-1.484v-1.451c0-0.858-0.251-1.549-0.753-2.073
		c-0.501-0.524-1.174-0.785-2.018-0.785H264.416z M264.416,34.167h3.065c1.215,0,2.089-0.23,2.624-0.692
		c0.534-0.462,0.802-1.166,0.802-2.111c0-0.895-0.26-1.587-0.78-2.078c-0.52-0.491-1.329-0.736-2.427-0.736h-3.284V34.167z"/>
	<path d="M280.027,35.563h-1.396v7.179h-2.15V26.858h2.15v7.026h1.178l5.892-7.026h2.422l0.021,0.054l-6.437,7.517l6.895,8.258
		l-0.022,0.055h-2.607L280.027,35.563z"/>
</g>
<g>
	<g>
		<polygon style="fill:#E6E6E6;" points="268.441,201.944 268.474,201.914 262.256,200.14 261.55,200.437 261.602,200.407 
			263.199,198.183 267.689,194.794 270.517,192.242 271.381,189.786 266.921,187.84 259.662,189.786 256.996,192.242 
			256.154,194.794 256.01,198.068 256.039,198.079 254.367,200.404 254.119,200.14 245.352,201.914 237.066,211.952 
			232.356,220.887 231.631,222.492 233.188,224.197 234.095,222.935 233.967,221.775 234.758,222.013 235.567,220.887 
			238.928,216.958 238.139,218.055 220.654,241.635 215.92,243.904 215.106,245.594 220.164,245.594 223.629,243.034 
			224.751,242.676 225.364,241.635 241.37,223.518 231.333,241.635 231.343,241.635 230.462,242.676 231.067,243.034 
			230.852,245.594 235.91,245.594 237.525,243.904 236.054,241.635 236.045,241.635 252.457,218.055 252.482,218.055 
			253.202,217.053 250.968,220.887 250.957,220.887 250.149,222.013 251.281,221.775 249.486,222.935 248.579,224.197 
			252.587,222.492 254.168,220.887 254.181,220.887 262.314,211.952 		"/>
		<g>
			<g>
				<polygon style="fill:#212B6E;" points="218.345,202.401 217.809,239.385 222.519,239.385 225.77,208.421 225.77,201.919 				"/>
				<polygon style="fill:#2B3990;" points="232.663,202.401 233.199,239.385 228.487,239.385 225.235,208.421 225.235,201.919 				
					"/>
				<polygon style="fill:#2188DB;" points="213.956,177.083 212.886,192.829 214.599,206.843 217.81,206.843 218.6,197.744 
					216.311,181.41 				"/>
				<polygon style="fill:#2188DB;" points="237.064,177.083 238.134,192.829 236.423,206.843 233.21,206.843 232.421,197.744 
					234.709,181.41 				"/>
				<polygon style="fill:#DBB8A5;" points="229.122,174.72 225.505,180.528 221.887,174.72 221.887,170.246 229.122,170.246 				"/>
				<polygon style="fill:#A97C50;" points="231.268,158.061 225.409,155.009 219.549,158.061 218.648,161.914 219.641,165.915 
					225.409,165.915 231.176,165.915 232.169,161.914 				"/>
				<polygon style="fill:#EDD0B9;" points="231.176,165.915 229.915,163.302 224.283,165.374 221.263,163.977 219.641,165.915 
					221.85,171.052 225.409,172.63 229.104,171.277 				"/>
				<polygon style="fill:#1C0E08;" points="217.809,239.385 214.706,242.944 215.106,245.594 220.164,245.594 221.789,241.579 
					222.653,241.017 222.519,239.385 				"/>
				<polygon style="fill:#1C0E08;" points="233.208,239.385 236.311,242.944 235.91,245.594 230.852,245.594 229.227,241.579 
					228.364,241.017 228.497,239.385 				"/>
				<polygon style="fill:#DBB8A5;" points="214.599,206.843 215.026,209.359 217.809,212.034 217.809,210.054 216.847,208.235 
					217.809,208.609 217.81,206.843 				"/>
				<polygon style="fill:#DBB8A5;" points="236.41,206.843 235.982,209.359 233.2,212.034 233.2,210.054 234.161,208.235 
					233.2,208.609 233.199,206.843 				"/>
				<polygon style="fill:#2B5090;" points="237.078,177.083 229.585,174.301 225.516,178.155 221.448,174.301 213.956,177.083 
					215.086,182.302 235.947,182.302 				"/>
				<polygon style="fill:#2B3990;" points="215.576,184.563 235.457,184.563 235.6,183.906 215.434,183.906 				"/>
				<polygon style="fill:#2B5090;" points="216.738,189.929 218.345,200.313 225.516,200.313 232.689,200.313 234.294,189.929 
					235.355,185.037 215.678,185.037 				"/>
				<polygon style="fill:#2B3990;" points="215.331,183.432 235.702,183.432 235.844,182.777 215.188,182.777 				"/>
				<polygon style="fill:#2B8BCC;" points="215.086,182.302 215.188,182.777 235.844,182.777 235.947,182.302 				"/>
				<polygon style="fill:#2B8BCC;" points="215.434,183.906 235.6,183.906 235.702,183.432 215.331,183.432 				"/>
				<polygon style="fill:#2B8BCC;" points="215.678,185.037 235.355,185.037 235.457,184.563 215.576,184.563 				"/>
				<g>
					<rect x="218.345" y="200.313" style="fill:#3C2415;" width="14.344" height="2.088"/>
					<g>
						<path style="fill:#C2B59B;" d="M223.696,199.59v3.427h4.148v-3.427H223.696z M226.84,202.186h-2.138v-1.767h2.138V202.186z"/>
						<rect x="224.702" y="200.956" style="fill:#9B8579;" width="1.068" height="0.695"/>
					</g>
				</g>
			</g>
		</g>
	</g>
	<g>
		<polygon style="fill:#E6E6E6;" points="354.944,209.867 356.692,209.723 359.876,202.297 353.646,200.502 352.938,200.803 
			352.99,200.771 354.591,198.521 359.087,195.09 363.423,189.955 358.422,188.051 350.68,189.976 347.53,195.09 347.389,198.404 
			347.418,198.415 345.743,200.77 345.495,200.502 336.712,202.297 329.334,209.723 330.878,209.867 328.016,213.576 
			325.148,219.64 323.712,221.503 323.726,221.503 323.002,223.126 324.56,224.852 325.468,223.575 325.34,222.401 326.131,222.642 
			326.942,221.503 326.93,221.503 327.253,219.837 332.127,213.727 330.45,217.289 329.493,218.636 311.984,242.505 
			307.243,244.803 306.431,246.512 311.497,246.512 314.968,243.921 316.092,243.558 316.705,242.505 332.737,224.16 
			322.685,242.505 322.694,242.505 321.813,243.558 322.419,243.921 322.205,246.512 327.272,246.512 328.89,244.803 
			327.414,242.505 327.404,242.505 343.837,218.636 343.862,218.636 344.819,217.289 344.82,217.289 348.207,213.727 
			344.395,219.837 342.347,221.503 342.335,221.503 341.527,222.642 342.662,222.401 340.864,223.575 339.956,224.852 
			343.971,223.126 345.552,221.503 345.564,221.503 346.779,219.64 352.536,213.576 		"/>
		<g>
			<g>
				<polygon style="fill:#726658;" points="310.973,166.688 310.486,158.749 316.859,155.76 323.214,158.715 322.529,166.688 				
					"/>
				<polygon style="fill:#1B70B5;" points="309.675,203.238 309.136,240.292 313.856,240.292 317.113,209.271 317.113,202.757 				
					"/>
				<polygon style="fill:#2188DB;" points="324.019,203.238 324.556,240.292 319.837,240.292 316.579,209.271 316.579,202.757 				
					"/>
				<polygon style="fill:#DBB8A5;" points="320.472,175.507 316.849,181.326 313.224,175.507 313.224,171.026 320.472,171.026 				
					"/>
				<polygon style="fill:#EDD0B9;" points="322.529,166.688 321.267,164.068 315.623,166.145 312.599,164.745 310.973,166.688 
					313.186,171.833 316.751,173.414 320.454,172.059 				"/>
				<polygon style="fill:#3A3A3A;" points="309.136,240.292 306.028,243.858 306.431,246.512 311.497,246.512 313.126,242.489 
					313.991,241.926 313.856,240.292 				"/>
				<polygon style="fill:#3A3A3A;" points="324.565,240.292 327.675,243.858 327.272,246.512 322.205,246.512 320.577,242.489 
					319.712,241.926 319.846,240.292 				"/>
				<polygon style="fill:#DBB8A5;" points="328.429,177.876 326.068,182.21 324.827,194.331 325.431,205.103 324.567,207.69 
					324.556,207.69 324.558,209.458 325.52,209.084 324.558,210.906 324.558,212.889 327.345,210.21 327.772,207.69 327.785,207.69 
					327.675,204.797 329.12,195.384 				"/>
				<polygon style="fill:#DBB8A5;" points="305.29,177.876 307.649,182.21 308.892,194.331 308.288,205.103 309.15,207.69 
					309.163,207.69 309.161,209.458 308.198,209.084 309.161,210.906 309.161,212.889 306.376,210.21 305.946,207.69 
					305.933,207.69 306.044,204.797 304.6,195.384 				"/>
				<polygon style="fill:#2B5090;" points="305.277,177.876 303.18,189.403 308.925,190.184 306.052,178.001 305.354,177.94 				"/>
				<polygon style="fill:#2B5090;" points="328.441,177.876 330.538,189.403 324.796,190.184 327.665,178.001 328.363,177.94 				
					"/>
				<polygon style="fill:#2188DB;" points="320.935,175.088 316.858,178.948 312.784,175.088 305.277,177.876 306.409,183.104 
					306.513,183.58 306.654,184.236 306.759,184.711 306.9,185.368 307.005,185.843 308.065,190.745 309.675,201.148 
					316.858,201.148 324.045,201.148 325.652,190.745 326.717,185.843 326.818,185.368 326.96,184.711 327.064,184.236 
					327.206,183.58 327.31,183.104 328.441,177.876 				"/>
				<g>
					<rect x="309.675" y="201.148" style="fill:#3C2415;" width="14.369" height="2.09"/>
					<g>
						<path style="fill:#C2B59B;" d="M315.037,200.424v3.43h4.155v-3.43H315.037z M318.186,203.025h-2.145v-1.771h2.145V203.025z"/>
						<rect x="316.042" y="201.791" style="fill:#9B8579;" width="1.071" height="0.697"/>
					</g>
				</g>
			</g>
		</g>
	</g>
	<g>
		<polygon style="fill:#E6E6E6;" points="312.828,102.755 313.713,102.668 315.475,98.14 312.366,97.045 312.001,97.229 
			312.029,97.21 312.884,95.837 315.227,93.746 317.523,90.615 315.037,89.454 311.087,90.628 309.39,93.746 309.249,95.767 
			309.264,95.773 308.369,97.209 308.249,97.045 303.775,98.14 299.895,102.668 300.672,102.755 299.148,105.017 297.575,108.714 
			296.811,109.85 296.818,109.85 296.418,110.84 297.17,111.892 297.655,111.113 297.614,110.397 298.01,110.544 298.443,109.85 
			298.436,109.85 298.634,108.834 301.224,105.108 300.302,107.28 299.79,108.102 290.452,122.655 288.01,124.056 287.564,125.098 
			290.122,125.098 291.929,123.518 292.504,123.296 292.836,122.655 301.314,111.469 295.856,122.655 295.861,122.655 
			295.394,123.296 295.692,123.518 295.529,125.098 298.09,125.098 298.942,124.056 298.245,122.655 298.239,122.655 
			307.034,108.102 307.048,108.102 307.56,107.28 307.56,107.28 309.344,105.11 307.293,108.834 306.224,109.85 306.217,109.85 
			305.785,110.544 306.362,110.397 305.431,111.113 304.945,111.892 307.009,110.84 307.843,109.85 307.848,109.85 308.501,108.714 
			311.533,105.017 		"/>
		<g>
			<g>
				<polygon style="fill:#726658;" points="289.856,84.781 289.611,80.771 292.83,79.262 296.04,80.754 295.693,84.781 				"/>
				<polygon style="fill:#1B70B5;" points="289.201,103.242 288.93,121.956 291.314,121.956 292.958,106.289 292.958,102.998 				
					"/>
				<polygon style="fill:#2188DB;" points="296.445,103.242 296.717,121.956 294.334,121.956 292.689,106.289 292.689,102.998 				
					"/>
				<polygon style="fill:#DBB8A5;" points="294.654,89.235 292.824,92.174 290.993,89.235 290.993,86.972 294.654,86.972 				"/>
				<polygon style="fill:#EDD0B9;" points="295.693,84.781 295.057,83.458 292.206,84.507 290.678,83.8 289.856,84.781 
					290.975,87.379 292.775,88.178 294.646,87.494 				"/>
				<polygon style="fill:#3A3A3A;" points="288.93,121.956 287.36,123.758 287.564,125.098 290.122,125.098 290.944,123.066 
					291.382,122.781 291.314,121.956 				"/>
				<polygon style="fill:#3A3A3A;" points="296.723,121.956 298.293,123.758 298.09,125.098 295.529,125.098 294.708,123.066 
					294.271,122.781 294.339,121.956 				"/>
				<polygon style="fill:#DBB8A5;" points="298.674,90.432 297.481,92.621 296.854,98.743 297.16,104.183 296.724,105.49 
					296.717,105.49 296.718,106.383 297.204,106.194 296.718,107.114 296.718,108.116 298.126,106.763 298.343,105.49 
					298.348,105.49 298.293,104.029 299.022,99.274 				"/>
				<polygon style="fill:#DBB8A5;" points="286.986,90.432 288.179,92.621 288.806,98.743 288.501,104.183 288.936,105.49 
					288.943,105.49 288.942,106.383 288.456,106.194 288.942,107.114 288.942,108.116 287.535,106.763 287.318,105.49 
					287.311,105.49 287.367,104.029 286.638,99.274 				"/>
				<polygon style="fill:#2B5090;" points="286.98,90.432 285.921,96.253 288.822,96.648 287.371,90.495 287.02,90.464 				"/>
				<polygon style="fill:#2B5090;" points="298.68,90.432 299.738,96.253 296.839,96.648 298.288,90.495 298.64,90.464 				"/>
				<polygon style="fill:#2188DB;" points="294.889,89.024 292.829,90.974 290.771,89.024 286.98,90.432 287.552,93.072 
					287.604,93.313 287.676,93.644 287.728,93.884 287.8,94.216 287.853,94.456 288.389,96.932 289.201,102.186 292.829,102.186 
					296.46,102.186 297.271,96.932 297.809,94.456 297.86,94.216 297.932,93.884 297.984,93.644 298.056,93.313 298.108,93.072 
					298.68,90.432 				"/>
				<g>
					<rect x="289.201" y="102.186" style="fill:#3C2415;" width="7.258" height="1.056"/>
					<g>
						<path style="fill:#C2B59B;" d="M291.909,101.82v1.732h2.099v-1.732H291.909z M293.5,103.134h-1.082v-0.894h1.082V103.134z"/>
						<rect x="292.418" y="102.511" style="fill:#9B8579;" width="0.54" height="0.352"/>
					</g>
				</g>
			</g>
		</g>
	</g>
	<g>
		<polygon style="fill:#E6E6E6;" points="289.7,158.51 290.983,158.401 293.709,152.763 289.253,151.4 288.719,151.629 
			288.76,151.605 290.051,149.895 292.48,148.071 292.881,148.071 293.403,147.379 293.521,147.291 293.6,147.202 293.997,147.202 
			294.171,146.971 293.803,146.971 296.963,143.393 293.411,141.947 287.652,143.409 285.288,146.971 285.067,146.971 
			284.894,147.202 285.136,147.202 285.076,147.291 285.04,147.615 284.695,148.071 284.988,148.071 284.793,149.808 
			284.814,149.816 283.465,151.603 283.298,151.4 276.785,152.763 270.995,158.401 272.115,158.51 269.824,161.326 267.403,165.929 
			266.255,167.344 266.264,167.344 265.648,168.576 266.693,169.887 267.426,168.917 267.395,168.026 267.961,168.208 
			268.614,167.344 268.605,167.344 268.931,166.079 272.82,161.44 271.403,164.145 270.632,165.167 256.558,183.289 
			252.972,185.032 252.284,186.331 255.986,186.331 258.661,184.363 259.502,184.088 260.008,183.289 272.702,169.366 
			264.375,183.289 264.383,183.289 263.682,184.088 264.106,184.363 263.81,186.331 267.512,186.331 268.785,185.032 
			267.83,183.289 267.823,183.289 281.111,165.167 281.131,165.167 281.902,164.145 284.571,161.439 281.456,166.079 
			279.869,167.344 279.86,167.344 279.21,168.208 280.051,168.026 278.675,168.917 277.942,169.887 280.97,168.576 282.211,167.344 
			282.22,167.344 283.207,165.929 287.74,161.326 		"/>
		<g>
			<g>
				<g>
					<polygon style="fill:#B3A08A;" points="255.602,128.009 255.248,122.209 259.903,120.025 264.546,122.185 264.047,128.009 
											"/>
					<polygon style="fill:#1B70B5;" points="254.654,154.714 254.261,181.786 257.711,181.786 260.09,159.122 260.09,154.362 					
						"/>
					<polygon style="fill:#2188DB;" points="265.134,154.714 265.526,181.786 262.078,181.786 259.698,159.122 259.698,154.362 
											"/>
					<polygon style="fill:#DBB8A5;" points="262.543,134.453 259.896,138.705 257.247,134.453 257.247,131.179 262.543,131.179 
											"/>
					<polygon style="fill:#EDD0B9;" points="264.047,128.009 263.124,126.096 259.001,127.613 256.791,126.59 255.602,128.009 
						257.22,131.768 259.825,132.923 262.529,131.934 					"/>
					<polygon style="fill:#3A3A3A;" points="254.261,181.786 251.991,184.391 252.284,186.331 255.986,186.331 257.176,183.392 
						257.809,182.98 257.711,181.786 					"/>
					<polygon style="fill:#3A3A3A;" points="265.533,181.786 267.805,184.391 267.512,186.331 263.81,186.331 262.621,183.392 
						261.988,182.98 262.086,181.786 					"/>
					<polygon style="fill:#DBB8A5;" points="268.357,136.183 266.632,139.35 265.726,148.206 266.167,156.076 265.535,157.966 
						265.526,157.966 265.528,159.258 266.231,158.985 265.528,160.317 265.528,161.765 267.565,159.807 267.877,157.966 
						267.886,157.966 267.805,155.852 268.862,148.975 					"/>
					<polygon style="fill:#DBB8A5;" points="251.45,136.183 253.174,139.35 254.082,148.206 253.642,156.076 254.271,157.966 
						254.28,157.966 254.279,159.258 253.575,158.985 254.279,160.317 254.279,161.765 252.244,159.807 251.93,157.966 
						251.921,157.966 252.001,155.852 250.946,148.975 					"/>
					<polygon style="fill:#2B5090;" points="251.442,136.183 249.909,144.606 254.105,145.176 252.008,136.275 251.499,136.231 
											"/>
					<polygon style="fill:#2B5090;" points="268.366,136.183 269.897,144.606 265.701,145.176 267.799,136.275 268.308,136.231 
											"/>
					<polygon style="fill:#212B6E;" points="262.882,134.147 259.903,136.967 256.927,134.147 251.442,136.183 252.269,140.003 
						252.344,140.351 252.447,140.831 252.524,141.178 252.628,141.658 252.703,142.004 253.479,145.586 254.654,153.187 
						259.903,153.187 265.153,153.187 266.328,145.586 267.105,142.004 267.181,141.658 267.284,141.178 267.359,140.831 
						267.464,140.351 267.538,140.003 268.366,136.183 					"/>
					<g>
						<rect x="254.654" y="153.187" style="fill:#3C2415;" width="10.499" height="1.527"/>
						<g>
							<path style="fill:#C2B59B;" d="M258.572,152.658v2.506h3.035v-2.506H258.572z M260.873,154.558h-1.565v-1.294h1.565V154.558z
								"/>
							<rect x="259.308" y="153.656" style="fill:#9B8579;" width="0.782" height="0.509"/>
						</g>
					</g>
				</g>
			</g>
			<g>
				<polygon style="fill:#3F3F3F;" points="256.122,128.907 258.914,128.907 259.328,127.559 256.122,127.531 				"/>
				<polygon style="fill:#3F3F3F;" points="263.728,128.907 260.935,128.907 260.523,127.559 263.728,127.531 				"/>
				<g>
					<g>
						<g>
							<path style="fill:#2B2B2B;" d="M255.811,127.313v1.861h3.281l0.592-1.861H255.811z M258.599,128.688h-2.172v-0.952h2.524
								L258.599,128.688z"/>
							<path style="fill:#2B2B2B;" d="M260.123,127.313l0.592,1.861h3.281v-1.861H260.123z M260.854,127.735h2.527v0.952h-2.173
								L260.854,127.735z"/>
						</g>
						<rect x="259.328" y="127.313" style="fill:#2B2B2B;" width="1.151" height="0.493"/>
					</g>
					<rect x="255.352" y="127.531" style="fill:#2B2B2B;" width="0.458" height="0.345"/>
					<rect x="263.996" y="127.531" style="fill:#2B2B2B;" width="0.46" height="0.345"/>
				</g>
			</g>
		</g>
	</g>
	<g>
		<polygon style="fill:#E6E6E6;" points="282.987,337.268 285.636,337.024 290.304,324.463 290.307,324.46 280.814,321.422 
			279.741,321.934 279.823,321.878 282.202,318.071 286.932,314.003 287.763,314.003 288.727,312.459 288.953,312.265 
			289.101,312.066 289.928,312.066 290.25,311.551 289.484,311.551 295.421,303.576 287.79,300.354 276.084,303.612 
			271.802,311.551 271.342,311.551 271.02,312.066 271.523,312.066 271.417,312.265 271.398,312.986 270.763,314.003 
			271.371,314.003 271.271,317.873 271.316,317.892 268.828,321.874 268.445,321.422 255.154,324.46 244.121,337.024 
			246.467,337.269 242.203,343.542 237.985,353.803 235.847,356.955 235.865,356.955 234.802,359.701 237.203,362.622 
			238.554,360.461 238.334,358.475 239.54,358.883 240.747,356.955 240.729,356.955 241.181,354.136 248.446,343.797 
			245.979,349.825 244.555,352.103 218.504,392.49 211.36,396.377 210.164,399.27 217.852,399.27 223.061,394.886 224.757,394.272 
			225.669,392.49 249.594,361.455 234.74,392.49 234.756,392.49 233.44,394.272 234.369,394.886 234.1,399.27 241.788,399.27 
			244.207,396.377 241.915,392.49 241.901,392.49 266.32,352.103 266.361,352.103 267.785,349.825 272.849,343.797 267.195,354.136 
			264.123,356.955 264.104,356.955 262.904,358.883 264.62,358.475 261.918,360.461 260.567,362.622 266.622,359.701 
			268.986,356.955 269.005,356.955 270.808,353.803 279.412,343.542 		"/>
		<g>
			<g>
				<g>
					<polygon style="fill:#B3A08A;" points="217.055,278.14 216.317,266.095 225.987,261.559 235.631,266.044 234.592,278.14 					
						"/>
					<polygon style="fill:#3B3830;" points="215.085,333.603 214.269,389.831 221.434,389.831 226.373,342.759 226.373,332.873 
											"/>
					<polygon style="fill:#666154;" points="236.851,333.603 237.666,389.831 230.505,389.831 225.561,342.759 225.561,332.873 
											"/>
					<polygon style="fill:#DBB8A5;" points="231.469,291.524 225.97,300.354 220.47,291.524 220.47,284.724 231.469,284.724 					
						"/>
					<polygon style="fill:#EDD0B9;" points="234.592,278.14 232.676,274.166 224.112,277.317 219.522,275.193 217.055,278.14 
						220.414,285.948 225.825,288.347 231.442,286.292 					"/>
					<polygon style="fill:#3A3A3A;" points="214.269,389.831 209.553,395.242 210.164,399.27 217.852,399.27 220.322,393.166 
						221.635,392.311 221.434,389.831 					"/>
					<polygon style="fill:#3A3A3A;" points="237.68,389.831 242.399,395.242 241.788,399.27 234.1,399.27 231.63,393.166 
						230.317,392.311 230.52,389.831 					"/>
					<polygon style="fill:#DBB8A5;" points="243.544,295.118 239.963,301.694 238.079,320.088 238.995,336.434 237.685,340.358 
						237.666,340.358 237.67,343.042 239.131,342.475 237.67,345.24 237.67,348.249 241.899,344.183 242.548,340.358 
						242.566,340.358 242.399,335.97 244.593,321.685 					"/>
					<polygon style="fill:#DBB8A5;" points="208.431,295.118 212.011,301.694 213.896,320.088 212.981,336.434 214.29,340.358 
						214.309,340.358 214.306,343.042 212.845,342.475 214.306,345.24 214.306,348.249 210.079,344.183 209.427,340.358 
						209.408,340.358 209.577,335.97 207.384,321.685 					"/>
					<polygon style="fill:#9E0000;" points="208.413,295.118 205.23,312.611 213.946,313.796 209.588,295.309 208.531,295.217 					
						"/>
					<polygon style="fill:#9E0000;" points="243.563,295.118 246.744,312.611 238.029,313.796 242.386,295.309 243.443,295.217 
											"/>
					<polygon style="fill:#E60000;" points="232.174,290.889 225.987,296.746 219.805,290.889 208.413,295.118 210.131,303.052 
						210.287,303.773 210.502,304.77 210.661,305.49 210.875,306.487 211.033,307.208 212.643,314.647 215.085,330.433 
						225.987,330.433 236.892,330.433 239.331,314.647 240.945,307.208 241.101,306.487 241.316,305.49 241.473,304.77 
						241.688,303.773 241.845,303.052 243.564,295.118 					"/>
					<g>
						<rect x="215.085" y="330.433" width="21.807" height="3.171"/>
						<g>
							<path style="fill:#C2B59B;" d="M223.223,329.334v5.206h6.305v-5.206H223.223z M228.001,333.281h-3.253v-2.688h3.253V333.281z
								"/>
							<rect x="224.748" y="331.408" style="fill:#9B8579;" width="1.625" height="1.058"/>
						</g>
					</g>
				</g>
			</g>
			<g>
				<polygon style="fill:#3F3F3F;" points="218.133,280.005 223.934,280.005 224.792,277.205 218.133,277.147 				"/>
				<polygon style="fill:#3F3F3F;" points="233.933,280.005 228.13,280.005 227.274,277.205 233.933,277.147 				"/>
				<g>
					<g>
						<g>
							<path style="fill:#2B2B2B;" d="M217.487,276.694v3.866h6.814l1.229-3.866H217.487z M223.276,279.55h-4.511v-1.979h5.245
								L223.276,279.55z"/>
							<path style="fill:#2B2B2B;" d="M226.442,276.694l1.229,3.866h6.815v-3.866H226.442z M227.964,277.571h5.246v1.979h-4.512
								L227.964,277.571z"/>
						</g>
						<rect x="224.792" y="276.694" style="fill:#2B2B2B;" width="2.392" height="1.023"/>
					</g>
					<rect x="216.534" y="277.147" style="fill:#2B2B2B;" width="0.953" height="0.718"/>
					<rect x="234.487" y="277.147" style="fill:#2B2B2B;" width="0.955" height="0.718"/>
				</g>
			</g>
		</g>
	</g>
	<g>
		<polygon style="fill:#E6E6E6;" points="214.003,235.217 214.035,235.186 206.734,233.047 205.907,233.4 205.958,233.37 
			207.893,230.685 211.485,227.949 212.192,227.949 213.05,226.758 213.132,226.695 213.833,226.695 214.074,226.36 213.52,226.36 
			216.642,223.524 217.712,220.562 212.49,218.216 203.887,220.562 200.69,223.524 199.727,226.36 199.399,226.36 199.158,226.695 
			199.639,226.695 199.615,227.086 198.994,227.949 199.563,227.949 199.406,230.55 199.442,230.563 197.422,233.366 
			197.134,233.047 186.752,235.186 176.771,247.29 171.033,258.065 170.146,259.999 171.946,262.055 173.042,260.533 
			172.914,259.134 173.842,259.423 174.82,258.065 178.86,253.332 177.911,254.649 156.802,283.081 151.169,285.818 
			150.176,287.854 156.145,287.854 160.284,284.769 161.616,284.337 162.361,283.081 181.615,261.237 169.403,283.081 
			169.415,283.081 168.353,284.337 169.063,284.769 168.757,287.854 174.723,287.854 176.664,285.818 174.975,283.081 
			174.963,283.081 194.808,254.649 194.839,254.649 195.71,253.439 192.995,258.065 192.981,258.065 192.007,259.423 
			193.348,259.134 191.206,260.533 190.111,262.055 194.873,259.999 196.77,258.065 196.785,258.065 206.565,247.29 		"/>
		<g>
			<g>
				<polygon style="fill:#212B6E;" points="153.996,236.888 153.365,280.528 158.923,280.528 162.761,243.992 162.761,236.319 				
					"/>
				<polygon style="fill:#2B3990;" points="170.893,236.888 171.525,280.528 165.966,280.528 162.129,243.992 162.129,236.319 				
					"/>
				<polygon style="fill:#2B5090;" points="148.82,207.014 147.556,225.592 149.578,242.13 153.365,242.13 154.298,231.393 
					151.597,212.119 				"/>
				<polygon style="fill:#2B5090;" points="176.089,207.014 177.35,225.592 175.33,242.13 171.54,242.13 170.608,231.393 
					173.308,212.119 				"/>
				<polygon style="fill:#DBB8A5;" points="166.717,204.226 162.446,211.079 158.179,204.226 158.179,198.946 166.717,198.946 				
					"/>
				<polygon style="fill:#594A42;" points="169.247,184.567 162.335,180.966 155.421,184.567 154.358,189.113 155.528,193.836 
					162.335,193.836 169.139,193.836 170.31,189.113 				"/>
				<polygon style="fill:#EDD0B9;" points="169.139,193.836 167.652,190.751 161.005,193.197 157.443,191.548 155.528,193.836 
					158.134,199.897 162.335,201.759 166.694,200.164 				"/>
				<polygon points="153.365,280.528 149.702,284.729 150.176,287.854 156.145,287.854 158.061,283.117 159.082,282.455 
					158.923,280.528 				"/>
				<polygon points="171.538,280.528 175.198,284.729 174.723,287.854 168.757,287.854 166.84,283.117 165.819,282.455 
					165.977,280.528 				"/>
				<polygon style="fill:#DBB8A5;" points="149.578,242.13 150.083,245.099 153.365,248.255 153.365,245.919 152.229,243.771 
					153.365,244.214 153.365,242.13 				"/>
				<polygon style="fill:#DBB8A5;" points="175.314,242.13 174.811,245.099 171.529,248.255 171.529,245.919 172.663,243.771 
					171.529,244.214 171.525,242.13 				"/>
				<polygon style="fill:#2188DB;" points="167.261,203.73 162.46,208.278 157.661,203.73 148.82,207.014 150.152,213.172 
					150.272,213.731 150.441,214.504 150.564,215.064 150.729,215.838 150.854,216.398 152.103,222.172 153.996,234.425 
					162.46,234.425 170.925,234.425 172.82,222.172 174.07,216.398 174.19,215.838 174.359,215.064 174.479,214.504 
					174.646,213.731 174.77,213.172 176.102,207.014 				"/>
				<g>
					<rect x="153.996" y="234.425" style="fill:#3C2415;" width="16.928" height="2.463"/>
					<g>
						<path style="fill:#C2B59B;" d="M160.314,233.572v4.042h4.895v-4.042H160.314z M164.022,236.635h-2.523v-2.084h2.523V236.635z"
							/>
						<rect x="161.499" y="235.182" style="fill:#9B8579;" width="1.261" height="0.82"/>
					</g>
				</g>
				<g>
					<g>
						<g>
							<path style="fill:#594A42;" d="M155.849,193.143v2.762h5.291l0.955-2.762H155.849z M160.343,195.183h-3.503v-1.412h4.073
								L160.343,195.183z"/>
							<path style="fill:#594A42;" d="M162.799,193.143l0.957,2.762h5.291v-2.762H162.799z M163.981,193.771h4.072v1.412h-3.503
								L163.981,193.771z"/>
						</g>
						<rect x="161.519" y="193.143" style="fill:#594A42;" width="1.857" height="0.731"/>
					</g>
					<rect x="155.109" y="193.467" style="fill:#594A42;" width="0.739" height="0.513"/>
					<rect x="169.046" y="193.467" style="fill:#594A42;" width="0.738" height="0.513"/>
				</g>
			</g>
		</g>
	</g>
	<g>
		<polygon style="fill:#E6E6E6;" points="180.909,100.312 180.922,100.299 177.921,99.335 177.569,99.495 177.591,99.48 
			178.453,98.271 180.008,97.039 180.303,97.039 180.686,96.502 180.721,96.475 181.013,96.475 181.121,96.324 180.89,96.324 
			182.25,95.046 182.758,93.713 180.627,92.656 176.989,93.713 175.595,95.046 175.135,96.324 174.998,96.324 174.891,96.475 
			175.091,96.475 175.073,96.651 174.797,97.039 175.034,97.039 174.915,98.21 174.93,98.216 174.029,99.479 173.915,99.335 
			169.54,100.299 165.127,105.749 162.511,110.602 162.101,111.473 162.81,112.399 163.298,111.713 163.273,111.084 
			163.655,111.213 164.091,110.602 165.874,108.47 165.451,109.063 156.059,121.868 153.652,123.1 153.196,124.017 155.686,124.017 
			157.477,122.627 158.041,122.433 158.378,121.868 166.86,112.031 161.316,121.868 161.321,121.868 160.852,122.433 
			161.14,122.627 160.948,124.017 163.438,124.017 164.29,123.1 163.641,121.868 163.636,121.868 172.5,109.063 172.514,109.063 
			172.901,108.52 171.674,110.602 171.668,110.602 171.233,111.213 171.799,111.084 170.877,111.713 170.388,112.399 
			172.417,111.473 173.248,110.602 173.255,110.602 177.557,105.749 		"/>
		<g>
			<g>
				<polygon style="fill:#212B6E;" points="154.79,102.753 154.526,120.96 156.846,120.96 158.447,105.717 158.447,102.516 				"/>
				<polygon style="fill:#2B3990;" points="161.839,102.753 162.104,120.96 159.784,120.96 158.183,105.717 158.183,102.516 				"/>
				<polygon style="fill:#2B5090;" points="152.63,90.289 152.103,98.04 152.946,104.94 154.526,104.94 154.916,100.46 
					153.789,92.419 				"/>
				<polygon style="fill:#2B5090;" points="164.007,90.289 164.533,98.04 163.69,104.94 162.109,104.94 161.721,100.46 
					162.847,92.419 				"/>
				<polygon style="fill:#DBB8A5;" points="160.098,89.126 158.315,91.985 156.535,89.126 156.535,86.923 160.098,86.923 				"/>
				<polygon style="fill:#594A42;" points="161.153,80.924 158.269,79.421 155.384,80.924 154.941,82.82 155.429,84.791 
					158.269,84.791 161.108,84.791 161.596,82.82 				"/>
				<polygon style="fill:#EDD0B9;" points="161.108,84.791 160.487,83.504 157.714,84.524 156.228,83.836 155.429,84.791 
					156.516,87.32 158.269,88.096 160.088,87.431 				"/>
				<polygon points="154.526,120.96 152.998,122.713 153.196,124.017 155.686,124.017 156.486,122.04 156.912,121.764 
					156.846,120.96 				"/>
				<polygon points="162.108,120.96 163.636,122.713 163.438,124.017 160.948,124.017 160.149,122.04 159.723,121.764 
					159.789,120.96 				"/>
				<polygon style="fill:#DBB8A5;" points="152.946,104.94 153.158,106.179 154.526,107.496 154.526,106.521 154.052,105.625 
					154.526,105.81 154.526,104.94 				"/>
				<polygon style="fill:#DBB8A5;" points="163.684,104.94 163.474,106.179 162.105,107.496 162.105,106.521 162.578,105.625 
					162.105,105.81 162.104,104.94 				"/>
				<polygon style="fill:#2188DB;" points="160.324,88.919 158.321,90.816 156.319,88.919 152.63,90.289 153.186,92.858 
					153.236,93.092 153.307,93.414 153.358,93.648 153.427,93.971 153.479,94.204 154,96.613 154.79,101.725 158.321,101.725 
					161.853,101.725 162.644,96.613 163.165,94.204 163.215,93.971 163.286,93.648 163.336,93.414 163.406,93.092 163.457,92.858 
					164.013,90.289 				"/>
				<g>
					<rect x="154.79" y="101.725" style="fill:#3C2415;" width="7.062" height="1.028"/>
					<g>
						<path style="fill:#C2B59B;" d="M157.426,101.37v1.687h2.042v-1.687H157.426z M158.973,102.647h-1.053v-0.87h1.053V102.647z"/>
						<rect x="157.92" y="102.041" style="fill:#9B8579;" width="0.526" height="0.342"/>
					</g>
				</g>
				<g>
					<g>
						<g>
							<path style="fill:#594A42;" d="M155.563,84.502v1.152h2.207l0.398-1.152H155.563z M157.438,85.353h-1.461v-0.589h1.699
								L157.438,85.353z"/>
							<path style="fill:#594A42;" d="M158.462,84.502l0.399,1.152h2.207v-1.152H158.462z M158.956,84.764h1.699v0.589h-1.462
								L158.956,84.764z"/>
						</g>
						<rect x="157.929" y="84.502" style="fill:#594A42;" width="0.774" height="0.305"/>
					</g>
					<rect x="155.254" y="84.637" style="fill:#594A42;" width="0.309" height="0.214"/>
					<rect x="161.069" y="84.637" style="fill:#594A42;" width="0.308" height="0.214"/>
				</g>
			</g>
		</g>
	</g>
	<g>
		<polygon style="fill:#E6E6E6;" points="138.61,153.287 138.631,153.268 134.261,151.855 133.726,152.089 133.76,152.068 
			135.135,150.294 137.538,148.488 137.975,148.488 138.585,147.701 138.639,147.66 139.073,147.66 139.244,147.439 
			138.901,147.439 141.02,145.565 141.879,143.61 138.807,142.061 133.332,143.61 131.159,145.565 130.374,147.439 130.171,147.439 
			130.001,147.66 130.298,147.66 130.257,147.918 129.815,148.488 130.167,148.488 129.897,150.206 129.919,150.214 
			128.483,152.066 128.326,151.855 121.766,153.268 114.789,161.262 110.524,168.377 109.846,169.654 110.823,171.012 
			111.602,170.007 111.615,169.083 112.17,169.273 112.865,168.377 115.678,165.252 115.003,166.122 100.06,184.899 96.395,186.706 
			95.645,188.051 99.335,188.051 102.1,186.012 102.952,185.728 103.496,184.899 116.854,170.473 107.849,184.899 107.856,184.899 
			107.116,185.728 107.527,186.012 107.132,188.051 110.82,188.051 112.156,186.706 111.294,184.899 111.286,184.899 
			125.448,166.122 125.468,166.122 126.088,165.321 124.101,168.377 124.092,168.377 123.399,169.273 124.248,169.083 
			122.831,170.007 122.052,171.012 125.132,169.654 126.434,168.377 126.444,168.377 133.207,161.262 		"/>
		<g>
			<g>
				<polygon style="fill:#212B6E;" points="98.007,156.543 97.617,183.522 101.053,183.522 103.425,160.935 103.425,156.192 				"/>
				<polygon style="fill:#2B3990;" points="108.452,156.543 108.843,183.522 105.406,183.522 103.034,160.935 103.034,156.192 				
					"/>
				<polygon style="fill:#2B5090;" points="94.807,138.076 94.025,149.561 95.275,159.784 97.617,159.784 98.193,153.146 
					96.523,141.231 				"/>
				<polygon style="fill:#2B5090;" points="111.665,138.076 112.444,149.561 111.195,159.784 108.852,159.784 108.276,153.146 
					109.945,141.231 				"/>
				<polygon style="fill:#DBB8A5;" points="105.871,136.352 103.23,140.588 100.593,136.352 100.593,133.087 105.871,133.087 				
					"/>
				<polygon points="107.435,124.199 103.161,121.973 98.888,124.199 98.23,127.009 98.954,129.929 103.161,129.929 
					107.368,129.929 108.092,127.009 				"/>
				<polygon style="fill:#EDD0B9;" points="107.368,129.929 106.449,128.022 102.34,129.534 100.138,128.514 98.954,129.929 
					100.565,133.676 103.161,134.827 105.856,133.84 				"/>
				<polygon points="97.617,183.522 95.353,186.119 95.645,188.051 99.335,188.051 100.52,185.122 101.151,184.713 101.053,183.522 
									"/>
				<polygon points="108.851,183.522 111.114,186.119 110.82,188.051 107.132,188.051 105.947,185.122 105.316,184.713 
					105.413,183.522 				"/>
				<polygon style="fill:#DBB8A5;" points="95.275,159.784 95.588,161.619 97.617,163.57 97.617,162.126 96.914,160.799 
					97.617,161.072 97.617,159.784 				"/>
				<polygon style="fill:#DBB8A5;" points="111.185,159.784 110.874,161.619 108.846,163.57 108.846,162.126 109.546,160.799 
					108.846,161.072 108.843,159.784 				"/>
				<polygon style="fill:#2188DB;" points="106.207,136.045 103.239,138.856 100.272,136.045 94.807,138.076 95.63,141.883 
					95.705,142.229 95.809,142.706 95.885,143.052 95.987,143.531 96.064,143.876 96.836,147.446 98.007,155.02 103.239,155.02 
					108.472,155.02 109.643,147.446 110.416,143.876 110.491,143.531 110.595,143.052 110.669,142.706 110.772,142.229 
					110.849,141.883 111.672,138.076 				"/>
				<g>
					<rect x="98.007" y="155.02" style="fill:#3C2415;" width="10.464" height="1.523"/>
					<g>
						<path style="fill:#C2B59B;" d="M101.913,154.494v2.499h3.026v-2.499H101.913z M104.205,156.387h-1.56v-1.289h1.56V156.387z"/>
						<rect x="102.646" y="155.489" style="fill:#9B8579;" width="0.779" height="0.507"/>
					</g>
				</g>
				<g>
					<g>
						<g>
							<path style="fill:#594A42;" d="M99.152,129.501v1.707h3.271l0.59-1.707H99.152z M101.931,130.761h-2.166v-0.872h2.518
								L101.931,130.761z"/>
							<path style="fill:#594A42;" d="M103.449,129.501l0.592,1.707h3.271v-1.707H103.449z M104.18,129.889h2.517v0.872h-2.166
								L104.18,129.889z"/>
						</g>
						<rect x="102.657" y="129.501" style="fill:#594A42;" width="1.148" height="0.452"/>
					</g>
					<rect x="98.695" y="129.701" style="fill:#594A42;" width="0.457" height="0.317"/>
					<rect x="107.311" y="129.701" style="fill:#594A42;" width="0.456" height="0.317"/>
				</g>
			</g>
		</g>
	</g>
	<g>
		<path style="fill:#E6E6E6;" d="M106.279,107.877l3.528-5.677l0.005-0.004l-1.309-0.444l0.373-0.792l1.29-1.338l1.564-2.704
			l1.696-1.928l-2.635-1.09l-4.296,1.102l-1.307,1.973l-2.453,2.646l-0.726,1.338l-0.836,0.808l-1.896,0.426v-0.015l-4.979,5.678
			l-1.997,3.078l-0.821,0.938l0.004,0l-0.519,0.824l0.321,0.909l0.534-0.645l0.13-0.606l0.26,0.136l0.477-0.575h-0.005l0.374-0.852
			l3.13-3.491l1.011-1.103l0.915,0.553l-1.967,2.252l-2.001,1.176l-3.128,4.943l0.372,0.056l-4.773,7.433l-0.114,0.151l-1.838,1.059
			l-1.488,0.924l4.577-1.176l0.296-0.689l0.082-0.504l5.466-6.867l0.636,0.096l0.756-0.093l-4.874,6.865l-0.678,0.504l-0.022,0.03
			l-0.71,0.659l2.806,1.176l-0.098-0.924l-0.243-1.059l-0.015,0.008l0.119-0.159l6.419-7.43l0.481-0.059l4.317-4.943h0.001
			l-0.229-1.176l1.422-2.252l1.785-0.565l-0.656,1.129l-2.101,3.493l-0.9,0.851h-0.005l-0.384,0.575l0.461-0.134l-0.774,0.604
			l-0.432,0.645l1.678-0.905l0.717-0.824h0.004l0.584-0.938L106.279,107.877z M86.669,123.344L86.669,123.344l0.001,0
			L86.669,123.344z M90.543,123.344l-0.004-0.001l0.008-0.001L90.543,123.344z"/>
		<g>
			<g>
				<polygon style="fill:#BCA07E;" points="84.159,82.939 83.612,87.572 83.894,89.545 83.612,91.02 87.354,93.058 87.354,82.335 
									"/>
				<polygon style="fill:#BCA07E;" points="90.496,82.939 91.043,87.572 90.761,89.545 91.043,91.02 87.301,93.058 87.301,82.335 
									"/>
				<polygon style="fill:#CEB797;" points="84.159,85.077 83.894,80.761 87.36,79.136 90.816,80.743 90.444,85.077 				"/>
				<polygon style="fill:#DBB8A5;" points="88.878,89.873 87.354,93.038 85.829,89.873 85.829,87.437 88.878,87.437 				"/>
				<polygon style="fill:#EDD0B9;" points="90.444,85.077 89.756,83.654 86.687,84.782 85.044,84.021 84.159,85.077 85.362,87.876 
					87.301,88.734 89.314,87.998 				"/>
				<polygon style="fill:#DBB8A5;" points="82.08,91.341 83.621,94.201 83.054,99.295 82.552,104.443 82.82,105.699 82.825,105.699 
					82.781,106.546 82.419,106.347 82.745,107.24 82.695,108.19 81.69,106.85 81.588,105.634 81.584,105.634 81.698,104.251 
					81.378,99.713 				"/>
				<polygon style="fill:#DBB8A5;" points="92.626,91.368 91.1,94.22 91.695,99.317 92.224,104.468 91.964,105.722 91.96,105.722 
					92.008,106.57 92.368,106.373 92.049,107.264 92.103,108.214 93.1,106.88 93.196,105.665 93.2,105.664 93.077,104.281 
					93.373,99.745 				"/>
				<polygon style="fill:#DBB8A5;" points="84.173,110.707 85.012,121.871 85.012,122.466 86.647,122.812 86.647,122.267 
					86.35,121.524 86.647,111.315 				"/>
				<polygon style="fill:#DBB8A5;" points="90.511,110.707 89.672,121.871 89.672,122.466 88.037,122.812 88.037,122.267 
					88.335,121.524 88.037,111.315 				"/>
				<polygon style="fill:#160F0C;" points="85.012,122.094 85.41,122.55 86.647,122.267 86.87,123.283 83.179,125.017 
					83.972,123.655 				"/>
				<polygon style="fill:#160F0C;" points="89.682,122.094 89.283,122.55 88.047,122.267 87.824,123.283 91.515,125.017 
					90.722,123.655 				"/>
				<g>
					<g>
						<g>
							<path style="fill:#594A42;" d="M84.522,84.644v1.185h2.271l0.411-1.185H84.522z M86.452,85.52h-1.504v-0.606h1.749
								L86.452,85.52z"/>
							<path style="fill:#594A42;" d="M87.506,84.644l0.41,1.185h2.271v-1.185H87.506z M88.013,84.913h1.748v0.606h-1.503
								L88.013,84.913z"/>
						</g>
						<rect x="86.956" y="84.644" style="fill:#594A42;" width="0.797" height="0.314"/>
					</g>
					<rect x="84.206" y="84.783" style="fill:#594A42;" width="0.316" height="0.22"/>
					<rect x="90.187" y="84.783" style="fill:#594A42;" width="0.316" height="0.22"/>
				</g>
				<polygon style="fill:#2B3990;" points="90.932,110.827 87.353,111.539 83.773,110.827 83.179,103.539 91.527,103.539 				"/>
				<polygon style="fill:#2188DB;" points="91.677,97.545 91.331,95.315 92.628,91.368 88.878,89.873 87.354,91.368 85.829,89.873 
					82.079,91.368 83.377,95.315 83.03,97.545 84.566,98.486 84.294,101.805 83.179,103.539 87.354,104.629 91.528,103.539 
					90.414,101.805 90.141,98.486 				"/>
			</g>
		</g>
	</g>
	<g>
		<path style="fill:#E6E6E6;" d="M215.988,163.977l4.993-8.287l-0.099,0.063l-4.512-1.466l0.197-0.267l3.893-0.86l0.368-1.074
			l1.487-1.439l1.383-2.796l2.255-2.597l-4.025-1.589l-6.402,1.607l-1.695,2.626l-2.698,2.749l-0.638,1.438l-1.217,1.074
			l2.685,0.881l-0.182,0.246l-6.646,1.459l-0.007-0.084l-7.17,8.283l-2.831,4.489l-1.186,1.369l0.008,0.001l-0.734,1.202
			l0.532,1.325l0.769-0.94l0.163-0.882l0.398,0.196l0.686-0.839h-0.007l0.517-1.243l4.513-5.092l1.034-1.138l-1.064,3.699
			l-2.945,1.715l-5.682,8.908l0.53,0.097l-5.478,9.129l-0.163,0.221l-2.706,1.544l-2.188,1.347l6.821-1.714l0.407-1.005l0.095-0.735
			l6.491-8.186l0.935,0.171l1.154-0.166l-5.594,8.18l-0.989,0.735l-0.03,0.041l-1.034,0.964l4.289,1.714l-0.198-1.347l-0.425-1.544
			l-0.022,0.01l0.171-0.231l7.999-9.124l0.708-0.102l7.473-8.908h0.002l-0.413-1.715l4.516-3.797l-0.706,1.258l-2.966,5.096
			l-1.307,1.241h-0.009l-0.545,0.839l0.686-0.195l-1.133,0.881l-0.612,0.94l2.475-1.32l1.031-1.202l0.008-0.001l0.825-1.369
			L215.988,163.977z M187.283,186.614l0-0.001l0.003,0.001L187.283,186.614z M193.114,186.614l-0.008-0.002l0.014-0.002
			L193.114,186.614z"/>
		<g>
			<g>
				<polygon style="fill:#2188DB;" points="193.792,170.282 188.406,171.605 183.019,170.282 182.123,156.729 194.688,156.729 				
					"/>
				<g>
					<polygon style="fill:#594A42;" points="183.599,125.484 182.777,130.623 183.201,132.811 182.777,134.445 188.407,136.707 
						188.407,124.813 					"/>
					<polygon style="fill:#594A42;" points="193.136,125.484 193.959,130.623 193.534,132.811 193.959,134.445 188.328,136.707 
						188.328,124.813 					"/>
					<polygon style="fill:#594A42;" points="183.599,128.941 183.201,122.445 188.417,119.999 193.616,122.417 193.058,128.941 
											"/>
				</g>
				<polygon style="fill:#DBB8A5;" points="190.701,136.16 188.407,140.922 186.112,136.16 186.112,132.492 190.701,132.492 				"/>
				<polygon style="fill:#EDD0B9;" points="193.058,128.941 192.022,126.798 187.406,128.497 184.929,127.353 183.599,128.941 
					185.41,133.152 188.328,134.445 191.357,133.338 				"/>
				<polygon style="fill:#DBB8A5;" points="180.475,138.252 182.797,142.556 181.941,150.224 181.188,157.971 181.589,159.862 
					181.596,159.862 181.529,161.138 180.986,160.839 181.475,162.182 181.4,163.612 179.89,161.596 179.736,159.767 
					179.728,159.766 179.903,157.684 179.42,150.854 				"/>
				<polygon style="fill:#DBB8A5;" points="196.347,138.294 194.052,142.585 194.948,150.257 195.744,158.01 195.353,159.898 
					195.344,159.898 195.419,161.175 195.962,160.878 195.479,162.219 195.561,163.649 197.062,161.641 197.206,159.812 
					197.213,159.811 197.027,157.729 197.473,150.901 				"/>
				<polygon style="fill:#2B3990;" points="194.913,147.706 194.392,144.351 196.346,138.41 190.701,136.16 188.407,138.41 
					186.112,136.16 180.468,138.41 182.422,144.351 181.902,147.706 183.802,154.119 182.123,156.729 188.407,158.369 
					194.691,156.729 193.011,154.119 				"/>
				<polygon style="fill:#DBB8A5;" points="183.62,170.43 184.882,184.319 184.882,185.214 187.343,185.736 187.343,184.916 
					186.896,183.798 187.343,171.343 				"/>
				<polygon style="fill:#DBB8A5;" points="193.16,170.43 191.897,184.319 191.897,185.214 189.436,185.736 189.436,184.916 
					189.883,183.798 189.436,171.343 				"/>
				<polygon style="fill:#BE1E2D;" points="184.882,184.655 185.481,185.342 187.343,184.916 187.679,186.446 182.123,189.054 
					183.317,187.004 				"/>
				<polygon style="fill:#BE1E2D;" points="191.912,184.655 191.313,185.342 189.45,184.916 189.114,186.446 194.669,189.054 
					193.477,187.004 				"/>
			</g>
		</g>
	</g>
	<g>
		<path style="fill:#E6E6E6;" d="M163.706,214.281l6.014-10.269l-0.124,0.079l-5.908-1.816l0.24-0.331l4.985-1.065l0.42-1.331
			l1.845-1.782l1.64-3.465l2.778-3.218l-5.287-1.969l-8.189,1.992l-2.052,3.255l-3.341,3.405l-0.748,1.782l-1.517,1.331l3.516,1.091
			l-0.222,0.305l-8.51,1.808l-0.013-0.104l-8.829,10.264l-3.421,5.563l-1.46,1.696l0.009,0l-0.885,1.49l0.757,1.642l0.944-1.165
			l0.165-1.094l0.524,0.243l0.843-1.039h-0.009l0.601-1.54l5.564-6.311l0.122-0.134l-3.741,5.433l-6.872,11.038l1.638,0.286
			l-0.95-0.165l-6.597,11.313l-0.199,0.274l-3.414,1.913l-2.758,1.67l8.724-2.125l0.473-1.245l0.085-0.911l7.956-10.144l1.22,0.213
			l1.481-0.206l-6.797,10.137l-1.239,0.911l-0.037,0.05l-1.286,1.195l5.633,2.125l-0.326-1.67l-0.631-1.913l-0.028,0.014
			l0.209-0.287l9.855-11.307l0.91-0.127l9.186-11.037l0.003-0.001l4.469-5.829l-0.303,0.559l-3.563,6.313l-1.625,1.538h-0.011
			l-0.659,1.04l0.876-0.241l-1.417,1.091l-0.741,1.165l3.127-1.635l1.269-1.49l0.01-0.002l0.994-1.695L163.706,214.281z
			 M127.806,242.331l-0.001-0.001l0.004,0.001H127.806z M135.341,242.331l-0.011-0.001l0.02-0.003L135.341,242.331z"/>
		<g>
			<g>
				<polygon style="fill:#2188DB;" points="136.346,221.097 129.386,222.806 122.424,221.097 121.267,203.583 137.504,203.583 				
					"/>
				<g>
					<polygon style="fill:#594A42;" points="123.173,163.207 122.111,169.847 122.659,172.674 122.111,174.787 129.387,177.71 
						129.387,162.341 					"/>
					<polygon style="fill:#594A42;" points="135.498,163.207 136.561,169.847 136.013,172.674 136.561,174.787 129.285,177.71 
						129.285,162.341 					"/>
					<polygon style="fill:#594A42;" points="123.173,167.674 122.659,159.28 129.399,156.12 136.118,159.244 135.396,167.674 					
						"/>
				</g>
				<polygon style="fill:#DBB8A5;" points="132.352,177.002 129.387,183.156 126.421,177.002 126.421,172.263 132.352,172.263 				
					"/>
				<polygon style="fill:#EDD0B9;" points="135.396,167.674 134.06,164.905 128.093,167.101 124.893,165.622 123.173,167.674 
					125.514,173.116 129.285,174.787 133.2,173.356 				"/>
				<polygon style="fill:#DBB8A5;" points="119.137,179.706 122.138,185.268 121.031,195.176 120.058,205.189 120.577,207.632 
					120.586,207.632 120.499,209.28 119.798,208.894 120.429,210.63 120.332,212.478 118.381,209.873 118.182,207.508 
					118.172,207.507 118.398,204.816 117.773,195.99 				"/>
				<polygon style="fill:#DBB8A5;" points="139.647,179.759 136.682,185.306 137.839,195.22 138.868,205.238 138.362,207.678 
					138.352,207.678 138.449,209.328 139.149,208.945 138.526,210.677 138.633,212.525 140.571,209.931 140.757,207.567 
					140.766,207.565 140.526,204.875 141.102,196.052 				"/>
				<polygon style="fill:#1F4769;" points="137.795,191.923 137.121,187.587 139.645,179.91 132.352,177.002 129.387,179.91 
					126.421,177.002 119.128,179.91 121.653,187.587 120.98,191.923 121.267,203.583 129.387,205.702 137.507,203.583 				"/>
				<polygon style="fill:#DBB8A5;" points="123.2,221.288 124.832,239.236 124.832,240.392 128.012,241.067 128.012,240.008 
					127.435,238.564 128.012,222.468 				"/>
				<polygon style="fill:#DBB8A5;" points="135.529,221.288 133.897,239.236 133.897,240.392 130.717,241.067 130.717,240.008 
					131.294,238.564 130.717,222.468 				"/>
				<polygon style="fill:#BE1E2D;" points="124.832,239.671 125.606,240.558 128.012,240.008 128.445,241.984 121.267,245.355 
					122.81,242.706 				"/>
				<polygon style="fill:#BE1E2D;" points="133.916,239.671 133.142,240.558 130.734,240.008 130.301,241.984 137.479,245.355 
					135.938,242.706 				"/>
			</g>
		</g>
	</g>
	<g>
		<g>
			<path style="fill:#E6E6E6;" d="M372.686,104.873l3.367-6.575l-0.066,0.051l-2.954-1.164l0.133-0.211l2.569-0.682l0.254-0.853
				l0.992-1.141l0.94-2.221l1.509-2.059l-2.634-1.26l-4.229,1.275l-1.142,2.083l-1.802,2.182l-0.434,1.141l-0.813,0.853l1.758,0.698
				l-0.122,0.195l-4.388,1.158l-0.004-0.067l-4.8,6.571l-1.907,3.562l-0.794,1.086l0.005,0.001l-0.495,0.954l0.338,1.051
				l0.516-0.746l0.116-0.7l0.259,0.156l0.459-0.665h-0.004l0.353-0.986l3.02-4.04l0.068-0.09l-2.067,3.482l-3.827,7.067l3.114,0.69
				l0.76-0.132l-3.762,6.491l-0.658,0.583l-0.02,0.032l-0.69,0.766l2.806,1.36l-0.117-1.069l-0.264-1.225l-0.016,0.009l0.115-0.185
				l5.354-7.239l0.468-0.081l5.004-7.066l0.002,0l2.452-3.738l-0.174,0.363l-2.002,4.042l-0.873,0.985h-0.006l-0.366,0.665
				l0.454-0.155l-0.754,0.699l-0.412,0.746l1.642-1.047l0.69-0.954l0.004-0.001l0.558-1.085L372.686,104.873z M357.411,122.834
				l-0.007-0.001l0.013-0.002L357.411,122.834z"/>
			<path style="fill:#E6E6E6;" d="M355.008,122.029l4.352-6.496l-2.152-0.477l-3.694,7.243l-0.109,0.176l-1.795,1.225l-1.453,1.069
				l4.504-1.36l0.278-0.798L355.008,122.029z M353.573,122.833l0.004,0.001l-0.003,0L353.573,122.833z"/>
		</g>
		<g>
			<g>
				<polygon style="fill:#2188DB;" points="357.833,112.417 354.289,113.288 350.743,112.417 350.155,103.499 358.422,103.499 				
					"/>
				<g>
					<polygon style="fill:#594A42;" points="351.125,82.939 350.585,86.321 350.864,87.761 350.585,88.836 354.289,90.324 
						354.289,82.499 					"/>
					<polygon style="fill:#594A42;" points="357.401,82.939 357.942,86.321 357.663,87.761 357.942,88.836 354.237,90.324 
						354.237,82.499 					"/>
					<polygon style="fill:#594A42;" points="351.125,85.214 350.864,80.94 354.296,79.331 357.717,80.921 357.349,85.214 					"/>
				</g>
				<polygon style="fill:#DBB8A5;" points="355.799,89.964 354.289,93.098 352.779,89.964 352.779,87.551 355.799,87.551 				"/>
				<polygon style="fill:#EDD0B9;" points="357.349,85.214 356.669,83.805 353.631,84.922 352.001,84.169 351.125,85.214 
					352.316,87.985 354.237,88.836 356.231,88.108 				"/>
				<polygon style="fill:#DBB8A5;" points="349.069,91.341 350.598,94.173 350.034,99.219 349.539,104.317 349.803,105.561 
					349.807,105.561 349.764,106.4 349.407,106.204 349.728,107.087 349.679,108.029 348.685,106.702 348.583,105.498 
					348.578,105.498 348.693,104.127 348.375,99.633 				"/>
				<polygon style="fill:#DBB8A5;" points="359.514,91.368 358.003,94.193 358.594,99.241 359.117,104.342 358.859,105.585 
					358.853,105.585 358.903,106.425 359.261,106.23 358.943,107.111 358.997,108.053 359.984,106.731 360.079,105.528 
					360.083,105.527 359.962,104.157 360.255,99.665 				"/>
				<polygon style="fill:#1F4769;" points="358.57,97.562 358.227,95.354 359.513,91.445 355.799,89.964 354.289,91.445 
					352.779,89.964 349.065,91.445 350.352,95.354 350.009,97.562 350.155,103.499 354.289,104.578 358.424,103.499 				"/>
				<polygon style="fill:#DBB8A5;" points="351.139,112.514 351.97,121.654 351.97,122.242 353.589,122.586 353.589,122.047 
					353.295,121.312 353.589,113.116 				"/>
				<polygon style="fill:#DBB8A5;" points="357.417,112.514 356.586,121.654 356.586,122.242 354.966,122.586 354.966,122.047 
					355.26,121.312 354.966,113.116 				"/>
				<polygon style="fill:#BE1E2D;" points="351.97,121.876 352.364,122.327 353.589,122.047 353.81,123.054 350.155,124.77 
					350.94,123.421 				"/>
				<polygon style="fill:#BE1E2D;" points="356.596,121.876 356.201,122.327 354.975,122.047 354.755,123.054 358.41,124.77 
					357.625,123.421 				"/>
			</g>
		</g>
	</g>
	<g>
		<path style="fill:#E6E6E6;" d="M364.803,162.969l4.3-8.978l-0.048,0.035L367,153.33l0.418-1.251l1.711-2.115l1.872-4.276
			l2.214-3.042L369,140.922l-6.328,1.742l-1.617,3.118l-3.233,4.182l-0.852,2.115l-1.119,1.276l-2.77,0.664l-0.01-0.057
			l-6.503,8.973l-2.457,4.864l-1.071,1.482l0.005,0.001l-0.634,1.303l0.659,1.436l0.692-1.018l0.085-0.957l0.419,0.214l0.619-0.908
			l-0.007-0.002l0.409-1.345l4.103-5.517l1.3-1.702l1.499,0.876l-0.156,0.216h-0.207l-1.377,2.194l-0.829,1.148l-2.823,1.859
			l-4.94,9.651l1.617,0.313l-1.073-0.207l-4.713,9.891l-0.145,0.238l-2.596,1.672l-2.091,1.46l6.742-1.858l0.32-1.088l0.029-0.795
			l5.823-8.869l0.961,0.186l1.152-0.18l-4.916,8.863l-0.934,0.795l-0.024,0.041l-0.961,1.047l4.492,1.858l-0.323-1.46l-0.571-1.672
			l-0.017,0.01l0.15-0.248l7.261-9.885l0.71-0.111l6.749-9.65l0.002,0l-0.57-1.859l0.155-0.317l1.807-3.025h-0.327l0.105-0.216
			l2.622-0.897l-0.768,1.747l-2.539,5.521l-1.21,1.343h-0.007l-0.476,0.909l0.676-0.211l-1.064,0.954l-0.535,1.018l2.385-1.429
			l0.935-1.303h0.007l0.711-1.483L364.803,162.969z M343.748,187.452l-0.006-0.001l0.011-0.002L343.748,187.452z"/>
		<g>
			<g>
				<g>
					<polygon style="fill:#2B5090;" points="344.657,171.117 339.209,172.454 333.763,171.117 332.857,157.414 345.561,157.414 
											"/>
					<polygon style="fill:#351D12;" points="334.35,126.065 333.518,133.114 333.947,136.117 333.518,138.362 339.21,141.463 
						339.21,125.145 					"/>
					<polygon style="fill:#351D12;" points="343.992,126.065 344.825,133.114 344.395,136.117 344.825,138.362 339.132,141.463 
						339.132,125.145 					"/>
					<polygon style="fill:#351D12;" points="334.35,129.319 333.947,122.749 339.221,120.276 344.478,122.722 343.912,129.319 					
						"/>
					<polygon style="fill:#DBB8A5;" points="341.531,136.617 339.21,141.431 336.891,136.617 336.891,132.908 341.531,132.908 					
						"/>
					<polygon style="fill:#EDD0B9;" points="343.912,129.319 342.868,127.151 338.197,128.87 335.696,127.712 334.35,129.319 
						336.182,133.577 339.132,134.884 342.195,133.764 					"/>
					<polygon style="fill:#DBB8A5;" points="331.189,138.792 333.534,143.143 332.671,150.895 331.909,158.729 332.315,160.639 
						332.323,160.642 332.254,161.931 331.705,161.626 332.2,162.986 332.124,164.431 330.596,162.393 330.44,160.543 
						330.435,160.542 330.608,158.438 330.12,151.531 					"/>
					<polygon style="fill:#DBB8A5;" points="347.237,138.832 344.915,143.172 345.821,150.929 346.626,158.769 346.229,160.675 
						346.223,160.675 346.297,161.966 346.845,161.667 346.358,163.021 346.44,164.467 347.959,162.438 348.104,160.588 
						348.111,160.588 347.925,158.482 348.375,151.58 					"/>
					<polygon style="fill:#2188DB;" points="345.788,148.29 345.262,144.898 347.237,138.892 341.531,136.617 339.21,138.892 
						336.891,136.617 331.184,138.892 333.159,144.898 332.633,148.29 334.97,149.723 334.555,154.774 332.857,157.414 
						339.21,159.072 345.563,157.414 343.867,154.774 343.453,149.723 					"/>
					<polygon style="fill:#DBB8A5;" points="334.37,171.267 335.647,185.31 335.647,186.213 338.136,186.741 338.136,185.912 
						337.683,184.782 338.136,172.189 					"/>
					<polygon style="fill:#DBB8A5;" points="344.016,171.267 342.74,185.31 342.74,186.213 340.252,186.741 340.252,185.912 
						340.703,184.782 340.252,172.189 					"/>
					<polygon style="fill:#0263A5;" points="335.647,185.648 336.254,186.342 338.136,185.912 338.475,187.456 332.857,190.095 
						334.064,188.023 					"/>
					<polygon style="fill:#0263A5;" points="342.752,185.648 342.147,186.342 340.265,185.912 339.926,187.456 345.543,190.095 
						344.336,188.023 					"/>
				</g>
				<polygon style="fill:#084263;" points="343.832,154.629 334.663,154.774 334.737,150.029 343.806,150.029 				"/>
			</g>
		</g>
	</g>
	<g>
		<path style="fill:#E6E6E6;" d="M320.407,249.49l5.47-12.426l-0.068,0.049l-3.176-0.962l0.488-1.732l2.34-2.927l2.341-5.919
			l2.994-4.21l-6.55-2.384l-9.345,2.41l-2.087,4.316l-4.402,5.787l-1.045,2.927l-1.543,1.766l-4.103,0.92l-0.02-0.079l-8.791,12.417
			l-3.155,6.731l-1.449,2.051l0.009,0.002l-0.808,1.803l1.155,1.986l0.929-1.407l0.02-1.326l0.656,0.298l0.83-1.258l-0.01-0.003
			l0.464-1.862l5.563-7.634l1.769-2.355l2.358,1.213l-0.211,0.298h-0.311l-1.823,3.026l-1.127,1.598l-4.046,2.573l-6.359,13.356
			l1.356,0.236l-0.522-0.091l-5.991,13.689l-0.19,0.33l-3.725,2.314l-2.987,2.021l9.958-2.571l0.358-1.506l-0.047-1.102l7.78-12.272
			l1.471,0.257l1.715-0.249l-6.411,12.265l-1.317,1.102l-0.033,0.058l-1.328,1.448l6.982,2.571l-0.651-2.021l-1.051-2.314
			l-0.026,0.015l0.198-0.345l9.833-13.68l1.058-0.154l9.086-13.355l0.005-0.001l-1.071-2.573l0.196-0.435l2.386-4.189h-0.494
			l0.135-0.298l3.852-1.243l-0.961,2.418l-3.205,7.641l-1.672,1.859h-0.011l-0.615,1.258l0.995-0.292l-1.498,1.321l-0.69,1.408
			l3.433-1.978l1.262-1.804h0.011l0.903-2.052L320.407,249.49z M282.539,283.372l-0.001-0.001L282.539,283.372L282.539,283.372z
			 M291.427,283.372l-0.01-0.002l0.017-0.002L291.427,283.372z"/>
		<g>
			<g>
				<g>
					<g>
						<polygon style="fill:#2188DB;" points="293.096,258.414 284.882,260.431 276.668,258.414 275.304,237.752 294.459,237.752 
													"/>
						<polygon style="fill:#351D12;" points="277.554,190.485 276.3,201.113 276.947,205.641 276.3,209.025 284.882,213.702 
							284.882,189.097 						"/>
						<polygon style="fill:#351D12;" points="292.093,190.485 293.349,201.113 292.701,205.641 293.349,209.025 284.765,213.702 
							284.765,189.097 						"/>
						<polygon style="fill:#351D12;" points="277.554,195.391 276.947,185.484 284.898,181.756 292.826,185.444 291.972,195.391 
													"/>
						<polygon style="fill:#DBB8A5;" points="288.382,206.395 284.882,213.653 281.385,206.395 281.385,200.802 288.382,200.802 
													"/>
						<polygon style="fill:#EDD0B9;" points="291.972,195.391 290.397,192.122 283.354,194.714 279.583,192.968 277.554,195.391 
							280.314,201.811 284.765,203.781 289.383,202.092 						"/>
						<polygon style="fill:#DBB8A5;" points="272.788,209.673 276.323,216.235 275.021,227.924 273.873,239.734 274.486,242.615 
							274.497,242.619 274.395,244.564 273.566,244.105 274.314,246.155 274.198,248.333 271.895,245.261 271.659,242.471 
							271.65,242.469 271.913,239.296 271.177,228.883 						"/>
						<polygon style="fill:#DBB8A5;" points="296.986,209.734 293.484,216.279 294.851,227.975 296.064,239.795 295.467,242.67 
							295.456,242.67 295.568,244.617 296.395,244.165 295.66,246.208 295.785,248.388 298.074,245.328 298.293,242.538 
							298.304,242.538 298.021,239.364 298.701,228.956 						"/>
						<polygon style="fill:#084263;" points="294.802,223.997 294.008,218.881 296.986,209.825 288.382,206.395 284.882,209.825 
							281.385,206.395 272.781,209.825 275.759,218.881 274.965,223.997 278.487,226.156 277.862,233.771 275.304,237.752 
							284.882,240.253 294.463,237.752 291.904,233.771 291.28,226.156 						"/>
						<polygon style="fill:#DBB8A5;" points="277.586,258.64 279.51,279.815 279.51,281.177 283.263,281.973 283.263,280.723 
							282.579,279.02 283.263,260.031 						"/>
						<polygon style="fill:#DBB8A5;" points="292.128,258.64 290.204,279.815 290.204,281.177 286.453,281.973 286.453,280.723 
							287.134,279.02 286.453,260.031 						"/>
						<polygon style="fill:#0263A5;" points="279.51,280.326 280.424,281.371 283.263,280.723 283.774,283.052 275.304,287.03 
							277.123,283.905 						"/>
						<polygon style="fill:#0263A5;" points="290.223,280.326 289.311,281.371 286.473,280.723 285.962,283.052 294.431,287.03 
							292.611,283.905 						"/>
					</g>
					<polygon points="291.852,233.554 278.026,233.771 278.139,226.617 291.813,226.617 					"/>
				</g>
			</g>
			<g>
				<g>
					<path d="M281.758,197.645c-1.088,0-1.975-0.758-1.975-1.69c0-0.931,0.887-1.688,1.975-1.688c1.089,0,1.974,0.758,1.974,1.688
						C283.731,196.887,282.847,197.645,281.758,197.645z M281.758,194.865c-0.759,0-1.376,0.489-1.376,1.09
						c0,0.602,0.617,1.091,1.376,1.091c0.758,0,1.375-0.49,1.375-1.091C283.133,195.354,282.516,194.865,281.758,194.865z"/>
				</g>
				<g>
					<path d="M287.382,197.645c-1.088,0-1.973-0.758-1.973-1.69c0-0.931,0.885-1.688,1.973-1.688c1.088,0,1.974,0.758,1.974,1.688
						C289.355,196.887,288.47,197.645,287.382,197.645z M287.382,194.865c-0.758,0-1.374,0.489-1.374,1.09
						c0,0.602,0.616,1.091,1.374,1.091c0.759,0,1.375-0.49,1.375-1.091C288.757,195.354,288.141,194.865,287.382,194.865z"/>
				</g>
				<g>
					<g>
						<path d="M291.806,194.744l-1.357,0.913h-1.49c0.062,0.191,0.084,0.397,0.07,0.599h1.603l1.508-1.015L291.806,194.744z"/>
					</g>
					<g>
						<path d="M280.295,195.657h-1.341l-1.223-0.904l-0.355,0.48l1.381,1.023h1.516C280.24,196.057,280.252,195.852,280.295,195.657
							z"/>
					</g>
				</g>
				<g>
					<rect x="283.411" y="195.008" width="2.297" height="0.764"/>
				</g>
			</g>
		</g>
	</g>
	<g>
		<path style="fill:#E6E6E6;" d="M242.314,106.313l2.967-6.141l-0.032,0.024l-1.332-0.475l0.295-0.856l1.155-1.447l1.296-2.923
			l1.502-2.083l-2.731-1.178l-4.174,1.191l-1.112,2.132l-2.187,2.86l-0.593,1.447l-0.755,0.873l-1.825,0.455l-0.006-0.039
			l-4.409,6.138l-1.69,3.326l-0.726,1.014l0.002,0l-0.436,0.892l0.408,0.981l0.471-0.696l0.07-0.655l0.273,0.146l0.42-0.621
			l-0.005-0.002l0.29-0.92l2.78-3.773l0.88-1.164l0.967,0.6l-0.105,0.147h-0.135l-0.936,1.495l-0.566,0.791l-1.88,1.271
			l-3.397,6.601l0.485,0.098l-0.13-0.026l-3.253,6.766l-0.099,0.163l-1.728,1.143l-1.394,0.999l4.447-1.271l0.228-0.744l0.032-0.544
			l3.963-6.065l0.627,0.127l0.757-0.123l-3.368,6.062l-0.625,0.544l-0.018,0.03l-0.645,0.714l2.909,1.271l-0.186-0.999l-0.347-1.143
			l-0.011,0.005l0.103-0.169l4.921-6.762l0.468-0.076l4.581-6.601l0.001-0.001l-0.343-1.271l0.101-0.203l1.242-2.083h-0.215
			l0.072-0.147l1.732-0.614L240.832,106l-1.757,3.776l-0.814,0.918h-0.005l-0.327,0.622l0.446-0.145l-0.714,0.653l-0.366,0.696
			l1.585-0.978l0.634-0.891h0.005l0.489-1.014L242.314,106.313z M224.254,123.059L224.254,123.059L224.254,123.059L224.254,123.059z
			 M228.114,123.059l-0.003-0.001l0.006-0.001L228.114,123.059z"/>
		<g>
			<g>
				<g>
					<g>
						<polygon style="fill:#2188DB;" points="228.666,112.437 225.098,113.313 221.529,112.437 220.938,103.461 229.258,103.461 
													"/>
						<polygon style="fill:#351D12;" points="221.914,82.93 221.37,87.546 221.651,89.513 221.37,90.983 225.098,93.015 
							225.098,82.327 						"/>
						<polygon style="fill:#351D12;" points="228.229,82.93 228.776,87.546 228.495,89.513 228.776,90.983 225.047,93.015 
							225.047,82.327 						"/>
						<polygon style="fill:#351D12;" points="221.914,85.061 221.651,80.758 225.105,79.138 228.549,80.74 228.178,85.061 						"/>
						<polygon style="fill:#DBB8A5;" points="226.618,89.84 225.098,92.994 223.579,89.84 223.579,87.411 226.618,87.411 						"/>
						<polygon style="fill:#EDD0B9;" points="228.178,85.061 227.494,83.641 224.435,84.767 222.796,84.008 221.914,85.061 
							223.114,87.849 225.047,88.706 227.053,87.972 						"/>
						<polygon style="fill:#DBB8A5;" points="219.845,91.265 221.38,94.115 220.814,99.192 220.315,104.323 220.582,105.574 
							220.587,105.576 220.543,106.42 220.182,106.221 220.507,107.112 220.457,108.058 219.456,106.723 219.354,105.511 
							219.351,105.51 219.465,104.132 219.145,99.609 						"/>
						<polygon style="fill:#DBB8A5;" points="230.355,91.291 228.835,94.134 229.428,99.214 229.954,104.349 229.695,105.598 
							229.69,105.598 229.739,106.444 230.099,106.247 229.779,107.135 229.834,108.081 230.828,106.752 230.923,105.541 
							230.928,105.541 230.805,104.162 231.101,99.641 						"/>
						<polygon style="fill:#084263;" points="229.407,97.486 229.061,95.264 230.355,91.331 226.618,89.84 225.098,91.331 
							223.579,89.84 219.842,91.331 221.135,95.264 220.79,97.486 222.32,98.424 222.049,101.733 220.938,103.461 225.098,104.548 
							229.259,103.461 228.147,101.733 227.877,98.424 						"/>
						<polygon style="fill:#DBB8A5;" points="221.929,112.535 222.765,121.733 222.765,122.324 224.395,122.67 224.395,122.127 
							224.098,121.387 224.395,113.14 						"/>
						<polygon style="fill:#DBB8A5;" points="228.245,112.535 227.41,121.733 227.41,122.324 225.78,122.67 225.78,122.127 
							226.076,121.387 225.78,113.14 						"/>
						<polygon style="fill:#0263A5;" points="222.765,121.955 223.161,122.409 224.395,122.127 224.616,123.139 220.938,124.867 
							221.727,123.51 						"/>
						<polygon style="fill:#0263A5;" points="227.417,121.955 227.021,122.409 225.789,122.127 225.567,123.139 229.245,124.867 
							228.455,123.51 						"/>
					</g>
					<polygon points="228.126,101.638 222.12,101.733 222.169,98.625 228.108,98.625 					"/>
				</g>
			</g>
			<g>
				<g>
					<path d="M223.741,86.04c-0.474,0-0.857-0.329-0.857-0.734c0-0.405,0.384-0.734,0.857-0.734c0.473,0,0.856,0.329,0.856,0.734
						C224.598,85.711,224.214,86.04,223.741,86.04z M223.741,84.832c-0.33,0-0.599,0.212-0.599,0.474
						c0,0.261,0.268,0.474,0.599,0.474c0.328,0,0.597-0.213,0.597-0.474C224.338,85.045,224.069,84.832,223.741,84.832z"/>
				</g>
				<g>
					<path d="M226.184,86.04c-0.473,0-0.857-0.329-0.857-0.734c0-0.405,0.385-0.734,0.857-0.734s0.857,0.329,0.857,0.734
						C227.041,85.711,226.656,86.04,226.184,86.04z M226.184,84.832c-0.329,0-0.597,0.212-0.597,0.474
						c0,0.261,0.268,0.474,0.597,0.474c0.33,0,0.598-0.213,0.598-0.474C226.781,85.045,226.514,84.832,226.184,84.832z"/>
				</g>
				<g>
					<g>
						<path d="M228.105,84.78l-0.59,0.396h-0.647c0.028,0.083,0.037,0.172,0.031,0.26h0.696l0.654-0.441L228.105,84.78z"/>
					</g>
					<g>
						<path d="M223.105,85.176h-0.583l-0.531-0.393l-0.153,0.208l0.6,0.445h0.658C223.082,85.35,223.086,85.261,223.105,85.176z"/>
					</g>
				</g>
				<g>
					<rect x="224.459" y="84.895" width="0.998" height="0.332"/>
				</g>
			</g>
		</g>
	</g>
</g>
</svg>
